<svg xmlns="http://www.w3.org/2000/svg" width="81" height="36" viewBox="0 0 81 36">
  <g id="Group_2348" data-name="Group 2348" transform="translate(-473 -1572)">
    <g id="Group_2091" data-name="Group 2091" transform="translate(0 15)">
      <circle id="Ellipse_160" data-name="Ellipse 160" cx="3" cy="3" r="3" transform="translate(473 1557)" fill="#ffdfd7"/>
      <circle id="Ellipse_165" data-name="Ellipse 165" cx="3" cy="3" r="3" transform="translate(518 1557)" fill="#ffdfd7"/>
      <circle id="Ellipse_161" data-name="Ellipse 161" cx="3" cy="3" r="3" transform="translate(488 1557)" fill="#ffdfd7"/>
      <circle id="Ellipse_164" data-name="Ellipse 164" cx="3" cy="3" r="3" transform="translate(533 1557)" fill="#ffdfd7"/>
      <circle id="Ellipse_162" data-name="Ellipse 162" cx="3" cy="3" r="3" transform="translate(503 1557)" fill="#ffdfd7"/>
      <circle id="Ellipse_163" data-name="Ellipse 163" cx="3" cy="3" r="3" transform="translate(548 1557)" fill="#ffdfd7"/>
    </g>
    <g id="Group_2092" data-name="Group 2092" transform="translate(0 30)">
      <circle id="Ellipse_160-2" data-name="Ellipse 160" cx="3" cy="3" r="3" transform="translate(473 1557)" fill="#ffdfd7"/>
      <circle id="Ellipse_165-2" data-name="Ellipse 165" cx="3" cy="3" r="3" transform="translate(518 1557)" fill="#ffdfd7"/>
      <circle id="Ellipse_161-2" data-name="Ellipse 161" cx="3" cy="3" r="3" transform="translate(488 1557)" fill="#ffdfd7"/>
      <circle id="Ellipse_164-2" data-name="Ellipse 164" cx="3" cy="3" r="3" transform="translate(533 1557)" fill="#ffdfd7"/>
      <circle id="Ellipse_162-2" data-name="Ellipse 162" cx="3" cy="3" r="3" transform="translate(503 1557)" fill="#ffdfd7"/>
      <circle id="Ellipse_163-2" data-name="Ellipse 163" cx="3" cy="3" r="3" transform="translate(548 1557)" fill="#ffdfd7"/>
    </g>
    <g id="Group_2093" data-name="Group 2093" transform="translate(0 45)">
      <circle id="Ellipse_160-3" data-name="Ellipse 160" cx="3" cy="3" r="3" transform="translate(473 1557)" fill="#ffdfd7"/>
      <circle id="Ellipse_165-3" data-name="Ellipse 165" cx="3" cy="3" r="3" transform="translate(518 1557)" fill="#ffdfd7"/>
      <circle id="Ellipse_161-3" data-name="Ellipse 161" cx="3" cy="3" r="3" transform="translate(488 1557)" fill="#ffdfd7"/>
      <circle id="Ellipse_164-3" data-name="Ellipse 164" cx="3" cy="3" r="3" transform="translate(533 1557)" fill="#ffdfd7"/>
      <circle id="Ellipse_162-3" data-name="Ellipse 162" cx="3" cy="3" r="3" transform="translate(503 1557)" fill="#ffdfd7"/>
      <circle id="Ellipse_163-3" data-name="Ellipse 163" cx="3" cy="3" r="3" transform="translate(548 1557)" fill="#ffdfd7"/>
    </g>
  </g>
</svg>
