<svg xmlns="http://www.w3.org/2000/svg" xmlns:xlink="http://www.w3.org/1999/xlink" viewBox="0 0 236.04 190.37"><defs><style>.cls-1{isolation:isolate;}.cls-2{fill:#ebf5fa;}.cls-3{fill:#2184cf;}.cls-4{fill:#175d91;}.cls-5{fill:#484141;}.cls-6{fill:#ffc3a1;}.cls-10,.cls-14,.cls-7,.cls-9{mix-blend-mode:multiply;}.cls-7{fill:url(#radial-gradient);}.cls-8{fill:#f29e79;}.cls-10,.cls-9{opacity:0.66;}.cls-9{fill:url(#radial-gradient-2);}.cls-10{fill:url(#radial-gradient-3);}.cls-11{fill:url(#radial-gradient-4);}.cls-12{fill:#fff;opacity:0.44;mix-blend-mode:screen;}.cls-13{fill:url(#radial-gradient-5);}.cls-14{fill:url(#radial-gradient-6);}.cls-15{fill:#e6e6e6;}.cls-16{fill:#f4b092;}.cls-17{fill:#ccc;}</style><radialGradient id="radial-gradient" cx="87.63" cy="66.94" r="26.59" gradientUnits="userSpaceOnUse"><stop offset="0.11" stop-color="#ffc3a1"/><stop offset="1" stop-color="#ffc3a1" stop-opacity="0"/></radialGradient><radialGradient id="radial-gradient-2" cx="97.46" cy="129.83" r="39.87" gradientUnits="userSpaceOnUse"><stop offset="0" stop-color="#2184cf"/><stop offset="1" stop-color="#2184cf" stop-opacity="0"/></radialGradient><radialGradient id="radial-gradient-3" cx="123.96" cy="126.83" r="39.87" xlink:href="#radial-gradient-2"/><radialGradient id="radial-gradient-4" cx="55.26" cy="143.58" r="11.08" gradientUnits="userSpaceOnUse"><stop offset="0.55" stop-color="#fcd152"/><stop offset="1" stop-color="#fbbd08"/></radialGradient><radialGradient id="radial-gradient-5" cx="73.7" cy="161.3" r="8.87" xlink:href="#radial-gradient-4"/><radialGradient id="radial-gradient-6" cx="103.21" cy="135.86" r="23.37" xlink:href="#radial-gradient"/></defs><title>il - isi kyc3</title><g class="cls-1"><g id="Layer_2" data-name="Layer 2"><g id="Layer_3" data-name="Layer 3"><path class="cls-2" d="M4.19,148.66C-.15,136.77-7,101.73,19,90c21.74-9.8,57.4-.21,66.53-26.73,8.11-23.57,14.15-42.64,42.74-52.21a74.31,74.31,0,0,1,62.57,7.83,89.88,89.88,0,0,1,21,19.37,85.91,85.91,0,0,0-6.4-9.67c-7-9.1-16.15-16.75-26.93-20.92-10.06-3.89-21.31-4.94-32-5.08a1,1,0,0,1-.14-1.93c10.42-1.93,23.68.46,33.48,4.19a84,84,0,0,1,30.28,20.51c12,12.67,20,30.3,24,49.14,7.53,35.47-7,70.55-36,84.3-36.35,17.24-67-9.9-105.67,14.69-16.31,10.36-39.25,13.26-55.7,5.63a51.34,51.34,0,0,1-8.63-5.24A41.83,41.83,0,0,0,48.42,185.7c12.57,3,24.45,0,36.47-3.57,1-.29,1.84,1.11.87,1.68-11.37,6.67-27.66,8.54-39.92,4.3C17.6,178.34,5.89,153.33,4.19,148.66Z"/><path class="cls-2" d="M138.62,2.71c-2,1.73-5,2.25-7.42,3-2.24.72-4.72,2.23-7.07,1.63A.84.84,0,0,1,123.65,6c1.58-2,4.83-2.32,7.2-3S136,1.42,138.47,2A.4.4,0,0,1,138.62,2.71Z"/><path class="cls-2" d="M93.34,177.8c2.84-1.14,5.62-2.7,8.73-2.75.83,0,1.45,1.19.6,1.67-3.47,2-7.33,4.37-11.23,5.34a1.75,1.75,0,0,1-1.92-.61C87.73,179.32,92.19,178.27,93.34,177.8Z"/><path class="cls-2" d="M36.53,68.71a10.88,10.88,0,0,1-6.36-7.35,16.61,16.61,0,0,1,.63-9.91C35.28,38.9,69.53,15.13,73.69,38.51,77,57.32,54.44,75.41,36.53,68.71Z"/><path class="cls-2" d="M95.74,49.75c2.42,1,5.44.45,8,.38,2.35-.07,5.19.52,7.21-.84a.84.84,0,0,0,0-1.43c-2.16-1.37-5.33-.57-7.78-.38s-5.45.19-7.54,1.56a.4.4,0,0,0,.09.71Z"/><path class="cls-3" d="M68.59,34.65c3.69-6.07,7.55-14.1,22.74-11.73,19,3,19.54,20.6,13.69,30.9S59.28,49.94,68.59,34.65Z"/><path class="cls-4" d="M93.81,28.29C82.64,25.69,61.13,29.9,56.3,40.13S70,65,90.44,64.31C105.8,63.81,153.91,42.28,93.81,28.29Z"/><path class="cls-5" d="M114.74,72a42.31,42.31,0,0,1-3.38-11.45c-.4-2.71-.75-5.42-1.34-8.09a40.1,40.1,0,0,0-2.53-9.58c-5.29-12-15.08-14.27-19.88-13.62-7.53,1-11.23-.24-16.86,10.12-3.46,6.35-5.6,12.17-5.77,18.1a25.27,25.27,0,0,0,.72,12.65c1.06,3,2.22,5.79,2.55,9A24.8,24.8,0,0,1,66.72,90c-.31.57-.63,1.15-1,1.74-3.47,5.93-5.45,8.5,3.89,16.07s9.24,12.06,8.09,15.73-1,10.8,9.34,10.25c10-.53,13.28,2.84,12.13,9.23s1,4.82,2.85-.39,1.89-8.34-.5-13-1.4-9.76,2.22-11.69.78,8.55,10.39,19.7c2.16,2.51,1.58,5.77,1,9.47s1.17,1.12,2.31-2.07,3.51-7.1,1.19-14.11,4.55-17.62-2.82-34c-2.11-4.69,3.68-9.9-.82-19.56a38.75,38.75,0,0,1-2.7-9.17,29.73,29.73,0,0,0,1.34,3.4,44.51,44.51,0,0,1,3.73,9.66,30.55,30.55,0,0,1,.13,11.13c0,.11.14.13.17,0C119.48,85.22,117.71,78.61,114.74,72Zm-46.2,14a25.61,25.61,0,0,0-1-13.92,28.44,28.44,0,0,1-1.6-6.93A31.54,31.54,0,0,0,67.16,69C70.21,76.49,70.34,81.22,68.54,86.07Z"/><path class="cls-6" d="M107.19,84.7a68,68,0,0,1-7.19,0c-7.54-1.07-4.4-15-4.4-15L82,71.58s6.34,13.77-2.58,18c-9.62,3.86-17,5.94-17,5.94s8,37.55,33.43,34.1,22-44.2,22-44.2S111.23,84.7,107.19,84.7Z"/><path class="cls-3" d="M72.78,111.39c.69,5.06.2,7.43,2.73,11.62,2.38,3.93,3,7.24,3.61,13.65,1.29,12.65-2.7,25.46-2.72,30.1h0c0,3-.15,5.86-.34,8.39,16.15,2.24,20.66-13.74,36.14-16.05,8.73-1.31,13.91-1.22,18.5,0a29.67,29.67,0,0,0-3.48-7.71c-6.35-8.89-7.5-15.05-4.35-27.25,1.05-4.08.57-8.32.3-13.87-.17-3.4-3.37-9.73-3.28-13.46.16-7.07-1.44-12.41-2.08-12.45-3.69-.21-9.79-.11-11.46-.07a.49.49,0,0,0-.48.44c-.26,2-2.06,10.78-13.67,12.5S76.87,92.66,76.07,91a.5.5,0,0,0-.6-.26c-1.21.36-7.5,2.59-11,3.73-1,.34.94,1.25,2.5,2.64C70.47,100.17,72.38,108.44,72.78,111.39Z"/><path class="cls-7" d="M107.19,84.7a68,68,0,0,1-7.19,0c-7.54-1.07-4.4-15-4.4-15L82,71.58s6.34,13.77-2.58,18c-9.62,3.86-17,5.94-17,5.94s8,37.55,33.43,34.1,22-44.2,22-44.2S111.23,84.7,107.19,84.7Z"/><path class="cls-6" d="M86.09,35.23c-6.85.26-16.54,7.54-14.94,18.51,1,7.11,1.33,11,5.08,16.66,4.84,7.33,8.87,10.66,12.38,10.52s7.19-3.78,11.27-11.46c3.16-6,.48-9.54,1-16.68C101.47,45.39,97.24,34.81,86.09,35.23Z"/><path class="cls-5" d="M68.5,68.82C64.3,58.51,66.55,52,71.83,41.49c4.24-8.48,8.54-9,16.08-10,4.8-.65,12.35.84,17.73,12.79,3.42,7.6,4,21.55,3.19,28.29-1.71,14.7-6.56.55-7.44-4.77s-1.8-11.16-7.88-12.73-10.69-2.14-15.19-5.85c0,0-4.34,4.09-4.54,9.71s.88,7,1.62,13.65C76.38,81.34,72.69,79.12,68.5,68.82Z"/><path class="cls-8" d="M94.21,55c-5.81-1.34-11.63-2.06-15.9-5.8,0,.15-4.7,4.28-4.54,10.17a20.8,20.8,0,0,1,4.75-8.54s3.67,2.63,10.56,3.56c6.22.84,10,5.87,10.67,15.3l.13-.24c.29-.54,1-2.7,1.24-3.2C101.13,62.39,98.59,56,94.21,55Z"/><path class="cls-4" d="M68,41.45s3.9-6.65,18.56-5.55c5.48.41,17.45,1.82,22.29,7.81,0,0-1.47-15.31-20.74-15.26C70.68,28.5,68,41.45,68,41.45Z"/><path class="cls-9" d="M72.78,111.39c.69,5.06.2,7.43,2.73,11.62,2.38,3.93,3,7.24,3.61,13.65,1.29,12.65-2.7,25.46-2.72,30.1h0c0,3-.15,5.86-.34,8.39,16.15,2.24,20.66-13.74,36.14-16.05,8.73-1.31,13.91-1.22,18.5,0a29.67,29.67,0,0,0-3.48-7.71c-6.35-8.89-7.5-15.05-4.35-27.25,1.05-4.08.57-8.32.3-13.87-.17-3.4-3.37-9.73-3.28-13.46.16-7.07-1.44-12.41-2.08-12.45-3.69-.21-9.79-.11-11.46-.07a.49.49,0,0,0-.48.44c-.26,2-2.06,10.78-13.67,12.5S76.87,92.66,76.07,91a.5.5,0,0,0-.6-.26c-1.21.36-7.5,2.59-11,3.73-1,.34.94,1.25,2.5,2.64C70.47,100.17,72.38,108.44,72.78,111.39Z"/><path class="cls-10" d="M72.78,111.39c.69,5.06.2,7.43,2.73,11.62,2.38,3.93,3,7.24,3.61,13.65,1.29,12.65-2.7,25.46-2.72,30.1h0c0,3-.15,5.86-.34,8.39,16.15,2.24,20.66-13.74,36.14-16.05,8.73-1.31,13.91-1.22,18.5,0a29.67,29.67,0,0,0-3.48-7.71c-6.35-8.89-7.5-15.05-4.35-27.25,1.05-4.08.57-8.32.3-13.87-.17-3.4-3.37-9.73-3.28-13.46.16-7.07-1.44-12.41-2.08-12.45-3.69-.21-9.79-.11-11.46-.07a.49.49,0,0,0-.48.44c-.26,2-2.06,10.78-13.67,12.5S76.87,92.66,76.07,91a.5.5,0,0,0-.6-.26c-1.21.36-7.5,2.59-11,3.73-1,.34.94,1.25,2.5,2.64C70.47,100.17,72.38,108.44,72.78,111.39Z"/><path class="cls-11" d="M61.41,158.82s-.65-8.42-9.56-9.17c8.91-.75,9.56-9.17,9.56-9.17s.65,8.42,9.56,9.17C62.06,150.41,61.41,158.82,61.41,158.82Z"/><path class="cls-12" d="M61.41,140.48s-.65,8.42-9.56,9.17C62,149.71,61.41,140.48,61.41,140.48Z"/><path class="cls-13" d="M78.63,173.51A8.15,8.15,0,0,0,71,166.17a8.15,8.15,0,0,0,7.66-7.34,8.15,8.15,0,0,0,7.66,7.34A8.15,8.15,0,0,0,78.63,173.51Z"/><path class="cls-12" d="M78.63,158.82A8.15,8.15,0,0,1,71,166.17C78.89,166.3,78.63,158.82,78.63,158.82Z"/><path class="cls-6" d="M89.42,143.81c-2.88-6.43-6.65-15.18-10.12-24.56h0v0c-.77-2.08-1.53-4.2-2.26-6.32a90.94,90.94,0,0,0-5.33-10.34,18.58,18.58,0,0,0-7.15-7.39,6.55,6.55,0,0,0-3.37.84c-2.2,1.25-2.83,3.46-3.17,6.58-.62,5.77,4.63,13.53,6.67,17,4.87,8.36,9.74,24,15.72,29.68C82.45,151.25,89.91,144.32,89.42,143.81Z"/><path class="cls-14" d="M89.42,143.81c-2.88-6.43-6.65-15.18-10.12-24.56h0v0c-.77-2.08-1.53-4.2-2.26-6.32a90.94,90.94,0,0,0-5.33-10.34,18.58,18.58,0,0,0-7.15-7.39,6.55,6.55,0,0,0-3.37.84c-2.2,1.25-2.83,3.46-3.17,6.58-.62,5.77,4.63,13.53,6.67,17,4.87,8.36,9.74,24,15.72,29.68C82.45,151.25,89.91,144.32,89.42,143.81Z"/><path class="cls-15" d="M155,137.91s-5.55-17.83-2.58-32,1-23.77-3.7-31.34l-39.53,1.91s4.52,11.18,3.2,29.44c-.69,9.59-4.79,16.73,1.89,30.39Z"/><path class="cls-16" d="M120.7,76.08s2,1.12,1.55,4.75,3.85,4.48,7.94,2.24c3-1.66,4.42-2.51,4.42-5.23s-1-3.49-2.76-4.66c-2.1-1.42-11.33-1.82-13.52,2.81Z"/><path class="cls-17" d="M144.73,98.6c.94,5-.16,9.42-.23,14.34a37.4,37.4,0,0,0,3.25,15.72.43.43,0,0,1-.37.57c-8,.05-15.91.15-23.87.21a.57.57,0,0,1-.55-.36c-4.18-9.42-.63-18.89-2-28.66a.62.62,0,0,1,.57-.66c7.64-.6,15.3-1,22.93-1.63a.47.47,0,0,1,.07.94c-6.76.52-13.52,1.21-20.29,1.72a6.07,6.07,0,0,0-1.91.14c-1.24.82.06-1.88.09,1.13a79.39,79.39,0,0,1-.3,9.6,57.13,57.13,0,0,0-.26,7.92c.07,2.08.28,7.95,1.95,8.77.78.38,2.63,0,3.5,0H134c3.63,0,8.25.79,11.79,0,2.11-.47,1.09.17-.09-2.46-1.3-2.88-1.55-6.54-1.81-9.64-.49-5.91.92-11.7.41-17.65C144.27,98.35,144.67,98.33,144.73,98.6Z"/><path class="cls-17" d="M135.22,113.27a.94.94,0,0,0-.7-1.08,2,2,0,0,0-1.83.54,2.2,2.2,0,0,0,.19,3.45c1.24.82,2.94.77,3.41-.88.32-1.14-.15-3.14-1.65-2.93-.5.07-.45.85,0,1s.7.82.66,1.35-.26.92-.73,1a1.86,1.86,0,0,1-1-.37c-1.36-.88.21-2.87,1.45-1.92a.15.15,0,0,0,.22-.09Z"/><path class="cls-17" d="M137.57,109.89a10.94,10.94,0,0,1,2-.18c.51,0,1.06,0,1.34-.5a.24.24,0,0,0,0-.28c-.48-.53-1.44-.2-2.06-.13s-1.36,0-1.7.52a.4.4,0,0,0,.44.58Z"/><path class="cls-17" d="M138.63,108a5.42,5.42,0,0,0-.23,2,1.45,1.45,0,0,0,.5,1.38c.6.47,1.24-.5.78-1-.14-.15-.13-.88-.16-1.11a3.32,3.32,0,0,0-.31-1.22.34.34,0,0,0-.58,0Z"/><path class="cls-17" d="M135.38,108.35a11.5,11.5,0,0,0-5,.39.63.63,0,0,0-.46.6c0,1,.3,1.32-.41,1.75a9.61,9.61,0,0,1-1.66.36c-.55.18-1.26.37-1.48,1-.33.91.29,2.28.31,3.24a11.46,11.46,0,0,1-.2,3.26l1.11-.29,0,0-.47,1.13a134.36,134.36,0,0,0,13.46-1.2.58.58,0,0,0,.41-.41c.41-1.65-.26-4.1-.65-5.71-.17-.7-1.25-.4-1.08.3a11.31,11.31,0,0,1,.58,3.93c-.13.91.36.64-.62,1a13.38,13.38,0,0,1-2.5.21c-3.2.29-6.41.38-9.62.59a.67.67,0,0,0-.47,1.13l0,0a.67.67,0,0,0,1.11-.29,13.38,13.38,0,0,0,.21-4.24c0-.63-.39-1.66,0-2.14s2.08-.66,2.78-.89a.62.62,0,0,0,.44-.58c0-1.32-.08-1.25.91-1.85.78-.47,2.31-.34,3.28-.49a.4.4,0,0,0,0-.76Z"/><path class="cls-17" d="M123.27,86a11.83,11.83,0,0,0,1.64,8.89c.32.5,1,0,.73-.54a14.58,14.58,0,0,1-1.8-8.27.28.28,0,0,0-.56-.09Z"/><path class="cls-17" d="M124,91.15a21.91,21.91,0,0,0,1.55-2.32c.39-.61,1.21-1.34,1.23-2.09a.29.29,0,0,0-.38-.31c-.74.26-1.16,1.33-1.53,2a8.43,8.43,0,0,0-1.08,2.65.12.12,0,0,0,.21.09Z"/><path class="cls-17" d="M123.42,90.8a7.69,7.69,0,0,0,2.49,2A9.8,9.8,0,0,0,129,94.34a.62.62,0,0,0,.48-1.08,14.17,14.17,0,0,0-2.82-1.65,10.66,10.66,0,0,0-2.83-1.45.4.4,0,0,0-.39.63Z"/><path class="cls-17" d="M130.93,86.8a5.39,5.39,0,0,0,1.53,2.35c.46.45,1.46,1.48,2.17,1.14a.31.31,0,0,0,.19-.32c-.13-.68-1.1-1-1.59-1.41a11.73,11.73,0,0,1-1.67-2.11c-.26-.36-.73,0-.63.35Z"/><path class="cls-17" d="M134.66,85.52a26.36,26.36,0,0,1-1.5,7.9c-.26.8.91,1.35,1.21.54a21.35,21.35,0,0,0,1.13-8.53c0-.55-.83-.44-.84.09Z"/><path class="cls-17" d="M140.58,86.12c-2.09-1.71-3.56,2.46-3.25,4a3.61,3.61,0,0,0,2.32,2.46c.94.36,2.42.6,3.14-.26a.47.47,0,0,0-.17-.72,4.33,4.33,0,0,0-1.41-.12,3.25,3.25,0,0,1-2-.87c-1-1-.34-3.9,1.25-4a.25.25,0,0,0,.13-.44Z"/><path class="cls-6" d="M137.75,124.66c.32-1.09.5-4.12-2.2-1.53-1.42,1.36-5.25,2.87-5.25,2.87a10.07,10.07,0,0,1-4.64.34,3.33,3.33,0,0,0,2-2.05c-3,0-5.11-.3-7.41,1.48a64.49,64.49,0,0,1-6.35,4.06c-12,4.85-12.37,4.23-17.85,6-6.87,2.26-9.32,2-11.81,3a54.2,54.2,0,0,0-7.77,5.2s3.79,8.1,9.14,8.09c3.83-.67,7.61-2.22,15.55-7,9.11-5.51,5.42-4.74,15.51-9.87h0c2.4-1.22,3.57-.83,12.5-2,2.31-.31,3.55-1.31,5.84-3.47A10.25,10.25,0,0,0,137.75,124.66Z"/></g></g></g></svg>