<?xml version="1.0" encoding="iso-8859-1"?>
<!-- Generator: Adobe Illustrator 19.0.0, SVG Export Plug-In . SVG Version: 6.00 Build 0)  -->
<svg version="1.1" id="Layer_1" xmlns="http://www.w3.org/2000/svg" xmlns:xlink="http://www.w3.org/1999/xlink" x="0px" y="0px"
	 viewBox="0 0 511.998 511.998" style="enable-background:new 0 0 511.998 511.998;" xml:space="preserve">
<g>
	<g>
		<g>
			<path d="M509.943,165.111c-1.621-1.894-3.985-2.978-6.477-2.978H83.697l-15.46-67.124c0.013-0.38,0.029-0.759,0.029-1.142
				c0-18.825-15.309-34.133-34.133-34.133C15.309,59.732,0,75.041,0,93.866c0,18.825,15.309,34.133,34.133,34.133
				c8.508,0,16.292-3.135,22.275-8.3L68.3,171.333c0.032,0.419,0.084,0.838,0.179,1.253l51.2,221.867
				c0.01,0.042,0.024,0.081,0.034,0.123l15.694,68.144c0.896,3.866,4.344,6.613,8.32,6.613h27.798
				c3.964,19.451,21.203,34.133,41.808,34.133c20.605,0,37.844-14.682,41.808-34.133h87.051
				c3.964,19.451,21.203,34.133,41.808,34.133c20.605,0,37.844-14.682,41.808-34.133h26.459c4.719,0,8.533-3.823,8.533-8.533
				c0-4.71-3.814-8.533-8.533-8.533h-26.459c-3.964-19.451-21.203-34.133-41.808-34.133c-20.605,0-37.844,14.682-41.808,34.133
				h-87.051c-3.964-19.451-21.203-34.133-41.808-34.133c-20.605,0-37.844,14.682-41.808,34.133h-21.006l-11.792-51.2h330.605
				c4.207,0,7.791-3.072,8.431-7.236l34.133-221.867C512.281,169.505,511.564,166.996,509.943,165.111z M384,435.199
				c14.114,0,25.6,11.486,25.6,25.6c0,14.114-11.486,25.6-25.6,25.6s-25.6-11.486-25.6-25.6
				C358.4,446.685,369.886,435.199,384,435.199z M213.333,435.199c14.114,0,25.6,11.486,25.6,25.6c0,14.114-11.486,25.6-25.6,25.6
				c-14.114,0-25.6-11.486-25.6-25.6C187.733,446.685,199.219,435.199,213.333,435.199z M34.133,110.932
				c-9.412,0-17.067-7.654-17.067-17.067c0-9.412,7.654-17.067,17.067-17.067c9.412,0,17.067,7.654,17.067,17.067
				C51.2,103.278,43.546,110.932,34.133,110.932z M462.011,383.999H134.797l-47.168-204.8h405.888L462.011,383.999z"/>
			<path d="M275.532,142.531c0.014,0.015,0.028,0.03,0.042,0.045c0.077,0.077,0.161,0.145,0.24,0.218
				c0.129,0.12,0.258,0.241,0.394,0.352c0.012,0.01,0.026,0.019,0.038,0.029c0.107,0.086,0.218,0.165,0.329,0.245
				c0.102,0.074,0.201,0.151,0.305,0.221c0.036,0.024,0.074,0.045,0.11,0.069c0.11,0.071,0.222,0.136,0.334,0.202
				c0.09,0.052,0.179,0.107,0.271,0.156c0.063,0.033,0.127,0.061,0.19,0.093c0.106,0.053,0.212,0.105,0.32,0.153
				c0.081,0.036,0.161,0.074,0.243,0.108c0.09,0.037,0.182,0.066,0.272,0.1c0.003,0.001,0.006,0.002,0.009,0.003
				c0.099,0.037,0.197,0.076,0.297,0.109c0.068,0.023,0.136,0.046,0.205,0.067c0.1,0.03,0.201,0.051,0.301,0.077
				c0.042,0.011,0.083,0.022,0.125,0.032c0.077,0.019,0.152,0.042,0.23,0.059c0.049,0.011,0.099,0.022,0.148,0.032
				c0.131,0.026,0.263,0.04,0.394,0.06c0.071,0.011,0.141,0.024,0.212,0.032c0.048,0.006,0.094,0.017,0.142,0.022
				c0.024,0.003,0.049,0.005,0.073,0.008c0.279,0.028,0.56,0.042,0.84,0.042c0.002,0,0.003,0,0.005,0c0.001,0,0.003,0,0.004,0
				c0.256,0,0.512-0.014,0.767-0.037c0.022-0.002,0.043-0.003,0.065-0.005c0.074-0.007,0.145-0.021,0.218-0.03
				c0.162-0.02,0.323-0.042,0.483-0.072c0.04-0.007,0.08-0.013,0.12-0.02c0.078-0.015,0.154-0.036,0.231-0.053
				c0.135-0.031,0.269-0.065,0.403-0.102c0.057-0.016,0.114-0.028,0.17-0.045c0.068-0.02,0.134-0.043,0.2-0.065
				c0.124-0.041,0.246-0.087,0.368-0.134c0.072-0.027,0.144-0.051,0.216-0.08c0.051-0.021,0.101-0.042,0.151-0.064
				c0.124-0.054,0.245-0.117,0.367-0.177c0.078-0.038,0.157-0.072,0.234-0.113c0.059-0.031,0.116-0.065,0.175-0.098
				c0.145-0.081,0.287-0.168,0.428-0.259c0.033-0.021,0.067-0.039,0.1-0.06c0.013-0.008,0.026-0.017,0.038-0.025
				c0.071-0.048,0.138-0.102,0.208-0.152c0.128-0.091,0.258-0.179,0.382-0.278l42.667-34.133c3.678-2.944,4.275-8.311,1.331-11.998
				c-2.944-3.669-8.303-4.275-11.998-1.331l-27.153,21.722c9.07-52.11,54.623-91.858,109.286-91.858
				c4.719,0,8.533-3.823,8.533-8.533s-3.814-8.533-8.533-8.533c-64.067,0-117.289,47.315-126.565,108.836L253.5,96.366
				c-3.337-3.337-8.73-3.337-12.066,0s-3.337,8.73,0,12.066L275.532,142.531z"/>
		</g>
	</g>
</g>
<g>
</g>
<g>
</g>
<g>
</g>
<g>
</g>
<g>
</g>
<g>
</g>
<g>
</g>
<g>
</g>
<g>
</g>
<g>
</g>
<g>
</g>
<g>
</g>
<g>
</g>
<g>
</g>
<g>
</g>
</svg>
