<svg xmlns="http://www.w3.org/2000/svg" viewBox="0 0 65.78 65.78"><defs><style>.cls-1{fill:#f6ce4e;}</style></defs><title>path33251</title><g id="Layer_2" data-name="Layer 2"><g id="Layer_1-2" data-name="Layer 1"><path id="path33251" class="cls-1" d="M32.89,0A32.89,32.89,0,1,0,65.78,32.89,32.89,32.89,0,0,0,32.89,0Zm13,13.3a4.35,4.35,0,0,1,1.72.28,3.15,3.15,0,0,1,1.87,2.91V31.9l-1.18-1.18a4.35,4.35,0,0,0-.85-.67V16.94a2,2,0,0,0-.15-1.07c-.47-.74-1.56-.53-2.33-.53H15.4c-.52,0-1.79-.21-2.22.19-.72.66-.46,2-.46,2.92V37.11c0,.92-.3,2.6,1,2.78a16.2,16.2,0,0,0,2,0H32.6l2,2H13.82A3.14,3.14,0,0,1,10.71,39c0-.91,0-1.84,0-2.76V17.66c0-1.52,0-3.3,1.7-4a7,7,0,0,1,2.87-.34H44.79c.35,0,.7,0,1.05,0ZM20.08,18.74h1.63a2.07,2.07,0,0,1,.43,0,.92.92,0,0,1,.7.8c0,.1,0,.21,0,.31h1.81a.91.91,0,0,1,.87.91v3.67a6.09,6.09,0,0,1,0,.74.93.93,0,0,1-1,.86h-7.2a.93.93,0,0,1-.92-1v-4A1.09,1.09,0,0,1,16.87,20a3.38,3.38,0,0,1,1.3-.12h.94a1.63,1.63,0,0,1,0-.38.94.94,0,0,1,.74-.74Zm13.27,0H44a1,1,0,0,1,0,2H33.35A1,1,0,0,1,33.35,18.74ZM20,19.21c-.4,0-.44.34-.44.66h2.8c0-.32,0-.66-.44-.66H20Zm13.33,5.94H44a1,1,0,0,1,0,2H33.35A1,1,0,0,1,33.35,25.15Zm-4.87,5.11a1.69,1.69,0,0,1,1.2.5l9.18,9.18.48-.48-3.76-3.75A1.69,1.69,0,0,1,38,33.32l3.76,3.76.47-.48L39.61,34A1.69,1.69,0,1,1,42,31.62l3.31,3.31.48-.48-1-1a1.71,1.71,0,0,1,0-2.39c.66-.65,1.73-.65,2.75.37l5.29,5.28a8.9,8.9,0,0,1,1.72,2.85A9.83,9.83,0,0,1,52.83,49a15.6,15.6,0,0,1-1.25,1.32,7.88,7.88,0,0,1-1.4,1.25,4.15,4.15,0,0,1-1.67.5c-1.12,0-2.27-.07-3.4,0-2,.06-4,.07-6,.25-1.42.13-3.24.42-4.58-.23-2.52-1.21-2.11-3.31.7-3.72a20.67,20.67,0,0,1,3.43-.11c.64,0,2.17.28,2.43-.51.21-.63-.54-1.31-.94-1.71L27.29,33.14a1.69,1.69,0,0,1,1.19-2.88Zm-13.36,4.2H24a1,1,0,0,1,0,2H15.12A1,1,0,0,1,15.12,34.46Z"/></g></g></svg>