<svg xmlns="http://www.w3.org/2000/svg" viewBox="0 0 36.28 36.28"><defs><style>.cls-1{fill:none;stroke:#000;stroke-miterlimit:10;stroke-width:0.52px;}</style></defs><title>child</title><g id="Layer_2" data-name="Layer 2"><g id="Layer_1-2" data-name="Layer 1"><path class="cls-1" d="M18.14,36A17.88,17.88,0,1,0,.26,18.14,17.91,17.91,0,0,0,18.14,36Z"/><path class="cls-1" d="M13.7,15.14c0-.06,0-.12,0-.18"/><polyline class="cls-1" points="13.68 14.96 13.68 14.96 13.68 14.96 13.68 14.96"/><path class="cls-1" d="M13.68,15a3.45,3.45,0,0,0,0,.55,1.34,1.34,0,0,0-.4,1c0,.62.2,1.73.75,2.05,1.74,6.4,6.4,6.4,8.14,0,.55-.32.72-1.43.75-2.05a1.34,1.34,0,0,0-.4-1,4.72,4.72,0,0,0-.05-.91"/><path class="cls-1" d="M19.29,20.31a1.71,1.71,0,0,1-2.27,0"/><path class="cls-1" d="M27.35,33.47a55.61,55.61,0,0,0-.63-7.74,4.87,4.87,0,0,0-2.5-1.51m-1.58-.54c-.39-.13-.76-.25-1.08-.37"/><path class="cls-1" d="M14.73,23.44l-1.09.28m-1.58.48a4.55,4.55,0,0,0-2.5,1.53c-.27.51-.4,5.63-.42,7.45"/><path class="cls-1" d="M18.81,16a2.2,2.2,0,0,1,.88-.16,2.35,2.35,0,0,1,.8.13"/><path class="cls-1" d="M19.68,17.06a.56.56,0,1,0-.55-.55A.56.56,0,0,0,19.68,17.06Z"/><path class="cls-1" d="M17.43,16a2.18,2.18,0,0,0-.87-.16,2.41,2.41,0,0,0-.81.13"/><path class="cls-1" d="M16.56,17.07a.56.56,0,0,0,.56-.56.57.57,0,0,0-.56-.57.58.58,0,0,0-.57.57A.57.57,0,0,0,16.56,17.07Z"/><path class="cls-1" d="M13.7,15.14a4,4,0,0,1,4.15-1.66c2,.44,3.85,1.55,4.64,1.12.36-.19.5-.91.27-1.76-.33-1.23-2.52-3.39-6.17-2.15C14.3,10.4,12.88,13,13.7,15.14"/><line class="cls-1" x1="17.91" y1="26.96" x2="16.3" y2="25.87"/><path class="cls-1" d="M16.3,25.87a5,5,0,0,1-1.57-2.43"/><path class="cls-1" d="M15.61,22.06a9.49,9.49,0,0,1-.36,2.25"/><path class="cls-1" d="M20.56,22.13a8.56,8.56,0,0,0,.64,1.95"/><line class="cls-1" x1="17.91" y1="26.96" x2="19.97" y2="25.87"/><path class="cls-1" d="M20,25.87a5.11,5.11,0,0,0,1.6-2.46"/><path class="cls-1" d="M10.9,24.54v-.95a1.35,1.35,0,0,1,1.26-1.26c1-.15,2.27-.26,3.27-.33m5.42,0c1,.07,2.28.18,3.27.33a1.35,1.35,0,0,1,1.26,1.26v.95"/><path class="cls-1" d="M12.35,23.36l1-.26a.22.22,0,0,1,.29.23c0,3.35-.15,7.28-1.29,9-.09.14-.29-.06-.29-.23V23.74A.41.41,0,0,1,12.35,23.36Z"/><path class="cls-1" d="M23.93,23.36l-1-.26a.22.22,0,0,0-.29.23c0,2.23.06,7.69,1.29,9,.11.12.29-.06.29-.23V23.74A.41.41,0,0,0,23.93,23.36Z"/></g></g></svg>