<svg xmlns="http://www.w3.org/2000/svg" viewBox="0 0 44.13 56.91"><defs><style>.cls-1{fill:none;stroke:#2c3e50;stroke-linecap:round;stroke-linejoin:round;stroke-width:2px;}</style></defs><title>Asset 19</title><g id="Layer_2" data-name="Layer 2"><g id="Layer_1-2" data-name="Layer 1"><path class="cls-1" d="M3.81,11.41l4-.8a3.65,3.65,0,0,0,2.8-2.8l.8-4a3.48,3.48,0,0,1,5.4-2.2l3.3,2.2a3.47,3.47,0,0,0,3.9,0l3.3-2.2a3.52,3.52,0,0,1,5.4,2.2l.8,4a3.65,3.65,0,0,0,2.8,2.8l4,.8a3.48,3.48,0,0,1,2.2,5.4l-2.2,3.3a3.47,3.47,0,0,0,0,3.9l2.2,3.3a3.52,3.52,0,0,1-2.2,5.4l-4,.8a3.65,3.65,0,0,0-2.8,2.8l-.8,4a3.48,3.48,0,0,1-5.4,2.2L24,40.31a3.47,3.47,0,0,0-3.9,0l-3.3,2.2a3.52,3.52,0,0,1-5.4-2.2l-.8-4a3.65,3.65,0,0,0-2.8-2.8l-4-.8a3.48,3.48,0,0,1-2.2-5.4L3.81,24a3.47,3.47,0,0,0,0-3.9l-2.2-3.3A3.52,3.52,0,0,1,3.81,11.41Z"/><polyline class="cls-1" points="12.52 45.62 12.52 55.91 22.02 48.81 31.82 55.91 31.82 45.62"/><line class="cls-1" x1="22.21" y1="43.11" x2="22.21" y2="45.61"/><polyline class="cls-1" points="13.62 20.91 21.32 28.82 33.81 16.02"/></g></g></svg>