<svg xmlns="http://www.w3.org/2000/svg" viewBox="0 0 36.28 36.28"><defs><style>.cls-1{fill:none;stroke:#000;stroke-miterlimit:10;stroke-width:0.52px;}</style></defs><title>Asset 20</title><g id="Layer_2" data-name="Layer 2"><g id="Layer_1-2" data-name="Layer 1"><path class="cls-1" d="M18.14,36A17.88,17.88,0,1,0,.26,18.14,17.91,17.91,0,0,0,18.14,36Z"/><path d="M28,17.57c-.36-1.57-3.18-3.61-5-4.48-.18-.1-.86-.4-1.18-.55s-.64-.24-1-.36a6.07,6.07,0,0,0,1.31-3.71,4,4,0,0,0-4.1-4.22A4,4,0,0,0,14,8.47a6.07,6.07,0,0,0,1.31,3.71c-.32.12-.65.22-1,.36s-1,.45-1.18.55c-1.79.87-4.61,2.91-5,4.48a1.26,1.26,0,0,0,.21,1.09c1,1.28,2.12.43,3.2-.4a12.72,12.72,0,0,1,1.71-1.15,16.46,16.46,0,0,0,.17,2.47h0l-.09.31a6.61,6.61,0,0,0-.13,2.47c-1.1.87-2.36,2.1-2.46,3.23C10.72,27,13,30.36,14.66,31.52a2.27,2.27,0,0,0,1.28.51,1,1,0,0,0,.46-.1,1.12,1.12,0,0,0,.66-.79c.31-1.26-1.12-3.47-1.8-4.43a13.8,13.8,0,0,0,2.14-1,4.24,4.24,0,0,0,.74.09,3.32,3.32,0,0,0,.74-.09,13.8,13.8,0,0,0,2.14,1c-.68,1-2.11,3.17-1.8,4.43a1.12,1.12,0,0,0,.66.79,1,1,0,0,0,.46.1,2.27,2.27,0,0,0,1.28-.51c1.65-1.16,3.94-4.49,3.82-5.93-.1-1.13-1.36-2.36-2.46-3.23a6.84,6.84,0,0,0-.13-2.47l-.09-.31h0a16.38,16.38,0,0,0,.17-2.47,12.72,12.72,0,0,1,1.71,1.15c1.08.83,2.2,1.68,3.2.4A1.26,1.26,0,0,0,28,17.57ZM17.31,5.2c-.53,1-.92,2.22,0,2.88a1.68,1.68,0,0,0,2.31-.28,1.11,1.11,0,0,0-.83-1.72c-.53-.07-.76.74-.23.81s.52.52,0,.67a.74.74,0,0,1-1-.78,3.46,3.46,0,0,1,.73-1.67,3.16,3.16,0,0,1,3,3.36c0,2.26-1.55,4.33-3.25,4.33s-3.26-2.07-3.26-4.33A3.17,3.17,0,0,1,17.31,5.2ZM14.45,26.1l-.57.19.37.47c1.13,1.45,2.19,3.41,2,4.17a.34.34,0,0,1-.19.24c-.17.07-.52-.05-.92-.33-1.58-1.13-3.54-4.23-3.46-5.18.05-.61.73-1.48,1.88-2.43a2.16,2.16,0,0,0,.27.44,6.52,6.52,0,0,0,2.47,1.66A13.82,13.82,0,0,1,14.45,26.1Zm0-3a3.7,3.7,0,0,1-.32-2.7h8a3.7,3.7,0,0,1-.32,2.7,6.05,6.05,0,0,1-3.66,1.8A6.05,6.05,0,0,1,14.48,23.13ZM24.6,25.66c.08.95-1.87,4.05-3.46,5.18-.4.28-.75.4-.92.32a.27.27,0,0,1-.18-.23c-.19-.76.86-2.72,2-4.17l.37-.47-.57-.19A13.42,13.42,0,0,1,20,25.33a6.83,6.83,0,0,0,2.46-1.66,2.16,2.16,0,0,0,.27-.44C23.87,24.18,24.55,25.05,24.6,25.66Zm2.57-7.52c-.45.57-.78.4-2-.55A11.23,11.23,0,0,0,22.62,16l-.68-.27.1.73a12.91,12.91,0,0,1-.14,3.09H14.38a12.27,12.27,0,0,1-.14-3.09l.1-.73-.68.27a11.23,11.23,0,0,0-2.52,1.56c-1.25.95-1.59,1.12-2,.55a.43.43,0,0,1,0-.38c.25-1.1,2.59-3,4.52-3.92l1.15-.53c.41-.18.84-.33,1.27-.48a3.23,3.23,0,0,0,4.28,0c.43.15.86.3,1.27.48l1.15.53c1.93.95,4.27,2.82,4.52,3.92A.43.43,0,0,1,27.17,18.14Z"/></g></g></svg>