<svg xmlns="http://www.w3.org/2000/svg" viewBox="0 0 25.9 26.9"><title>Asset 21</title><g id="Layer_2" data-name="Layer 2"><g id="Layer_1-2" data-name="Layer 1"><path d="M25.75,23.76l-3,3a.51.51,0,0,1-.36.15.65.65,0,0,1-.19,0h0a.76.76,0,0,1-.16-.11h0l-3-3a.5.5,0,0,1,0-.7.5.5,0,0,1,.71,0l2.14,2.14V.5a.5.5,0,1,1,1,0V25.2l2.14-2.14a.49.49,0,0,1,.7.7ZM16.44,14H.5a.5.5,0,0,1-.5-.5A.5.5,0,0,1,.5,13H16.44a.5.5,0,0,1,.5.5A.51.51,0,0,1,16.44,14Zm-3.8-3a.43.43,0,0,1-.19,0,.5.5,0,0,1-.46-.31L10.52,7H6.41L5,10.65a.51.51,0,0,1-.47.31.39.39,0,0,1-.18,0A.5.5,0,0,1,4,10.27l4-10H8A.34.34,0,0,1,8.08.2a.1.1,0,0,1,0-.05s0,0,0,0A.5.5,0,0,1,8.28,0h0l.07,0,.12,0,.1,0s.06,0,.08,0h0a.33.33,0,0,1,.1.06l.06,0,0,0a.5.5,0,0,1,.08.12h0l4,10A.51.51,0,0,1,12.64,10.92ZM8.47,1.84,6.81,6h3.31ZM4,16.44a.5.5,0,0,1,.5-.5h8a.5.5,0,0,1,.45.28.51.51,0,0,1-.06.53L5.52,25.9h6.93a.5.5,0,0,1,.5.5.5.5,0,0,1-.5.5h-8A.5.5,0,0,1,4,26.61a.49.49,0,0,1,.06-.52l7.33-9.15H4.48A.51.51,0,0,1,4,16.44Z"/></g></g></svg>