<svg xmlns="http://www.w3.org/2000/svg" xmlns:xlink="http://www.w3.org/1999/xlink" width="421.84" height="259.707" viewBox="0 0 421.84 259.707">
    <defs>
        <style>
            .cls-1,.cls-14{fill:#6c63ff}.cls-1,.cls-17,.cls-22,.cls-7{opacity:.1}.cls-2{fill:#444053}.cls-3{fill:none;stroke:#444053;stroke-miterlimit:10}.cls-4,.cls-7{fill:#33323d}.cls-5{fill:#fff}.cls-6{fill:#504f60}.cls-8,.cls-9{fill:#8ccf4d;opacity:.8}.cls-9{fill:#fa5959}.cls-10{fill:#fbbebe}.cls-11{opacity:.05}.cls-12{fill:#3f3d56}.cls-13{fill:#464353}.cls-15{fill:url(#linear-gradient)}.cls-16{fill:#65617d}.cls-18{fill:#ee8e9e}.cls-19{fill:#e3e8f4}.cls-20{fill:#e6e8ec}.cls-21{fill:#565387}.cls-23{fill:#a1616a}.cls-24{fill:#514e7f}.cls-25{fill:url(#linear-gradient-2)}
        </style>
        <linearGradient id="linear-gradient" x1=".5" x2=".5" y1="1" gradientUnits="objectBoundingBox">
            <stop offset="0" stop-color="gray" stop-opacity=".251"/>
            <stop offset=".54" stop-color="gray" stop-opacity=".122"/>
            <stop offset="1" stop-color="gray" stop-opacity=".102"/>
        </linearGradient>
        <linearGradient id="linear-gradient-2" x1=".001" x2="1" y1=".5" y2=".5" xlink:href="#linear-gradient"/>
    </defs>
    <g id="gambar_iki_lucu" data-name="gambar iki lucu" transform="translate(.02 -.02)">
        <path id="Path_283" d="M432.91 254.082a86.442 86.442 0 0 1-2.532 20.859q-.852 3.445-1.981 6.755a80.472 80.472 0 0 1-3.195 7.994q-.913 1.973-1.93 3.875a52.141 52.141 0 0 1-4.359 20.948 54.03 54.03 0 0 1-26.209 27 55.155 55.155 0 0 1-23.426 5.372H91.155a70.079 70.079 0 0 1-35.249-9.419q-2.375-1.375-4.627-2.93a69.983 69.983 0 0 1-9.158-7.55A68.147 68.147 0 0 1 32.054 314.5a66.565 66.565 0 0 1-10.239-35.539 83.81 83.81 0 0 1-10.744-41.5c0-19.34 6.289-36.982 16.622-50.338a70.767 70.767 0 0 1 7.059-7.854 65.692 65.692 0 0 1 8.073-6.608 62.3 62.3 0 0 1 7.163-4.3 56.827 56.827 0 0 1 3.13-1.486c.928-.412 1.866-.8 2.815-1.157q1.708-.652 3.46-1.193t3.456-.953q2.507-.612 5.1-1a65.238 65.238 0 0 1 4.3-.473q1.708-.122 3.445-.143h.627c1.275 0 2.543.05 3.8.136.133-.265.276-.534.408-.8.5-.953 1.021-1.905 1.544-2.84v-.025c.09-.161.179-.322.272-.48.423-.763.863-1.519 1.314-2.267.208-.358.412-.695.623-1.035.047-.082.093-.161.147-.244q.322-.537.655-1.074 1.658-2.647 3.449-5.211c.1-.147.2-.29.3-.433.186-.265.358-.526.566-.788.494-.691 1-1.386 1.515-2.07.358-.484.716-.967 1.1-1.433q1.4-1.805 2.865-3.581a120.723 120.723 0 0 1 3.051-3.535c.143-.161.287-.319.437-.48l1.529-1.665c.075-.079.14-.15.211-.222.183-.2.358-.394.555-.587.82-.867 1.662-1.723 2.507-2.568a136.524 136.524 0 0 1 13.773-11.954c.19-.15.383-.294.573-.437.91-.688 1.834-1.365 2.758-2.031a145.709 145.709 0 0 1 15.905-9.921c.38-.215.766-.419 1.157-.623a152.663 152.663 0 0 1 15.218-7.005q4.248-1.68 8.646-3.137a142.272 142.272 0 0 1 5.863-1.791q4.577-1.314 9.269-2.371a165.949 165.949 0 0 1 28.021-3.818q4.3-.226 8.692-.226a166.539 166.539 0 0 1 41.9 5.3 1.511 1.511 0 0 0 1.3.677h1.2c.523.14 1.042.287 1.565.437q4.38 1.264 8.635 2.754l.716.258a154.147 154.147 0 0 1 20.382 8.954 147.579 147.579 0 0 1 17.066 10.544q1.257.9 2.478 1.823 1.483-.956 3.016-1.823a59.305 59.305 0 0 1 12.492-5.322 56.981 56.981 0 0 1 28.021-1.1 62 62 0 0 1 31.4 17.707 73.257 73.257 0 0 1 9.426 11.919c.2.308.394.62.584.935a78.793 78.793 0 0 1 6 11.959c.061.15.122.3.176.448a82.772 82.772 0 0 1 3.689 11.944c.043.2.093.412.136.62a85.991 85.991 0 0 1 1.762 11.951 2.266 2.266 0 0 0 .029.437q.226 3.119.229 6.307c0 1.9-.065 3.782-.183 5.648 0 .2-.029.419-.047.627-.032.544-.079 1.074-.125 1.622a67.942 67.942 0 0 1 7.657 7.22q1.565 1.708 3.03 3.549a75.27 75.27 0 0 1 7.808 11.951 84.133 84.133 0 0 1 9.524 39.296z" class="cls-1" data-name="Path 283" transform="translate(-11.09 -87.42)"/>
        <path id="Path_284" d="M465.687 670.182c0 8.141-8.438 15.758-23.161 22.32H164.4c-12.868 0-24.92-4.656-35.249-12.775-2.6-3.08-3.965-6.271-3.965-9.548 0-8.653 9.541-16.729 26.037-23.555l.466-.186c4.656-1.909 9.86-3.71 15.547-5.4.143-.043.29-.082.433-.133q6.769-1.988 14.4-3.768c.161-.036.319-.075.48-.1 1.963-.466 3.965-.9 6.01-1.332l.788-.165a448.738 448.738 0 0 1 50.141-7.2h.021q3.854-.358 7.79-.641c2.919-.233 5.874-.43 8.861-.612 2.281-.147 4.591-.272 6.909-.387a.068.068 0 0 1 .054 0c10.454-.526 21.256-.8 32.3-.8a595.065 595.065 0 0 1 76 4.656.185.185 0 0 1 .064 0c3.517.458 6.97.942 10.336 1.458.963.15 1.923.3 2.865.455q5.7.92 11.1 1.945c42.379 8.044 69.899 21.077 69.899 35.768z" class="cls-1" data-name="Path 284" transform="translate(-84.338 -433.026)"/>
        <path id="Path_288" d="M749.112 276.89l.079.136c-7.3 9.115-7.782 23.28-7.8 23.391l-1.54-1.791c.017-.115 1.912-12.557 9.261-21.736z" class="cls-2" data-name="Path 288" transform="translate(-478.86 -209.019)"/>
        <path id="Path_293" d="M772.029 314.666s-3.94-8.273-.433-13.656" class="cls-3" data-name="Path 293" transform="translate(-498.303 -224.501)"/>
        <path id="Path_306" d="M749.67 266.57s0 7.611-2.07 8.151" class="cls-3" data-name="Path 306" transform="translate(-483.834 -202.395)"/>
        <path id="Path_307" d="M706.09 287.752s8.237.716 12.023-3.542" class="cls-3" data-name="Path 307" transform="translate(-457.191 -213.718)"/>
        <path id="Rectangle_711" d="M0 0h137.6v69.459H0z" class="cls-4" data-name="Rectangle 711" transform="translate(141.53 80.803)"/>
        <path id="Rectangle_712" d="M0 0h223.763v45.721H0z" class="cls-4" data-name="Rectangle 712" transform="translate(98.667 171.364)"/>
        <path id="Path_312" d="M381.339 510.35h114.74l22.86 76.934H357.16z" class="cls-5" data-name="Path 312" transform="translate(-229.257 -327.557)"/>
        <path id="Path_313" d="M257.73 402.33v72.976h42.863v-42.2H451.38v42.2h42.863V402.33z" class="cls-6" data-name="Path 313" transform="translate(-165.438 -258.224)"/>
        <path id="Rectangle_713" d="M0 0h236.513v23.738H0z" class="cls-7" data-name="Rectangle 713" transform="translate(92.292 144.106)"/>
        <circle id="Ellipse_111" cx="3.517" cy="3.517" r="3.517" class="cls-8" data-name="Ellipse 111" transform="translate(312.542 152.461)"/>
        <circle id="Ellipse_112" cx="3.517" cy="3.517" r="3.517" class="cls-9" data-name="Ellipse 112" transform="translate(296.715 152.461)"/>
        <path id="Rectangle_714" d="M0 0h127.49v75.612H0z" class="cls-5" data-name="Rectangle 714" transform="translate(146.587 64.096)"/>
        <path id="Path_314" d="M790.648 565.722c.269 2.926-1.941 5.766-1.3 8.631.136.612.4 1.193.5 1.791.265 1.7-.748 3.313-1.719 4.738l-8.32 12.241a7.6 7.6 0 0 1-1.189 1.468c-1.594 1.433-3.979 1.268-6.067 1.69a10.414 10.414 0 0 0-4.065 1.791.265.265 0 0 0-.054.358 3.5 3.5 0 0 0 3.023 1.433c.218.286 0 .716-.3.917-.448.308-1.074.39-1.15 1.15a1.26 1.26 0 0 0 .15.763 2.367 2.367 0 0 0 1.458 1.01c2.865.881 5.992-.666 8.148-2.772s3.7-4.763 5.82-6.909c1.171-1.185 2.507-2.2 3.71-3.352a41.66 41.66 0 0 0 6.089-7.879 8.667 8.667 0 0 0 1.318-2.683c.222-.953.122-1.959.38-2.9a10.73 10.73 0 0 1 1.995-3.259 10.767 10.767 0 0 0 2.267-7.027 6.729 6.729 0 0 0-4.108-5.827 3.686 3.686 0 0 0-2.3-.14 5.464 5.464 0 0 0-2.346 1.866l-1.579 1.823a4.4 4.4 0 0 0-.92 1.4 1.458 1.458 0 0 0 .326 1.554" class="cls-10" data-name="Path 314" transform="translate(-497.178 -391.267)"/>
        <path id="Path_315" d="M790.648 565.722c.269 2.926-1.941 5.766-1.3 8.631.136.612.4 1.193.5 1.791.265 1.7-.748 3.313-1.719 4.738l-8.32 12.241a7.6 7.6 0 0 1-1.189 1.468c-1.594 1.433-3.979 1.268-6.067 1.69a10.414 10.414 0 0 0-4.065 1.791.265.265 0 0 0-.054.358 3.5 3.5 0 0 0 3.023 1.433c.218.286 0 .716-.3.917-.448.308-1.074.39-1.15 1.15a1.26 1.26 0 0 0 .15.763 2.367 2.367 0 0 0 1.458 1.01c2.865.881 5.992-.666 8.148-2.772s3.7-4.763 5.82-6.909c1.171-1.185 2.507-2.2 3.71-3.352a41.66 41.66 0 0 0 6.089-7.879 8.667 8.667 0 0 0 1.318-2.683c.222-.953.122-1.959.38-2.9a10.73 10.73 0 0 1 1.995-3.259 10.767 10.767 0 0 0 2.267-7.027 6.729 6.729 0 0 0-4.108-5.827 3.686 3.686 0 0 0-2.3-.14 5.464 5.464 0 0 0-2.346 1.866l-1.579 1.823a4.4 4.4 0 0 0-.92 1.4 1.458 1.458 0 0 0 .326 1.554" class="cls-11" data-name="Path 315" transform="translate(-497.178 -391.267)"/>
        <path id="Path_316" d="M835.094 778.7a9.626 9.626 0 0 1-6.2.917c-.358-.039-.741-.065-.96.2-.315.383.057.942.44 1.25a9.219 9.219 0 0 0 4.258 1.751 28.8 28.8 0 0 0 4.162.276 70.522 70.522 0 0 0 11.375-.419 1.536 1.536 0 0 0 .62-.183 1.15 1.15 0 0 0 .469-.716 2.824 2.824 0 0 0-.985-2.7 8.569 8.569 0 0 0-2.654-1.433l-3.3-1.286c-.777-.3-2.02-1.1-2.865-1.042-1.542.115-3.054 2.614-4.36 3.385z" class="cls-12" data-name="Path 316" transform="translate(-535.323 -528.926)"/>
        <path id="Path_317" d="M835.094 778.7a9.626 9.626 0 0 1-6.2.917c-.358-.039-.741-.065-.96.2-.315.383.057.942.44 1.25a9.219 9.219 0 0 0 4.258 1.751 28.8 28.8 0 0 0 4.162.276 70.522 70.522 0 0 0 11.375-.419 1.536 1.536 0 0 0 .62-.183 1.15 1.15 0 0 0 .469-.716 2.824 2.824 0 0 0-.985-2.7 8.569 8.569 0 0 0-2.654-1.433l-3.3-1.286c-.777-.3-2.02-1.1-2.865-1.042-1.542.115-3.054 2.614-4.36 3.385z" class="cls-11" data-name="Path 317" transform="translate(-535.323 -528.926)"/>
        <path id="Path_318" d="M850.066 628.691c-1.372 1.83-2.8 3.94-2.457 6.207a13.791 13.791 0 0 0 1.368 3.427 24.155 24.155 0 0 1 1.386 4.814c.516 2.4 1.031 4.8 1.347 7.231.358 2.747-1.325 10.694-1.483 13.463a2.85 2.85 0 0 1-.58 1.87c-.183.19-.426.358-.505.591a.993.993 0 0 0 .107.695 7.708 7.708 0 0 0 4.126 3.8 32.729 32.729 0 0 0 7.962 2.092 1.508 1.508 0 0 0 .749-.1 1.433 1.433 0 0 0 .58-.663c1.382-2.64.054-12.037.075-15.021 0-2.507.605-4.957.5-7.442-.089-1.995-.623-3.94-.817-5.931a34.955 34.955 0 0 1 .881-9.76c.458-2.468.917-4.939 1.5-7.381a14.228 14.228 0 0 1 1.594-4.3c.648-1.028 1.529-1.884 2.271-2.865a12.893 12.893 0 0 0 2.539-9.448c-.043-.33-4.771 1.2-5.182 1.379a16.228 16.228 0 0 0-4.616 2.973 41.992 41.992 0 0 0-2.912 3.6q-2.031 2.471-4.008 4.982-2.244 2.879-4.425 5.787z" class="cls-13" data-name="Path 318" transform="translate(-547.992 -422.776)"/>
        <path id="Path_319" d="M850.066 628.43c-1.372 1.83-2.8 3.94-2.457 6.21a13.822 13.822 0 0 0 1.368 3.424 24.209 24.209 0 0 1 1.386 4.813c.516 2.4 1.031 4.8 1.347 7.231.358 2.747-1.325 10.7-1.483 13.466a2.841 2.841 0 0 1-.58 1.866c-.183.19-.426.358-.505.591a1.008 1.008 0 0 0 .107.716 7.7 7.7 0 0 0 4.126 3.793 31.526 31.526 0 0 0 7.962 1.493 1.508 1.508 0 0 0 .749-.1 1.433 1.433 0 0 0 .58-.663c1.382-2.64.054-11.439.075-14.419 0-2.507.605-4.96.5-7.446-.089-1.995-.623-3.94-.817-5.931a34.918 34.918 0 0 1 .881-9.756c.458-2.471.917-4.942 1.5-7.385a14.229 14.229 0 0 1 1.594-4.3c.648-1.024 1.529-1.884 2.271-2.844a12.919 12.919 0 0 0 2.539-9.448c-.043-.333-4.771 1.2-5.182 1.379a16.137 16.137 0 0 0-4.617 2.98 45.338 45.338 0 0 0-2.912 3.581q-2.031 2.471-4.008 4.985-2.243 2.87-4.424 5.764z" class="cls-11" data-name="Path 319" transform="translate(-547.992 -422.633)"/>
        <circle id="Ellipse_113" cx="7.711" cy="7.711" r="7.711" class="cls-10" data-name="Ellipse 113" transform="translate(279.073 150.198)"/>
        <path id="Path_320" d="M818.05 524.748a10.007 10.007 0 0 0 6.4 4.477l-.58 2.1c-1 3.628-2.149 7.464-4.932 9.978a4.672 4.672 0 0 0-.784-3.607 13.827 13.827 0 0 0-2.618-2.736l-4.436-3.86a1.328 1.328 0 0 1-.333-.358 1.15 1.15 0 0 1 0-.845c.566-1.758 2.181-2.865 3.488-4.047a12.4 12.4 0 0 0 1.755-2.045c.909-1.263 1.457.001 2.04.943z" class="cls-10" data-name="Path 320" transform="translate(-524.326 -367.162)"/>
        <path id="Path_321" d="M780.015 495.587l-.172-1.433c1.218.315 2.371-.716 3.148-1.791s1.5-2.335 2.686-2.779c1.433-.544 2.965.326 4.341 1.042a13.75 13.75 0 0 0 4.985 1.63 3.224 3.224 0 0 1 .824.136 2.848 2.848 0 0 1 1.45 2.46 9.489 9.489 0 0 0 .537 3.012c.333.688.91 1.2 1.261 1.877.942 1.827.032 4.319 1.028 6.11l-2.471-2.267c-.229-.208-.548-.423-.8-.247s-.211.441-.294.68a1.292 1.292 0 0 1-1.758.641 4.815 4.815 0 0 1-1.572-1.433 9.57 9.57 0 0 0-3.94-2.973 5.036 5.036 0 0 0-4.151.247c-1.153.652-2 2.17-3.41 2.224-1.938.072-2.743-3.535-3.642-4.96a1.755 1.755 0 0 0 .509-2.188c.162-.06 1.416-.221 1.441.012z" class="cls-13" data-name="Path 321" transform="translate(-503.391 -345.428)"/>
        <path id="Path_322" d="M861.077 776.63a8.151 8.151 0 0 1-5.544 2.067c-.519 0-1.239.1-1.243.62a.832.832 0 0 0 .15.43 5.1 5.1 0 0 0 2.865 2.242 10.18 10.18 0 0 0 3.46.222l3.385-.175c.637-.036 1.279-.068 1.916-.147s1.325-.211 1.991-.308a26.059 26.059 0 0 1 4.928-.233 1.463 1.463 0 0 0 1.214-.329c.272-.33.125-.924.025-1.4-.2-.981 0-2.009-.186-2.994a5.272 5.272 0 0 0-3.453-3.678c-1.522-.58-4.223-1.243-5.666-.279-1.546 1.032-2.477 2.726-3.842 3.962z" class="cls-12" data-name="Path 322" transform="translate(-552.313 -526.921)"/>
        <path id="Path_323" d="M870.381 610.356c.3 1.433 1.673 2.507 1.716 3.94.032 1.16-.8 2.149-1.393 3.134a20.767 20.767 0 0 0-1.433 3.223 49.281 49.281 0 0 1-4.183 8.291c-.8 1.257-1.683 2.625-1.5 4.1a6.151 6.151 0 0 0 .716 1.963l2.382 4.731a13.611 13.611 0 0 1 1.218 2.991c.2.9.226 1.83.358 2.747.376 2.9 1.737 5.823.935 8.635-.072.244-.322.537-.512.358a8.934 8.934 0 0 1 1.357 4.617 6.348 6.348 0 0 0 .025 2.6 2.826 2.826 0 0 1 .358 1.024c0 .236-.111.462-.136.716a1.531 1.531 0 0 0 1.189 1.433c.641.2 1.332.2 1.977.39 1.243.358 2.124 1.433 3.188 2.177a6.7 6.7 0 0 0 3.66 1.193.916.916 0 0 0 .537-.107.874.874 0 0 0 .3-.655 3.632 3.632 0 0 0-1.311-3.155 1.457 1.457 0 0 1-.483-.509 1.217 1.217 0 0 1-.047-.57 42.513 42.513 0 0 0-.14-7.815 11.82 11.82 0 0 1-.125-2.486 9.66 9.66 0 0 0 .2-2.07 11.077 11.077 0 0 0-.634-1.981 14.227 14.227 0 0 1-.3-3.689 32.161 32.161 0 0 0-1.046-6.346 4.747 4.747 0 0 0-.988-2.292c-.494-.516-1.293-1.014-1.107-1.7a1.97 1.97 0 0 1 .451-.677 2.719 2.719 0 0 0 .569-2.074.924.924 0 0 0 1.074-.5 16.676 16.676 0 0 0 8.381-9.53 3.169 3.169 0 0 1 .358-.849 3.874 3.874 0 0 1 1.533-1 11.635 11.635 0 0 0 4.033-4.108 9.54 9.54 0 0 0 1.554-2.983 9.782 9.782 0 0 0 .215-2.149l.1-3.732a2.012 2.012 0 0 0-.072-.716 1.731 1.731 0 0 0-.4-.591 7.189 7.189 0 0 0-3.94-2.149c-1.017-.183-2.056-.147-3.084-.233-1.995-.165-3.965-.781-5.959-.637a9.533 9.533 0 0 0-7.406 5.179c-.527.997-1.071 1.861-2.185 1.861z" class="cls-13" data-name="Path 323" transform="translate(-558.265 -418.527)"/>
        <path id="Path_324" d="M827.8 540.375a4.1 4.1 0 0 1-.226 1.7 1.188 1.188 0 0 1-1.393.716c.161-.358-.268-.784-.666-.738a1.239 1.239 0 0 0-.881.749 2.778 2.778 0 0 0-.254 1.723 6.963 6.963 0 0 1 .437 2.149c-.089.609-.537 1.218-.3 1.791a2.9 2.9 0 0 0 .573.688 1.941 1.941 0 0 1-.2 2.668l6.01.118a4.245 4.245 0 0 0 .745 2.926 18.43 18.43 0 0 0 13.735 8.954 1.2 1.2 0 0 0-.287 1.83 1.693 1.693 0 0 0 1.927.107 14.089 14.089 0 0 0 1.655-1.236 5.054 5.054 0 0 1 3.4-.917c.752.072 1.483.315 2.238.358 2.228.118 4.14-1.483 6.271-2.149 1.562-.48 3.327-.48 4.656-1.454a1.847 1.847 0 0 0 .863-1.791 2.97 2.97 0 0 0-.648-1.053 17.829 17.829 0 0 1-1.737-3.256 19.511 19.511 0 0 0-4.344-5.816 38.99 38.99 0 0 0-4.3-3.27 7.579 7.579 0 0 0-1.168-.716 12.2 12.2 0 0 1-1.6-.648 8.088 8.088 0 0 1-1.655-1.862c-1.193-1.39-3.023-2.031-4.491-3.123a11.02 11.02 0 0 0-3.03-2.052c-.57-.172-1.178-.186-1.751-.358-1.3-.394-2.242-1.547-3.517-2.013a14.935 14.935 0 0 0-3.187-.4 7.362 7.362 0 0 1-3.27-1.243 3.943 3.943 0 0 0-1.074-.616c-1.608-.491-1.741 2.507-1.891 3.549a31.99 31.99 0 0 0-.64 4.685z" class="cls-14" data-name="Path 324" transform="translate(-533.087 -372.814)"/>
        <path id="Path_325" d="M798.489 574.519c.269 2.926-1.941 5.763-1.3 8.631.136.612.4 1.193.5 1.791.269 1.7-.748 3.313-1.719 4.735l-8.32 12.213a7.6 7.6 0 0 1-1.189 1.468c-1.594 1.433-3.979 1.268-6.067 1.691a10.439 10.439 0 0 0-4.065 1.791.265.265 0 0 0-.054.358 3.488 3.488 0 0 0 3.023 1.432c.218.29 0 .716-.3.917-.448.312-1.074.394-1.15 1.153a1.26 1.26 0 0 0 .15.763 2.381 2.381 0 0 0 1.458 1.01c2.865.881 5.992-.666 8.148-2.772s3.7-4.763 5.824-6.909c1.171-1.185 2.507-2.2 3.707-3.352a42.255 42.255 0 0 0 6.089-7.879 8.706 8.706 0 0 0 1.318-2.682c.222-.953.122-1.959.38-2.9a10.687 10.687 0 0 1 1.995-3.259 10.768 10.768 0 0 0 2.267-7.027 6.73 6.73 0 0 0-4.108-5.827 3.66 3.66 0 0 0-2.3-.14 5.483 5.483 0 0 0-2.346 1.866l-1.579 1.823a4.329 4.329 0 0 0-.917 1.4 1.451 1.451 0 0 0 .322 1.551" class="cls-10" data-name="Path 325" transform="translate(-502.21 -396.894)"/>
        <path id="Path_326" d="M840.493 549.6a4.569 4.569 0 0 0-3.073.953 4.416 4.416 0 0 0-.774 1.211 12.107 12.107 0 0 0-1.533 4.828 22.791 22.791 0 0 0 .555 4.036 14.816 14.816 0 0 1-.358 3.388 23.546 23.546 0 0 0 4.38-1.683 14.494 14.494 0 0 1 2.561-1.333c1.307-.433 3.5.312 4.735.924.068-.874-.584-2.389-.516-3.263a3.692 3.692 0 0 1 .193-1.075 6.61 6.61 0 0 1 .655-1.042 4.269 4.269 0 0 0-.383-5.014 6.885 6.885 0 0 0-4.47-1.895 19.4 19.4 0 0 0-3.123-.111" class="cls-14" data-name="Path 326" transform="translate(-540.002 -383.998)"/>
        <path id="Path_327" d="M294.111 378.25l-7.063-10.243s-.132-2.536-.595-3.127-.1-1.909-.1-1.909.5-.716.068-.792-.068-1.68-.068-1.68l-.032-2.568s.4-2.471.068-3.062a.971.971 0 0 1 .032-1.057s.394-1.415 0-1.791-.3-2.568-.2-4.316a6.556 6.556 0 0 0-.691-2.994c0-.261-2.607-2.833-2.607-3.066a6.328 6.328 0 0 0-2.643-1.433c-.992-.247-1.483-.462-1.451-.594s-1.551-.655-1.551-.655a3.132 3.132 0 0 1-1.916-.791c-.53-.691-2.149-.892-2.188-.9l-.032-.136a.745.745 0 0 0-.029-.15 6.924 6.924 0 0 0 .358-.645l.093-.2a2.8 2.8 0 0 0 1.622-.5 2.2 2.2 0 0 0 .792-1.579 3.453 3.453 0 0 0-.387-1.755 2.939 2.939 0 0 1-.566-1.852c.064-.276.229-.519.315-.792a2.092 2.092 0 0 0-.236-1.561c-.251-.476-.6-.9-.878-1.361a5.373 5.373 0 0 1-.7-1.927 2.97 2.97 0 0 0-.254-1.049 1.96 1.96 0 0 0-.58-.584 5.8 5.8 0 0 0-3.549-1.074 17.364 17.364 0 0 1-2.686.161 9.627 9.627 0 0 1-1.569-.408 4.046 4.046 0 0 0-3.349.172c-.963.634-1.347 1.88-2 2.865a20.828 20.828 0 0 0-1.862 2.507v-.05a3 3 0 0 0-.247.663 4.72 4.72 0 0 0 .147 2.185 1.518 1.518 0 0 0 .534.974 3.08 3.08 0 0 0 1.153.229l-.043.186a7.539 7.539 0 0 0 5.233 8.767v.2a4.792 4.792 0 0 1-.036.566s-3.32-.684-4.212-.222-2.64.824-2.9 1.074-.924.068-1.519 1.615-.659 3.127-1.433 3.854-1.153 1.218-1.189 1.744.1.659-.2.824-.716.856-.595 1.121a.935.935 0 0 1-.358.985 1.1 1.1 0 0 0-.462.988s-.2.716-.663.892-.759 1.25-.759 1.25l-1.5 1.719-2.965-3.281a1.254 1.254 0 0 0-1.766-.089l-1.458 1.311a2.887 2.887 0 0 0-1.458.867 3.883 3.883 0 0 0-.756 1.125l-.8.716a2.031 2.031 0 0 0-.208 2.238l1.9 2.1v.018a3.366 3.366 0 0 0-1.837.749c-2.837 2.507-2.865 4.81-2.443 5.863s4.026 5.1 4.026 5.1a16.068 16.068 0 0 0 5.111 4.162l-.021.025a2.481 2.481 0 0 0-.175.2l-.05.064-.047.064-.054.079a.624.624 0 0 0-.039.064l-.057.093a.581.581 0 0 0-.036.064 2.004 2.004 0 0 0-.068.129q-.012.021-.021.043a1.973 1.973 0 0 0-.082.179l-.029.064c-.018.043-.032.086-.05.133a.8.8 0 0 0-.029.086l-.043.129a.709.709 0 0 0-.029.093.781.781 0 0 1-.039.143c-.011.05-.018.057-.025.09s-.036.154-.05.236a.18.18 0 0 1-.018.093.854.854 0 0 0-.029.168.459.459 0 0 0 0 .122l-.021.161v.129a.671.671 0 0 1-.018.186c-.018.064 0 .075 0 .115v.319c-.064 3.854.161 4.412.161 4.412a2.149 2.149 0 0 0 1.751 1.314 2.188 2.188 0 0 0 .562-.029c1.719-.3 5.73-.988 7.163-.716a12.312 12.312 0 0 0 3.56-.29l.3-.057.2.655.652-.179.555.319.358.2c.652 2.206 3.295 1.454 3.295 1.454l.627.358 6.371.165a12.784 12.784 0 0 0 2.256 1.074 1.731 1.731 0 0 0 .319.072 14.169 14.169 0 0 0 1.791.032c.487 0 .863-.032.863-.032s-.064-1.73-.158-3.667a51.985 51.985 0 0 0 5.9-.484c3.4-.595 4.821-3.689 5.344-5.344a15.619 15.619 0 0 1 .333 2.052 14.893 14.893 0 0 0 .53 1.791 5.968 5.968 0 0 0 .716 1.318c2.507-.856.988-2.149.462-2.7s.358-1.021.358-1.021.695-.462.627-.888-.1-.888 2.149-.856 2.122-1.821 2.122-1.821zm-34.855-21.027a17.08 17.08 0 0 0 .623 2.751 3.582 3.582 0 0 1 .075 1.074 81.468 81.468 0 0 0-2.715-.165.337.337 0 0 1 .072.168l-.211-.047-.3-.072 2.45-3.728zm-4.856 7.722l2.3.358.193.029a7.52 7.52 0 0 0-.118 1.074c0 .036.05.075.125.122a2.833 2.833 0 0 0-.043.548 6.387 6.387 0 0 0 2.346.9c-.018.068-.032.133-.05.19-1.092-.573-2.808-.842-3-1.268s-6.042-2.468-6.042-2.468l-.58-.29 1.536.29.423-.043a22.826 22.826 0 0 0 2.912.559z" class="cls-15" data-name="Path 327" transform="translate(-155.879 -237.704)"/>
        <path id="Path_328" d="M301.59 461.643s-.913 5.53-5.558 6.346-20.153.655-20.153.655-8.868-1.279-12.073-8.767-5.268-10.472-2.507-10.6 17.571 5.014 18.419 5.071 22.692-11.386 21.872 7.295z" class="cls-16" data-name="Path 328" transform="translate(-170.872 -319.664)"/>
        <path id="Path_329" d="M301.59 461.643s-.913 5.53-5.558 6.346-20.153.655-20.153.655-8.868-1.279-12.073-8.767-5.268-10.472-2.507-10.6 17.571 5.014 18.419 5.071 22.692-11.386 21.872 7.295z" class="cls-11" data-name="Path 329" transform="translate(-170.872 -319.664)"/>
        <path id="Path_330" d="M259.7 485.968a2.117 2.117 0 0 0 1.733 1.307 2.371 2.371 0 0 0 .562-.032c1.7-.294 5.691-.981 7.1-.716a12.316 12.316 0 0 0 3.524-.286c.741-.14 1.286-.272 1.286-.272s-1.311-4.351-1.472-4.48-5.892-3.581-5.892-3.581l-4.534-.326a2.4 2.4 0 0 0-1.54.9 4.855 4.855 0 0 0-.917 3.087c-.073 3.837.15 4.399.15 4.399z" class="cls-12" data-name="Path 330" transform="translate(-170.569 -337.833)"/>
        <path id="Path_331" d="M259.725 486.006a2.117 2.117 0 0 0 1.733 1.307 19.265 19.265 0 0 1-1.232-1.791l.025-3.173a5.6 5.6 0 0 1 1.791-4.71s-2.389.161-2.457 3.99a19.284 19.284 0 0 0 .14 4.377z" class="cls-11" data-name="Path 331" transform="translate(-170.592 -337.871)"/>
        <path id="Path_332" d="M310.2 463.821l4.223-3.306 6.64-6.543-1.791-.082c-.269.172-1.021.716-1.049 1.368-.032.8-1.791.057-2.711.512s-5.4 6.2-6.182 6.157-1.408-.4-1.737.161l-.021.036z" class="cls-17" data-name="Path 332" transform="translate(-201.399 -322.627)"/>
        <path id="Path_333" d="M262.11 478.477c.15.072.3.143.458.208 3.205 1.375 7.163 4.255 7.46 4.778a31.128 31.128 0 0 0 4.244 2.758c.741-.14 1.286-.272 1.286-.272s-1.311-4.352-1.472-4.48-5.892-3.581-5.892-3.581l-4.534-.326a2.4 2.4 0 0 0-1.55.915z" class="cls-17" data-name="Path 333" transform="translate(-172.221 -337.82)"/>
        <path id="Path_334" d="M236.918 442.078c.423 1.046 3.99 5.071 3.99 5.071a15.448 15.448 0 0 0 5.465 4.3c3.209 1.354 7.163 4.255 7.457 4.778a34.445 34.445 0 0 0 4.545 2.933l.4.236.892.519.473.269s1.1-.877 2.188-1.762 2.149-1.751 2.149-1.791.458-1.211.358-1.275-.276-.487-.691-1.014a4.613 4.613 0 0 0-1.665-1.375 4.745 4.745 0 0 1-2.149-2.253s-.143-.1-.358-.243a4.434 4.434 0 0 0-1.468-.655c-.716-.09-2.063-1.562-2.063-1.562a4 4 0 0 1-1.275-1.339c-.358-.716-5.419-4.2-5.888-4.527l12.3 7.9 2.944 1.891 4.223-3.3 6.64-6.543-2.192-.1c-3.223-.14-8.954-.358-9.67-.193a5.619 5.619 0 0 1-1.791.118 6.341 6.341 0 0 1-2.715-.5c-1.082-.569-2.783-.838-2.98-1.261s-5.985-2.45-5.985-2.45-7.879-4.187-10.7-1.7-2.86 4.775-2.434 5.828z" class="cls-16" data-name="Path 334" transform="translate(-155.925 -310.797)"/>
        <path id="Path_335" d="M308.24 369.516l1.014 3.37 1.311 7.589 4.81.326 1.375-2.292 1.39-2.306s.867-3.066 1.49-6.031c.548-2.625.91-5.175.312-5.451-.534-.244-.881-1.128-1.11-2.081a4.814 4.814 0 0 1-.075-.358 18.857 18.857 0 0 1-.322-2.439s-10.075-.523-8.667 3.632a6.632 6.632 0 0 1 .38 2.21 2.892 2.892 0 0 1-.036.562 4.71 4.71 0 0 1-1.872 3.269z" class="cls-18" data-name="Path 335" transform="translate(-201.829 -262.249)"/>
        <path id="Path_336" d="M302.4 380.468l.358 5.73.817 4.874.917 2.26.82 12.349s7.879.913 9.806-.018a.817.817 0 0 0 .358-.269c2.317-3.5 1.558-13.635 1.558-13.635l.881-6.543-.587-3.4-1.433-.15-1.1-.118s-.247.3-.605.777c-.971 1.279-2.754 3.8-2.632 4.849.161 1.433-.2 2.912-.756 3.141s-1.014.623-1.11.229a1.759 1.759 0 0 1-.1-1.046 8.5 8.5 0 0 0-.426-2.26 9.507 9.507 0 0 1-.817-2.844 3.372 3.372 0 0 0-.358-2.063c-.261-.229-.623-.458-.329-1.5s-1.289-3.084-1.289-3.084z" class="cls-19" data-name="Path 336" transform="translate(-198.081 -273.757)"/>
        <path id="Path_337" d="M331.464 388.174l.33 9.781 1.887 1.045a.849.849 0 0 0 .358-.272c2.317-3.5 1.558-13.635 1.558-13.635l.885-6.543-.591-3.4-1.433-.15c.552-2.625.91-5.172.312-5.451-.534-.244-.881-1.128-1.107-2.077l-1.021 6.919s.086.623.115 1.268a3.581 3.581 0 0 1-.082 1.218 4.065 4.065 0 0 0-.064 1.637 13.284 13.284 0 0 0-1.028 4.824c-.194 2.479-.119 4.836-.119 4.836z" class="cls-17" data-name="Path 337" transform="translate(-216.727 -267.165)"/>
        <path id="Path_338" d="M334.019 367s1.651.2 2.174.892a3.093 3.093 0 0 0 1.9.788s1.569.523 1.536.652.458.33 1.433.591a6.615 6.615 0 0 1 2.618 1.433c0 .222 2.582 2.779 2.582 3.041a6.531 6.531 0 0 1 .688 2.976c-.1 1.733-.2 3.94.2 4.3s0 1.766 0 1.766a.967.967 0 0 0-.032 1.049c.326.587-.068 3.041-.068 3.041l.036 2.554s-.358 1.6.064 1.669-.064.784-.064.784-.358 1.307.1 1.9.587 3.105.587 3.105l7 10.175s.1 1.866-2.124 1.834-2.2.426-2.127.849-.623.885-.623.885-.881.458-.358 1.014 2.027 1.834-.458 2.682a5.923 5.923 0 0 1-.716-1.307 14.847 14.847 0 0 1-.523-1.766s-.229-2.489-.688-2.815-.394-1.9-.394-1.9.655-1.275-.261-1.791-14.2-7.879-14.2-7.879l-.322-9.785s-.229-7.231 1.146-9.652a4.064 4.064 0 0 1 .064-1.637 8.474 8.474 0 0 0-.032-2.486z" class="cls-12" data-name="Path 338" transform="translate(-217.054 -266.857)"/>
        <path id="Path_339" d="M292.381 377.323s-3.288-.677-4.172-.218-2.614.817-2.865 1.074-.913.068-1.5 1.6-.652 3.109-1.408 3.829-1.142 1.211-1.175 1.733.1.655-.2.817-.716.852-.591 1.114 6.8 6.02 6.8 6.02a15.778 15.778 0 0 0 .623 2.747c.294.555-.326 8.212-.981 8.735s4.4.48 4.4.48.229-5.014.426-5.286a51.887 51.887 0 0 0-.132-5.626s-.032-4.581.394-5.791a26.035 26.035 0 0 0 .358-5.236 10.769 10.769 0 0 1 .834-2.976c.464-.559-.811-3.016-.811-3.016z" class="cls-17" data-name="Path 339" transform="translate(-183.99 -273.24)"/>
        <path id="Path_340" d="M292.109 377.05s-3.288-.677-4.172-.222-2.618.82-2.865 1.074-.917.064-1.5 1.6-.655 3.105-1.408 3.825-1.146 1.21-1.178 1.733.1.655-.2.82-.716.849-.587 1.11 6.8 6.02 6.8 6.02a15.45 15.45 0 0 0 .623 2.747c.3.555-.329 8.212-.985 8.735s4.419.476 4.419.476.229-5.014.423-5.283a52.964 52.964 0 0 0-.129-5.63s-.032-4.577.394-5.788a26.364 26.364 0 0 0 .376-5.236 10.768 10.768 0 0 1 .834-2.976c.462-.555-.845-3.005-.845-3.005z" class="cls-12" data-name="Path 340" transform="translate(-183.815 -273.064)"/>
        <path id="Path_341" d="M312.3 363.453a6.629 6.629 0 0 1 .38 2.21 7.521 7.521 0 0 0 8.6-3.4 18.87 18.87 0 0 1-.322-2.439s-10.067-.524-8.658 3.629z" class="cls-17" data-name="Path 341" transform="translate(-204.347 -262.235)"/>
        <path id="Path_342" d="M298.65 342.133a7.5 7.5 0 1 0 .165-1.558 7.42 7.42 0 0 0-.165 1.558z" class="cls-18" data-name="Path 342" transform="translate(-195.674 -246.087)"/>
        <path id="Path_343" d="M273.455 404l-1.791.555a.928.928 0 0 1-.358.981 1.074 1.074 0 0 0-.455.981s-.2.716-.655.885-.752 1.243-.752 1.243l-1.5 1.733s-.559.458-.458.688-.591.294-.591.294l.358 5.823 3.109.591 1.93-.2 1.569-.587 1.375-.82.62-1.6 2.751-4.19z" class="cls-12" data-name="Path 343" transform="translate(-175.289 -290.605)"/>
        <path id="Path_344" d="M253.763 419.4s-3.99-5.755-6.97-2.65 1.211 8.148 2.192 7.983 5.662-.426 5.662-.426z" class="cls-18" data-name="Path 344" transform="translate(-161.714 -298.2)"/>
        <rect id="Rectangle_715" width="20.891" height="16.22" class="cls-12" data-name="Rectangle 715" rx="1.54" transform="rotate(27.04 -185.965 228.02)"/>
        <path id="Rectangle_716" d="M0 0h17.56v13.234H0z" class="cls-14" data-name="Rectangle 716" transform="rotate(27.04 -189.837 230.79)"/>
        <circle id="Ellipse_114" cx=".287" cy=".287" r=".287" class="cls-20" data-name="Ellipse 114" transform="translate(80.273 116.826)"/>
        <circle id="Ellipse_115" cx=".476" cy=".476" r=".476" class="cls-20" data-name="Ellipse 115" transform="translate(97.013 125.31)"/>
        <path id="Path_345" d="M260.93 425.544c-.036 4.319 8.9 5.236 8.9 5.236l2.281.358 1.024.161.426-4.219s-.469-.072-1.053-.208c-.867-.2-1.988-.548-2.221-1.039-.378-.811-9.332-4.608-9.357-.289z" class="cls-18" data-name="Path 345" transform="translate(-171.463 -303.132)"/>
        <path id="Path_346" d="M299.11 340.586a.888.888 0 0 1 .548.244c.251.269.265.745.594.91a.688.688 0 0 0 .39.043c.87-.122 1.372-1.1 2.21-1.375a2.217 2.217 0 0 1 1.461.125 1.143 1.143 0 0 1 .487.312c.279.358.082.9.211 1.332.179.609.906.849 1.533.928a2.685 2.685 0 0 1 1.755.6 1.59 1.59 0 0 1 .312 1.268.988.988 0 0 0 0 .469c.172.491 1.021.415 1.243.029.165-.283.115-.516.5-.595a1.623 1.623 0 0 1 .8.14 5.923 5.923 0 0 0 2.074.319 7.492 7.492 0 1 0-14.111-4.745z" class="cls-17" data-name="Path 346" transform="translate(-195.969 -246.098)"/>
        <path id="Path_347" d="M305.326 338.078a.993.993 0 0 1 0-.469 1.579 1.579 0 0 0-.312-1.264 2.681 2.681 0 0 0-1.755-.6c-.63-.082-1.354-.319-1.533-.928-.129-.437.068-.971-.211-1.329a1.075 1.075 0 0 0-.487-.312 2.22 2.22 0 0 0-1.461-.129c-.838.272-1.339 1.254-2.21 1.375a.659.659 0 0 1-.39-.043c-.33-.165-.358-.641-.595-.91-.4-.419-1.153-.147-1.637-.458a1.508 1.508 0 0 1-.53-.971 4.706 4.706 0 0 1-.143-2.17c.283-1.214 1.372-2.049 2.063-3.091.648-.967 1.014-2.192 1.984-2.833a3.97 3.97 0 0 1 3.32-.172 9.367 9.367 0 0 0 1.554.408 17.49 17.49 0 0 0 2.661-.161 5.7 5.7 0 0 1 3.517 1.074 1.924 1.924 0 0 1 .573.58 3.012 3.012 0 0 1 .258 1.042 5.293 5.293 0 0 0 .691 1.912c.272.462.62.877.867 1.354a2.1 2.1 0 0 1 .236 1.551c-.086.269-.251.512-.315.788a2.968 2.968 0 0 0 .562 1.837 3.446 3.446 0 0 1 .383 1.744 2.185 2.185 0 0 1-.784 1.569 2.833 2.833 0 0 1-1.658.505 5.964 5.964 0 0 1-2.113-.319 1.665 1.665 0 0 0-.8-.14c-.383.079-.333.312-.5.595-.214.381-1.061.456-1.235-.035z" class="cls-12" data-name="Path 347" transform="translate(-192.687 -238.934)"/>
        <path id="Path_348" d="M309.084 464.336l4.223-3.3 6.64-6.543-2.192-.1a1.433 1.433 0 0 0-.462.9c-.032.8-1.791.054-2.711.512s-5.4 6.2-6.182 6.157-1.408-.4-1.737.158l-.022.036a.923.923 0 0 1-.5.3z" class="cls-17" data-name="Path 348" transform="translate(-200.482 -322.948)"/>
        <path id="Path_349" d="M290.61 460.083l2.12 6.773.333 1.074 1.01-.276 2.228-.612 9.913-2.722a8.621 8.621 0 0 0 3.581-.953 10.805 10.805 0 0 1 6.16-1.343c1.311.122 2.768-.444 3.979-2.679 0 0 2.747-8.112-4.187-10.436s-7.267 1.236-7.267 1.236l-.1.057c-.269.172-1.021.716-1.049 1.368-.032.8-1.791.057-2.711.512s-5.4 6.2-6.182 6.157-1.408-.4-1.737.161l-.022.036c-.244.333-.971.412-1.454.423a4.3 4.3 0 0 1-.451 0l-.064.018-.5.15z" class="cls-16" data-name="Path 349" transform="translate(-190.514 -318.924)"/>
        <path id="Path_350" d="M292.14 437.166l1.024.161.426-4.219s-.469-.072-1.053-.208a21.59 21.59 0 0 1-.397 4.266z" class="cls-17" data-name="Path 350" transform="translate(-191.496 -309.155)"/>
        <path id="Path_351" d="M319.163 389.569s3.041-.885 2.289 7.754a24.153 24.153 0 0 1-6.379 14.1s-6.479 2.844-9.391 2.385-5.036-.555-5.036-.555a7.4 7.4 0 0 0-2.948-.784c-1.633-.064-5.068-1.074-5.136-1.408s.852-5.136.458-5.494c0 0 4.581.186 5.039.516s1.114.1 1.6 0a5.566 5.566 0 0 1 4.971-.254 3.019 3.019 0 0 0 1.408-.165 1.408 1.408 0 0 1 1.024-.064 2.812 2.812 0 0 0 .716-.358c.1-.129.885 0 .885 0a.358.358 0 0 0 .491-.229 2.149 2.149 0 0 1 .458-.716s.881-4.971 2.55-6.837a1.075 1.075 0 0 0 .358-.949c-.129-.531 2.718-7.991 6.643-6.942z" class="cls-17" data-name="Path 351" transform="translate(-191.765 -281.278)"/>
        <path id="Path_352" d="M318.94 387.713s3.044-.881 2.292 7.754a24.135 24.135 0 0 1-6.379 14.1s-6.479 2.847-9.391 2.389-5.039-.566-5.039-.566a7.373 7.373 0 0 0-2.944-.784c-1.637-.068-5.071-1.074-5.136-1.408s.849-5.136.458-5.5c0 0 4.581.19 5.039.519s1.11.093 1.6 0a5.592 5.592 0 0 1 4.975-.258 2.985 2.985 0 0 0 1.4-.161 1.433 1.433 0 0 1 1.024-.068 2.975 2.975 0 0 0 .716-.358c.1-.133.881 0 .881 0a.358.358 0 0 0 .491-.229 2.15 2.15 0 0 1 .458-.716s.885-4.971 2.554-6.837a1.074 1.074 0 0 0 .358-.949c-.126-.513 2.718-7.963 6.643-6.928z" class="cls-12" data-name="Path 352" transform="translate(-191.625 -280.088)"/>
        <path id="Path_353" d="M300.64 478.25l4.319 5.229.029-.029c.032-.1.458-1.211.358-1.279a6.083 6.083 0 0 0-2.353-2.389 4.463 4.463 0 0 1-1.852-1.683z" class="cls-17" data-name="Path 353" transform="translate(-196.951 -338.167)"/>
        <path id="Path_354" d="M300.613 493.454l.473.269s1.1-.878 2.188-1.762 2.149-1.751 2.149-1.791.458-1.211.358-1.275-.276-.487-.691-1.014c-2.93-.82-1.074 1.214-.817 1.307a2.982 2.982 0 0 0-3.761 3.066 4.8 4.8 0 0 0 .101 1.2z" class="cls-17" data-name="Path 354" transform="translate(-196.867 -344.32)"/>
        <path id="Path_355" d="M304.78 495.065l.623.358 6.314.161a12.644 12.644 0 0 0 2.235 1.074 2.092 2.092 0 0 0 .315.068 13.962 13.962 0 0 0 1.762.032c.483 0 .856-.032.856-.032s-.3-7.962-.523-8.8c-.107-.4-.638-.315-1.16-.115a7.906 7.906 0 0 0-1.132.573 20.392 20.392 0 0 0-3.105.491c-.426.229-1.637-.133-2.389 0s-2.1-.885-2.1-.885c-3.664-1.211-1.6 1.046-1.339 1.146a2.982 2.982 0 0 0-3.764 3.066c-.173 3.888 3.407 2.863 3.407 2.863z" class="cls-12" data-name="Path 355" transform="translate(-197.421 -344.287)"/>
        <path id="Path_356" d="M336.374 492.021c.068 1.647 1.354 3.693 2.12 4.774.484 0 .856-.032.856-.032s-.3-7.962-.523-8.8c-.107-.4-.638-.315-1.16-.115a9.182 9.182 0 0 0-1.293 4.173z" class="cls-21" data-name="Path 356" transform="translate(-219.885 -344.315)"/>
        <path id="Path_357" d="M336.374 492.021c.068 1.647 1.354 3.693 2.12 4.774.484 0 .856-.032.856-.032s-.3-7.962-.523-8.8c-.107-.4-.638-.315-1.16-.115a9.182 9.182 0 0 0-1.293 4.173z" class="cls-17" data-name="Path 357" transform="translate(-219.885 -344.315)"/>
        <path id="Path_358" d="M333.169 492.239c.437 1.59.43 3.374 1.125 4.455a2.1 2.1 0 0 0 .315.068 13.956 13.956 0 0 0 1.762.032c.483 0 .856-.032.856-.032s-.3-7.962-.523-8.8c-.107-.4-.637-.315-1.16-.115a7.908 7.908 0 0 0-1.132.573s-1.798 1.78-1.243 3.819z" class="cls-11" data-name="Path 358" transform="translate(-217.762 -344.315)"/>
        <path id="Path_359" d="M272.54 455.34a13.047 13.047 0 0 1 5.795 4.634z" class="cls-17" data-name="Path 359" transform="translate(-178.915 -323.558)"/>
        <g id="Group_158" class="cls-22" data-name="Group 158" transform="translate(101.298 90.276)">
            <path id="Path_360" d="M343.469 345.72a.108.108 0 0 1-.018.072 1.979 1.979 0 0 1-.111.272 2.507 2.507 0 0 1 .129-.344z" data-name="Path 360" transform="translate(-325.657 -343.474)"/>
            <path id="Path_361" d="M294.035 340.109a2.8 2.8 0 0 1 .244-.659.806.806 0 0 1-.05.168 4.756 4.756 0 0 0 .147 2.17 1.518 1.518 0 0 0 .526.971c.487.312 1.243.039 1.64.458.251.269.265.745.595.91a.659.659 0 0 0 .39.043c.87-.122 1.372-1.1 2.21-1.375a2.2 2.2 0 0 1 1.461.129 1.074 1.074 0 0 1 .487.312c.279.358.082.892.211 1.329.179.609.906.849 1.533.928a2.669 2.669 0 0 1 1.755.6 1.579 1.579 0 0 1 .312 1.264.991.991 0 0 0 0 .469c.172.491 1.021.415 1.243.029.165-.283.115-.516.5-.595a1.665 1.665 0 0 1 .8.14 5.962 5.962 0 0 0 2.113.319 2.833 2.833 0 0 0 1.658-.5 1.854 1.854 0 0 0 .509-.62 2.063 2.063 0 0 1-.716 1.11 2.833 2.833 0 0 1-1.658.505 5.964 5.964 0 0 1-2.113-.319 1.665 1.665 0 0 0-.8-.14c-.383.079-.333.312-.494.595-.226.387-1.074.462-1.246-.029a1.038 1.038 0 0 1 0-.469 1.579 1.579 0 0 0-.312-1.264 2.681 2.681 0 0 0-1.755-.6c-.63-.082-1.354-.319-1.533-.928-.129-.437.068-.971-.211-1.329a1.074 1.074 0 0 0-.483-.312 2.231 2.231 0 0 0-1.465-.129c-.834.272-1.34 1.254-2.21 1.375a.659.659 0 0 1-.39-.043c-.33-.165-.358-.641-.595-.91-.4-.419-1.15-.147-1.637-.458a1.508 1.508 0 0 1-.53-.971 4.706 4.706 0 0 1-.136-2.174z" data-name="Path 361" transform="translate(-293.966 -339.45)"/>
        </g>
        <path id="Path_362" d="M340.426 411.609c-.6.809-1.286 1.558-1.816 2.41a4.588 4.588 0 0 0-.8 2.865 7.45 7.45 0 0 0 1.146-2.049 28.661 28.661 0 0 1 2.2-3.306c.14-.211 1.042-1.433.587-1.483-.371-.053-1.112 1.287-1.317 1.563z" class="cls-17" data-name="Path 362" transform="translate(-220.807 -294.486)"/>
        <path id="Path_363" d="M346.752 596.515c.433 1.39.87 2.783 1.411 4.133a35.153 35.153 0 0 0 3.657 6.665 48.365 48.365 0 0 0 3.023 3.961c1.347 1.587 2.865 3.184 3.324 5.211a26.585 26.585 0 0 1 .3 3.581 4.382 4.382 0 0 0 1.476 3.18 5.376 5.376 0 0 0 2.425.8c.609.1 1.368.129 1.683-.4a1.53 1.53 0 0 0 .168-.695l.147-1.751c.029-.38.165-.863.544-.881s.569.487.892.716a.971.971 0 0 0 1.311-.455 2.21 2.21 0 0 0 .036-1.54 7.3 7.3 0 0 0-3.75-4.656 10.75 10.75 0 0 1-1.827-.949 6.244 6.244 0 0 1-1.433-1.812c-3.324-5.473-6.665-10.974-9.011-16.93a12.535 12.535 0 0 1-.928-3.338 21.917 21.917 0 0 1 .143-3.524 20.055 20.055 0 0 0-.58-6.278 5.012 5.012 0 0 0-.6-1.526 3.4 3.4 0 0 0-4.656-.673 4.8 4.8 0 0 0-1.855 3.392c-.1 1.189.58 2.421.928 3.528q1.578 5.126 3.172 10.241z" class="cls-23" data-name="Path 363" transform="translate(-223.909 -402.759)"/>
        <path id="Path_364" d="M346.752 596.515c.433 1.39.87 2.783 1.411 4.133a35.153 35.153 0 0 0 3.657 6.665 48.365 48.365 0 0 0 3.023 3.961c1.347 1.587 2.865 3.184 3.324 5.211a26.585 26.585 0 0 1 .3 3.581 4.382 4.382 0 0 0 1.476 3.18 5.376 5.376 0 0 0 2.425.8c.609.1 1.368.129 1.683-.4a1.53 1.53 0 0 0 .168-.695l.147-1.751c.029-.38.165-.863.544-.881s.569.487.892.716a.971.971 0 0 0 1.311-.455 2.21 2.21 0 0 0 .036-1.54 7.3 7.3 0 0 0-3.75-4.656 10.75 10.75 0 0 1-1.827-.949 6.244 6.244 0 0 1-1.433-1.812c-3.324-5.473-6.665-10.974-9.011-16.93a12.535 12.535 0 0 1-.928-3.338 21.917 21.917 0 0 1 .143-3.524 20.055 20.055 0 0 0-.58-6.278 5.012 5.012 0 0 0-.6-1.526 3.4 3.4 0 0 0-4.656-.673 4.8 4.8 0 0 0-1.855 3.392c-.1 1.189.58 2.421.928 3.528q1.578 5.126 3.172 10.241z" class="cls-11" data-name="Path 364" transform="translate(-223.909 -402.759)"/>
        <path id="Path_365" d="M294.552 773.372a4.772 4.772 0 0 0 2.02.243c.05-.559.8-.684 1.361-.655a1.555 1.555 0 0 1 .777.179c.14.09.247.219.383.312a1.658 1.658 0 0 0 .791.2l2.908.244a8.753 8.753 0 0 0 3.861-.251 1.331 1.331 0 0 0 .62-.415c.33-.473 0-1.15-.455-1.493s-1.042-.5-1.5-.849c-1.01-.77-1.15-2.21-1.683-3.363a9.923 9.923 0 0 0-1.393-2.016 7.74 7.74 0 0 0-1.372-1.407c-1.168-.842-2.507-.824-3.879-.945a2.6 2.6 0 0 0-2.572.716c-.86 1.074-.516 3.223-.462 4.477a32.4 32.4 0 0 0 .595 5.023z" class="cls-24" data-name="Path 365" transform="translate(-192.59 -521.102)"/>
        <path id="Path_366" d="M294.552 773.372a4.772 4.772 0 0 0 2.02.243c.05-.559.8-.684 1.361-.655a1.555 1.555 0 0 1 .777.179c.14.09.247.219.383.312a1.658 1.658 0 0 0 .791.2l2.908.244a8.753 8.753 0 0 0 3.861-.251 1.331 1.331 0 0 0 .62-.415c.33-.473 0-1.15-.455-1.493s-1.042-.5-1.5-.849c-1.01-.77-1.15-2.21-1.683-3.363a9.923 9.923 0 0 0-1.393-2.016 7.74 7.74 0 0 0-1.372-1.407c-1.168-.842-2.507-.824-3.879-.945a2.6 2.6 0 0 0-2.572.716c-.86 1.074-.516 3.223-.462 4.477a32.4 32.4 0 0 0 .595 5.023z" class="cls-11" data-name="Path 366" transform="translate(-192.59 -521.102)"/>
        <path id="Path_367" d="M286.9 629.611a2.022 2.022 0 0 0-1.11 2.314 8.51 8.51 0 0 0 1.171 2.532c1.3 2.317 1.855 4.968 2.944 7.385.813 1.791 1.913 3.474 2.715 5.286a9.031 9.031 0 0 1 .813 5.781c-.236.935-.695 1.791-1 2.711a15.046 15.046 0 0 0-.587 3.062 58.156 58.156 0 0 0-.211 10.623 3.171 3.171 0 0 0 .265 1.253c.183.358.5.716.358 1.074-.061.147-.193.254-.258.4-.186.4.186.827.526 1.114a.928.928 0 0 1-.569.441 1.346 1.346 0 0 1 .573 1.5c-.3.047-.319.509-.129.752s.491.394.627.67a.935.935 0 0 1-.516 1.175 2.454 2.454 0 0 1-1.4.107 15.408 15.408 0 0 1-2.346-.516 1.7 1.7 0 0 1-1.368-1.755 26.075 26.075 0 0 1-.161-4.394c.125-7.106 0-14.219-.308-21.32a24.3 24.3 0 0 0-2.092-8.277 43.437 43.437 0 0 0-2.038-3.94c-1.6-2.922-3.008-6.16-2.643-9.473.039-.358.168-.784.523-.842a.758.758 0 0 1 .4.068 18.176 18.176 0 0 1 2.131 1.175 8.043 8.043 0 0 0 3.69 1.094z" class="cls-13" data-name="Path 367" transform="translate(-183.766 -433.91)"/>
        <path id="Path_368" d="M286.9 629.611a2.022 2.022 0 0 0-1.11 2.314 8.51 8.51 0 0 0 1.171 2.532c1.3 2.317 1.855 4.968 2.944 7.385.813 1.791 1.913 3.474 2.715 5.286a9.031 9.031 0 0 1 .813 5.781c-.236.935-.695 1.791-1 2.711a15.046 15.046 0 0 0-.587 3.062 58.156 58.156 0 0 0-.211 10.623 3.171 3.171 0 0 0 .265 1.253c.183.358.5.716.358 1.074-.061.147-.193.254-.258.4-.186.4.186.827.526 1.114a.928.928 0 0 1-.569.441 1.346 1.346 0 0 1 .573 1.5c-.3.047-.319.509-.129.752s.491.394.627.67a.935.935 0 0 1-.516 1.175 2.454 2.454 0 0 1-1.4.107 15.408 15.408 0 0 1-2.346-.516 1.7 1.7 0 0 1-1.368-1.755 26.075 26.075 0 0 1-.161-4.394c.125-7.106 0-14.219-.308-21.32a24.3 24.3 0 0 0-2.092-8.277 43.437 43.437 0 0 0-2.038-3.94c-1.6-2.922-3.008-6.16-2.643-9.473.039-.358.168-.784.523-.842a.758.758 0 0 1 .4.068 18.176 18.176 0 0 1 2.131 1.175 8.043 8.043 0 0 0 3.69 1.094z" class="cls-11" data-name="Path 368" transform="translate(-183.766 -433.91)"/>
        <path id="Path_369" d="M252.449 608.817a2.321 2.321 0 0 0-3.227.365 17.192 17.192 0 0 0-1.676 1.468 8.932 8.932 0 0 0-1.991 8.839 17.413 17.413 0 0 0 2.445 4.338l1.934 2.779c2.951 4.237 5.9 8.474 8.993 12.61a.48.48 0 0 0 .337.455c.111.029.251.025.319.118a.337.337 0 0 1 .039.19 2.741 2.741 0 0 1-.172.9.426.426 0 0 0-.036.308c.1.233.523.1.659.319.09.143-.021.33-.14.451s-.265.258-.244.426.315.358.3.566c0 .122-.107.215-.183.312a.8.8 0 0 0 .1 1.017c.2 2.02-.9 3.94-1.114 5.952-.358 3.18 1.092 6.285 1.268 9.477a2.453 2.453 0 0 0 .2 1.046c.3.551 1.074.885 1.035 1.511a6.052 6.052 0 0 1-.218.759 5.773 5.773 0 0 0 .118 1.074c.007.358-.312.8-.648.655q.38 1.268.677 2.557l6.769.559a6.007 6.007 0 0 0-.061-1.827c-.14-.655-.433-1.264-.587-1.912a2.263 2.263 0 0 1 .265-1.916.749.749 0 0 1-.745-.612 2.977 2.977 0 0 1 .018-1.053c.179-1.766-.562-3.506-.541-5.279a25.774 25.774 0 0 1 .759-4.112c.53-2.937-.022-6.121 1.286-8.8.792-1.615 1.887-3.406 1-4.971-.437-.774-1.211-1.3-1.716-2.034a8.277 8.277 0 0 1-.917-2.217 74.873 74.873 0 0 0-4.208-9.283 9.669 9.669 0 0 1-.906-2.439 12.787 12.787 0 0 1-.115-2.253 33.2 33.2 0 0 0-.247-4.043 3.847 3.847 0 0 0-.491-1.673 3.742 3.742 0 0 0-1.074-.963c-2.221-1.529-4.864-2.4-7.264-3.664z" class="cls-13" data-name="Path 369" transform="translate(-161.321 -421.755)"/>
        <path id="Path_370" d="M286.958 780.3a4.854 4.854 0 0 0 2.024.24c.05-.559.8-.684 1.357-.655a1.554 1.554 0 0 1 .777.179c.14.09.247.222.387.312a1.619 1.619 0 0 0 .792.2l2.9.244a8.716 8.716 0 0 0 3.864-.251 1.3 1.3 0 0 0 .616-.415c.329-.473 0-1.146-.455-1.49s-1.042-.5-1.5-.852c-1.014-.77-1.15-2.206-1.687-3.359a9.692 9.692 0 0 0-1.39-2.02 7.737 7.737 0 0 0-1.375-1.4c-1.164-.845-2.507-.827-3.875-.949a2.6 2.6 0 0 0-2.572.716c-.86 1.074-.516 3.223-.466 4.48a32.458 32.458 0 0 0 .603 5.02z" class="cls-24" data-name="Path 370" transform="translate(-187.717 -525.545)"/>
        <circle id="Ellipse_116" cx="6.705" cy="6.705" r="6.705" class="cls-23" data-name="Ellipse 116" transform="translate(122.538 161.931)"/>
        <path id="Path_371" d="M331.085 561.522c-.96.827-2.339.888-3.6 1.017a22.607 22.607 0 0 0-7.747 2.242 2.794 2.794 0 0 0-.9.616 2.529 2.529 0 0 0-.455.96 6.271 6.271 0 0 0-.254 2.331 6.643 6.643 0 0 0 .648 2.192 11.818 11.818 0 0 0 4.155 4.738 3.043 3.043 0 0 0 1.053.5 5.905 5.905 0 0 0 2.6-.555 4.254 4.254 0 0 1 2.4.075c.716.244 1.5.688 2.21.39a2.268 2.268 0 0 0 1-1.139 38.747 38.747 0 0 0 1.83-3.99 15.353 15.353 0 0 1 .663-1.561c.777-1.479 2.12-2.622 2.79-4.158a.913.913 0 0 0 .064-.781 1.074 1.074 0 0 0-.494-.376 11.749 11.749 0 0 1-2.679-2.1c-.441-.423-1.25-1.565-1.884-1.665-.701-.119-.916.848-1.4 1.264z" class="cls-23" data-name="Path 371" transform="translate(-208.168 -390.895)"/>
        <path id="Path_372" d="M296.325 583.4a4.11 4.11 0 0 1-2.536.029 28.945 28.945 0 0 1-6.375-1.852 3.453 3.453 0 0 1-1.565-1.2 3.939 3.939 0 0 1-.437-1.5l-.358-2.507a14.608 14.608 0 0 1 .115-2.557.741.741 0 0 0-.147-.555.6.6 0 0 0-.44-.14c-1.006.018-1.615 1.074-2.321 1.791a4.3 4.3 0 0 1-1.433.96c-.645.265-1.433.451-1.7 1.1-.107.269-.093.573-.208.842-.451 1.074-2.374.716-2.865 1.791-.14.3-.129.677-.358.913s-.659.233-1.014.29c-1.4.229-2.077 1.844-3.273 2.607-1.006.645-2.3.63-3.388 1.132a12.871 12.871 0 0 1-1.773.9 8.375 8.375 0 0 1-2.041.1.533.533 0 0 0-.4.132.541.541 0 0 0-.068.444 12.342 12.342 0 0 0 7.625 9.555 2.55 2.55 0 0 1 .652.315c.609.455.716 1.433 1.408 1.755a1.433 1.433 0 0 0 1.465-.315 13.168 13.168 0 0 0 1.074-1.167 4.208 4.208 0 0 1 2.36-1.243 5.189 5.189 0 0 0 2.432-.548 7.537 7.537 0 0 0 .766-.817 4.814 4.814 0 0 1 1.737-1.039 17.756 17.756 0 0 1 5.526-1.214 19.276 19.276 0 0 0 5.25-.509 3.164 3.164 0 0 0 1.171-.663 3.52 3.52 0 0 0 .781-1.357 10.387 10.387 0 0 0 .338-5.473z" class="cls-14" data-name="Path 372" transform="translate(-173.25 -399.152)"/>
        <path id="Path_373" d="M323.958 573.987c.494-.047.992 0 1.49 0 .584 0 1.16-.143 1.744-.147a4.337 4.337 0 0 1 4.09 3.112.806.806 0 0 1 .025.441.312.312 0 0 1-.337.229 7.426 7.426 0 0 0-.756-1.508 4.237 4.237 0 0 0-2.249-1.569 5.824 5.824 0 0 0-2.765-.1c-.383.072-.756.172-1.128.276l-1.791.494c-.329.09-.663.179-.981.3-.247.093-.67.433-.913.448-.329 0-.064-.287.082-.48a2.382 2.382 0 0 1 1.171-.852 10.147 10.147 0 0 1 2.318-.644z" class="cls-14" data-name="Path 373" transform="translate(-209.525 -399.618)"/>
        <path id="Path_374" d="M335.873 598.607c.433 1.39.867 2.783 1.411 4.133a34.955 34.955 0 0 0 3.657 6.665 48.376 48.376 0 0 0 3.023 3.961c1.343 1.587 2.844 3.184 3.324 5.207a26.692 26.692 0 0 1 .3 3.581 4.4 4.4 0 0 0 1.472 3.18 5.494 5.494 0 0 0 2.428.8c.605.1 1.365.129 1.683-.4a1.59 1.59 0 0 0 .168-.695l.143-1.751c.032-.38.168-.863.544-.881s.573.487.9.716a.971.971 0 0 0 1.311-.455 2.228 2.228 0 0 0 .036-1.54 7.317 7.317 0 0 0-3.75-4.656 10.928 10.928 0 0 1-1.83-.949 6.2 6.2 0 0 1-1.433-1.816c-3.327-5.469-6.669-10.97-9.011-16.93a12.631 12.631 0 0 1-.931-3.334 21.924 21.924 0 0 1 .147-3.524 20.055 20.055 0 0 0-.58-6.278 4.939 4.939 0 0 0-.6-1.526 3.4 3.4 0 0 0-4.656-.673 4.8 4.8 0 0 0-1.859 3.392c-.1 1.189.584 2.421.928 3.528q1.577 5.13 3.175 10.245z" class="cls-23" data-name="Path 374" transform="translate(-216.92 -404.099)"/>
        <path id="Path_375" d="M356.757 534.73c.054-.559-.448-1.074-1.017-1.433a13.474 13.474 0 0 1-1.723-1.053c-.509-.44-.788-1.014-1.3-1.454a5.762 5.762 0 0 0-1.934-.963 14.725 14.725 0 0 0-4.623-.827 8.031 8.031 0 0 0-4.423 1.171 2.62 2.62 0 0 0-.752.716 3.073 3.073 0 0 0-.358 1.11 21.91 21.91 0 0 1-1.157 3.513 8.178 8.178 0 0 1-2.2 3.553c-1.254 1.042-3.17 1.644-4 2.9a.931.931 0 0 0-.183.813c.118.319.5.537.849.738a11.5 11.5 0 0 1 4.692 4.491 5.212 5.212 0 0 1-.408 5.6c-.473.616-1.125 1.347-.663 1.966.716.942 3.112.4 3.671 1.4a2.032 2.032 0 0 1 .072 1.028c0 1.046 1.006 1.973 2.228 2.457a12.542 12.542 0 0 0 4.011.659 3.5 3.5 0 0 0 .1-2.6 1.046 1.046 0 0 1-.1-.591 1.433 1.433 0 0 1 .462-.566c1.468-1.39 1.157-3.431.276-5.082s-2.256-3.159-2.768-4.9a2.525 2.525 0 0 1 .43-2.55 8.617 8.617 0 0 1 1.264-.92 4.777 4.777 0 0 0 1.769-2.221c.412-1.143.358-2.507 1.554-3.277 1.15-.716 2.765-.508 4.036-1a4.319 4.319 0 0 0 2.195-2.678z" class="cls-13" data-name="Path 375" transform="translate(-217.763 -370.837)"/>
        <path id="Path_376" d="M567.17 660.721c-5.462-2.26-7.066-3.893-7.066-7.163 0-2.507 1.1-5.4 5.938-5.4a13.634 13.634 0 0 1 7.55 2.149l1.572-4.158a16.674 16.674 0 0 0-8.162-2.2v-6.089h-3.177v6.34c-5.777.942-9.122 4.9-9.122 10.107 0 5.462 3.223 8.352 9.641 10.863 4.649 1.895 7.081 4.029 7.081 7.482 0 3.581-3.012 6.153-7.471 6.153a19.378 19.378 0 0 1-9.756-2.7l-1.508 4.2a18.284 18.284 0 0 0 9.605 2.765v6.339h5.4v-6.529c6.447-1.074 9.917-5.73 9.917-10.673.005-5.584-3.974-8.85-10.442-11.486z" class="cls-25" data-name="Path 376" transform="translate(-358.731 -440.709)"/>
        <path id="Path_377" d="M562.336 685.431v-6.339a18.284 18.284 0 0 1-9.606-2.765l1.508-4.2a19.377 19.377 0 0 0 9.756 2.7c4.459 0 7.457-2.571 7.457-6.153 0-3.453-2.446-5.587-7.095-7.471-6.4-2.507-9.641-5.4-9.641-10.863 0-5.211 3.345-9.165 9.122-10.107v-6.343h3.177v6.089a16.713 16.713 0 0 1 8.162 2.2l-1.572 4.14a13.634 13.634 0 0 0-7.55-2.149c-4.835 0-5.938 2.89-5.938 5.4 0 3.263 1.6 4.9 7.066 7.163 6.468 2.636 10.447 5.9 10.447 11.489 0 4.96-3.453 9.606-9.917 10.673v6.536z" class="cls-14" data-name="Path 377" transform="translate(-358.756 -438.161)"/>
    </g>
</svg>
