<svg xmlns="http://www.w3.org/2000/svg" id="mail-send" width="31.3" height="15.867" viewBox="0 0 31.3 15.867">
    <defs>
        <style>
            .cls-1{fill:#fff}
        </style>
    </defs>
    <path id="Path_378" d="M74.712 101.114l.035-.009.03-.008.033-.012.029-.011.031-.014.03-.014.028-.017.029-.018.029-.021.024-.018a.514.514 0 0 0 .042-.038l.008-.007.007-.008a.514.514 0 0 0 .038-.042l.02-.026.02-.027.019-.031.015-.026c.006-.01.01-.021.015-.032l.013-.028c0-.01.008-.021.012-.032l.011-.031.008-.032.008-.032c.002-.011 0-.026.006-.038s0-.018 0-.027a.676.676 0 0 0 0-.068V85.939a.679.679 0 0 0-.679-.679H53.11l-.035.005-.032.007-.032.008-.031.01-.032.012-.029.012-.032.015-.026.014-.031.019-.025.017-.028.021-.025.021-.024.022-.026.027-.013.013-.007.008-.024.031-.017.023-.02.031-.016.026-.016.031-.014.029c0 .01-.008.021-.012.031l-.011.031-.009.032-.008.033c-.002.011 0 .021-.006.031s0 .024-.005.035 0 .02 0 .03v4.235a.679.679 0 1 0 1.358 0v-2.674l6.035 5.343a.686.686 0 0 0-.09.075l-5.945 5.945v-4.461a.679.679 0 1 0-1.358 0v.829h-3.512a.679.679 0 0 0 0 1.358h3.507v3.913a.679.679 0 0 0 .679.679h21.479zm-.811-2.3l-5.945-5.945-.012-.011 4.469-3.792a.679.679 0 1 0-.878-1.035L63.9 94.506l-8.91-7.888H73.9zm-13.119-4.99a.676.676 0 0 0 .118-.16l2.539 2.248a.679.679 0 0 0 .889.009l2.587-2.2a.682.682 0 0 0 .081.1l5.945 5.945h-18.1z" class="cls-1" data-name="Path 378" transform="translate(-43.959 -85.26)"/>
    <path id="Path_379" d="M.679 157.034h11.464a.679.679 0 1 0 0-1.358H.679a.679.679 0 1 0 0 1.358z" class="cls-1" data-name="Path 379" transform="translate(0 -149.303)"/>
    <path id="Path_380" d="M13.8 115.7h5.147a.679.679 0 0 0 0-1.358H13.8a.679.679 0 0 0 0 1.358z" class="cls-1" data-name="Path 380" transform="translate(-11.937 -111.713)"/>
    <path id="Path_381" d="M5.657 226.51H.679a.679.679 0 1 0 0 1.358h4.978a.679.679 0 1 0 0-1.358z" class="cls-1" data-name="Path 381" transform="translate(0 -213.726)"/>
</svg>
