<svg xmlns="http://www.w3.org/2000/svg" width="29.2" height="36.5" viewBox="0 0 29.2 36.5">
    <defs>
        <style>
            .cls-1{fill:#1e1e1e}
        </style>
    </defs>
    <path id="cart" d="M31.375 11.125H25.9V9.3a7.3 7.3 0 0 0-14.6 0v1.825H5.825A1.825 1.825 0 0 0 4 12.95v20.075A5.475 5.475 0 0 0 9.475 38.5h18.25a5.475 5.475 0 0 0 5.475-5.475V12.95a1.825 1.825 0 0 0-1.825-1.825zM14.95 9.3a3.65 3.65 0 0 1 7.3 0v1.825h-7.3zm14.6 23.725a1.825 1.825 0 0 1-1.825 1.825H9.475a1.825 1.825 0 0 1-1.825-1.825v-18.25h3.65V16.6a1.825 1.825 0 0 0 3.65 0v-1.825h7.3V16.6a1.825 1.825 0 0 0 3.65 0v-1.825h3.65z" class="cls-1" transform="translate(-4 -2)"/>
</svg>
