<svg xmlns="http://www.w3.org/2000/svg" width="12.792" height="16" viewBox="0 0 12.792 16">
    <defs>
        <style>
            .cls-1{fill:#0094d1}
        </style>
    </defs>
    <path id="file-exclamation-alt" d="M8 8.4h.8a.8.8 0 1 0 0-1.6H8a.8.8 0 1 0 0 1.6zm4.8 1.6H8a.8.8 0 0 0 0 1.6h4.8a.8.8 0 0 0 0-1.6zm0 3.2H8a.8.8 0 1 0 0 1.6h4.8a.8.8 0 0 0 0-1.6zm3.766 3.43a1.264 1.264 0 0 0-.12-.1.608.608 0 0 0-.144-.072l-.144-.064a.8.8 0 0 0-.464.048.72.72 0 0 0-.432.432.672.672 0 0 0-.064.32.8.8 0 1 0 1.535-.3.919.919 0 0 0-.168-.264zm.232-9.075a1.047 1.047 0 0 0-.048-.216v-.078a.856.856 0 0 0-.152-.224l-4.8-4.8a.856.856 0 0 0-.224-.152.256.256 0 0 0-.072 0A.7.7 0 0 0 11.236 2H6.4A2.4 2.4 0 0 0 4 4.4v11.192a2.4 2.4 0 0 0 2.4 2.4h6.4a.8.8 0 1 0 0-1.6H6.4a.8.8 0 0 1-.8-.8V4.4a.8.8 0 0 1 .8-.8h4V6a2.4 2.4 0 0 0 2.4 2.4h2.4V10a.8.8 0 0 0 1.6 0V7.549zm-4-.752A.8.8 0 0 1 12 6V4.726L14.066 6.8zm3.2 5.6a.8.8 0 0 0-.8.8v1.6a.8.8 0 1 0 1.6 0v-1.6a.8.8 0 0 0-.805-.809z" class="cls-1" transform="translate(-4 -2)"/>
</svg>
