<svg xmlns="http://www.w3.org/2000/svg" width="12.9" height="16.125" viewBox="0 0 12.9 16.125">
    <defs>
        <style>
            .cls-1{opacity:.7}
        </style>
    </defs>
    <path id="map-marker" d="M10.45 2A6.45 6.45 0 0 0 4 8.45c0 4.354 5.684 9.272 5.926 9.481a.806.806 0 0 0 1.048 0c.282-.21 5.926-5.128 5.926-9.481A6.45 6.45 0 0 0 10.45 2zm0 14.23c-1.717-1.612-4.837-5.087-4.837-7.78a4.837 4.837 0 0 1 9.675 0c-.001 2.693-3.121 6.176-4.838 7.78zm0-11.005a3.225 3.225 0 1 0 3.225 3.225 3.225 3.225 0 0 0-3.225-3.225zm0 4.837a1.612 1.612 0 1 1 1.612-1.612 1.612 1.612 0 0 1-1.612 1.612z" class="cls-1" transform="translate(-4 -2)"/>
</svg>
