<svg xmlns="http://www.w3.org/2000/svg" width="272.668" height="313.413" viewBox="0 0 272.668 313.413">
    <defs>
        <style>
            .cls-1{fill:#effbff}.cls-2{fill:#ebfaff}.cls-3{fill:#91c7f6}.cls-4{fill:#8e6db5}.cls-5{fill:#4d8bd7}.cls-6{fill:#f9cc3d}.cls-7{fill:gray}.cls-8{fill:#ccc}.cls-9{fill:#f4b092}.cls-10{fill:#e59177}.cls-11{fill:#30322e}.cls-12{fill:#7a6fc6}.cls-13{fill:#846ae1}.cls-14{fill:#5033d7}.cls-15{fill:#94a3e3}.cls-16{fill:#9384d8}.cls-17{fill:#ffdaa9}.cls-18{fill:#ffe8cc;mix-blend-mode:overlay;isolation:isolate}.cls-19{fill:#fbb03b}.cls-20{fill:#b3b3b3}
        </style>
    </defs>
    <g id="Group_1561" data-name="Group 1561" transform="translate(-4608 -755)">
        <path id="Path_1241" d="M258.263 123.668c-20.748-31.122-56.485-52.468-65.137-37.474s0 28.242 0 48.517-28.242 12.583-37.991 2.635c-16.056-16.33-61.222-44.8-88.23-31.548-23.4 11.486 0 49 12.369 65.853s-2.011 36.255-31.3 29.765S-4.02 207.83.6 225.318s25.089 32.1 25.089 32.1h225.658c26.521-27.667 27.678-102.618 6.916-133.75z" class="cls-1" data-name="Path 1241" transform="translate(4608.003 797.54)"/>
        <path id="Path_1242" d="M110.863 114.355c-7.617-5.042-24.876-16.147-31.73-20.747S80.2 74.566 99.85 77.461s23 18.447 25.652 28.821-6.26 13.648-14.639 8.073z" class="cls-2" data-name="Path 1242" transform="translate(4648.146 795.337)"/>
        <path id="Path_1243" d="M76.569 218.566c.579 0 14.913-3.884 13.634-17.533s-11.044-15.675-10.755-31.121 6.093-20.687-9.871-29.659c0 0-7.038-3.519-8.226-9.7-1.417-7.388-15.507-14.2-23.428-8S33.14 136.14 42.295 147.5s2.361 14.548 1.523 18.767-3.534 8.9 5.377 17.427 1.6 21.524 9.338 29.8a25.028 25.028 0 0 0 18.036 5.072z" class="cls-3" data-name="Path 1243" transform="translate(4625.484 817.865)"/>
        <path id="Path_1244" d="M261.6 197.621H3.412a.533.533 0 0 1 0-1.051H261.6a.533.533 0 0 1 0 1.051z" class="cls-4" data-name="Path 1244" transform="translate(4609.559 857.866)"/>
        <path id="Path_1245" d="M201.044 201.874H33.084a.533.533 0 1 1 0-1.051h167.96a.533.533 0 0 1 0 1.051z" class="cls-4" data-name="Path 1245" transform="translate(4624.992 860.088)"/>
        <path id="Path_1246" d="M163.1 206.1H51.532a.533.533 0 0 1 0-1.051H163.1a.533.533 0 1 1 0 1.051z" class="cls-4" data-name="Path 1246" transform="translate(4634.74 862.301)"/>
        <path id="Path_1247" d="M162.247 201.874h-14.273a.533.533 0 1 1 0-1.051h14.273a.533.533 0 1 1 0 1.051z" class="cls-4" data-name="Path 1247" transform="translate(4685.114 860.088)"/>
        <path id="Path_1248" d="M30.785 201.874H15.994a.533.533 0 1 1 0-1.051h14.791a.533.533 0 1 1 0 1.051z" class="cls-5" data-name="Path 1248" transform="translate(4616.048 860.088)"/>
        <path id="Path_1249" d="M55.885 30.786S50.416 17.7 55.885 0a58.48 58.48 0 0 1 0 30.786z" class="cls-6" data-name="Path 1249" transform="translate(4635.978 755)"/>
        <path id="Path_1250" d="M55.885 100.866s-5.469-13.085 0-30.786a58.48 58.48 0 0 1 0 30.786z" class="cls-6" data-name="Path 1250" transform="translate(4635.978 791.673)"/>
        <path id="Path_1251" d="M72.68 32.895S75.483 22.354 88.4 17.22a30.877 30.877 0 0 1-15.72 15.675z" class="cls-6" data-name="Path 1251" transform="translate(4646.038 764.011)"/>
        <path id="Path_1252" d="M42.8 62.78s-2.788 10.541-15.66 15.66A30.877 30.877 0 0 1 42.8 62.78z" class="cls-6" data-name="Path 1252" transform="translate(4622.208 787.853)"/>
        <path id="Path_1253" d="M79.85 46.115s13.085-5.469 30.786 0a58.48 58.48 0 0 1-30.786 0z" class="cls-6" data-name="Path 1253" transform="translate(4649.791 777.86)"/>
        <path id="Path_1254" d="M9.77 46.115s13.085-5.469 30.786 0a58.48 58.48 0 0 1-30.786 0z" class="cls-6" data-name="Path 1254" transform="translate(4613.117 777.86)"/>
        <path id="Path_1255" d="M42.8 32.89s-2.788-10.542-15.66-15.66A30.877 30.877 0 0 0 42.8 32.89z" class="cls-6" data-name="Path 1255" transform="translate(4622.208 764.017)"/>
        <path id="Path_1256" d="M72.68 62.78s2.8 10.526 15.721 15.66A30.877 30.877 0 0 0 72.68 62.78z" class="cls-6" data-name="Path 1256" transform="translate(4646.038 787.853)"/>
        <path id="Path_1257" d="M52.07 74s.564 4.28 10.435 4.28S72.939 74 72.939 74z" class="cls-7" data-name="Path 1257" transform="translate(4635.253 793.725)"/>
        <path id="Path_1258" d="M76.673 78.129a3.2 3.2 0 0 0 1.66-2.544 2.91 2.91 0 0 0-2.97-2.925H46.42a2.91 2.91 0 0 0-2.97 2.925 3.2 3.2 0 0 0 1.66 2.544s-2.513 2 .731 4.067c0 0-2.422 1.828.67 3.732 0 0-2.346 1.691.625 3.443a37.991 37.991 0 0 0 13.71 2.087 37.992 37.992 0 0 0 13.786-2.072c2.97-1.752.625-3.443.625-3.443 3.047-1.9.67-3.732.67-3.732 3.26-2.087.746-4.082.746-4.082z" class="cls-8" data-name="Path 1258" transform="translate(4630.742 793.023)"/>
        <path id="Path_1259" d="M148.209 82.161a10.663 10.663 0 0 0-5.484 1.219c-1.813-.96-4.57 1.63-5.179 3.519-1.158 3.808-15.233 19.026-15.233 19.026A103.039 103.039 0 0 1 117.94 90.1a19.376 19.376 0 0 0-6.779-11.928l-3.381 15.414s7.617 21.89 9.917 23.992 4.006 3.047 5.575.381 16.132-25.9 17.274-27.42A18.9 18.9 0 0 1 149.64 84c3.047-.834 1.052-1.519-1.431-1.839z" class="cls-9" data-name="Path 1259" transform="translate(4664.406 795.907)"/>
        <path id="Path_1260" d="M119.037 118.659c-4.006-5.5-3.336-13.786-3.047-17.183a40.7 40.7 0 0 0-4.829-23.307l-3.381 15.417s7.617 21.89 9.917 23.992a16.347 16.347 0 0 0 1.341 1.082z" class="cls-10" data-name="Path 1260" transform="translate(4664.406 795.907)"/>
        <path id="Path_1261" d="M97.137 198.85s-2 2.041-3.747 4.265c-.457.579-1.645 2.5-.122 2.651a27.176 27.176 0 0 0 5.941-.3 3.047 3.047 0 0 0 2.544-2.849l-.487-2.894-.5-.487z" class="cls-11" data-name="Path 1261" transform="translate(4656.419 859.059)"/>
        <path id="Path_1262" d="M104.586 198.85s2 2.041 3.747 4.265c.457.579 1.645 2.5.122 2.651a27.176 27.176 0 0 1-5.941-.3 3.047 3.047 0 0 1-2.544-2.849l.487-2.894.5-.487z" class="cls-11" data-name="Path 1262" transform="translate(4660.319 859.059)"/>
        <path id="Path_1263" d="M83 148.878a33.071 33.071 0 0 0 20.732 1.051c8.119-2.133 25.363 5.758 32.4-2.133.016.004-41.326-14.227-53.132 1.082z" class="cls-12" data-name="Path 1263" transform="translate(4651.439 829.195)"/>
        <path id="Path_1264" d="M117.507 138.12a394.845 394.845 0 0 0-8.47 49.05c-1.752 18.463-3.717 44.176-3.717 44.176a2.087 2.087 0 0 1-1.234.381 4.007 4.007 0 0 1-1.523-.35s-4.052-15.568-2.513-45.3-2.3-48.3-2.3-48.3z" class="cls-9" data-name="Path 1264" transform="translate(4659.158 827.096)"/>
        <path id="Path_1265" d="M91.39 134.33s1.356 34.625 2.3 52.4 4.25 46.461 4.25 46.461a3.2 3.2 0 0 0 1.615.4 2.574 2.574 0 0 0 1.523-.4s3.808-26.643 4.052-46.826 6.261-48.3 6.261-48.3z" class="cls-9" data-name="Path 1265" transform="translate(4655.829 825.296)"/>
        <path id="Path_1266" d="M112.432 49.748c-4.448-6.337-19.27-7.723-22.316 6s15.4 19.8 22.057 8.424c3.227-5.649 2.514-11.24.259-14.424z" class="cls-13" data-name="Path 1266" transform="translate(4654.986 778.614)"/>
        <path id="Path_1267" d="M118.957 52.956c-6.733-7.738-28.135-10.252-31.913 6.017s23.2 24.527 32.111 11.227c4.57-6.6 3.214-13.314-.198-17.244z" class="cls-14" data-name="Path 1267" transform="translate(4653.366 779.55)"/>
        <path id="Path_1268" d="M121.037 70.158c-.137-7.784-2.072-19.5-11.669-20.7s-18.8 5.469-20.443 29.43-7.251 34.914-5.849 49.858 15.4 17.975 20 11.547 7.22 8.789 14.151.381 4.45-34.642 3.81-70.516z" class="cls-11" data-name="Path 1268" transform="translate(4651.362 780.81)"/>
        <path id="Path_1269" d="M119.809 84.147a77.686 77.686 0 0 0-7.449-3.184c-9.643-3.808-4.265-15.233-4.265-15.233l-9.018 1.523S101.955 78.175 95.6 83.2c-2.087 1.66-6.093 4.235-6.093 4.235s4.57 30.344 5.5 48.365 29.25-49.292 24.802-51.653z" class="cls-9" data-name="Path 1269" transform="translate(4654.846 789.397)"/>
        <path id="Path_1270" d="M107.285 89.148c-9.14-1.706-10.8-5.134-8.287-7.464s-.99-9.292 3.047-6.291a3.047 3.047 0 0 0 4.692-.5 16.254 16.254 0 0 1 1.234-9.14l-3.884.655a37.641 37.641 0 0 0-4.722 3.047c.472 3.458.67 10.084-3.884 13.71-1.767 1.4-4.936 3.473-5.849 4.067 6.655 4.536 26.229 3.5 17.653 1.916z" class="cls-10" data-name="Path 1270" transform="translate(4654.908 789.407)"/>
        <path id="Path_1271" d="M112.343 61.23c1.158 5.56-3.473 18.539-9.871 20.016S90.453 66.5 92.235 59.661s16.985-13.511 20.108 1.569z" class="cls-9" data-name="Path 1271" transform="translate(4656.097 782.274)"/>
        <path id="Path_1272" d="M121.083 77.15s-9.764 8.272-24.495 1.889L92.9 81.491s3.5 9.14.944 22.423A57.886 57.886 0 0 1 96.5 125.5c-.655 12.6-4.265 14.791-8.47 30.161A166.466 166.466 0 0 0 83 182.7a42.9 42.9 0 0 1 18.432 2.864c7.419 2.772 13.953 4.433 22.5-.426 3.732-2.133 8.439-5.606 12.186-3.534 0 0 6.337-5.1 0-31.761-2.438-10.283-12.446-24.374-8.718-47.843 1.9-11.79-3.275-23.291-3.275-23.291s-1.112-.746-1.523-.96-1.519-.599-1.519-.599z" class="cls-15" data-name="Path 1272" transform="translate(4651.439 795.373)"/>
        <path id="Path_1273" d="M92.537 78.01c.381 1.28 2.1-9.338 6.444-12.186s7.144-1.523 9.688-5.728c0 0 5.453 7.22 5.651 14.075 0 0 2.315-17.579-6.718-22.042S86.047 56.425 92.537 78.01z" class="cls-11" data-name="Path 1273" transform="translate(4655.49 781.687)"/>
        <path id="Path_1274" d="M112.517 123.73s-1.142 24.784-7.617 39.85a23 23 0 0 0 7.617-2.818s2.883-23.703 0-37.032z" class="cls-16" data-name="Path 1274" transform="translate(4662.899 819.749)"/>
        <path id="Path_1275" d="M90.535 152.329c4.022-9.505 4.448-21.631 2.407-13.71a42.119 42.119 0 0 1-6.322 13.192c1.173.138 2.48.289 3.915.518z" class="cls-16" data-name="Path 1275" transform="translate(4653.333 826.201)"/>
        <path id="Path_1276" d="M97.72 62.723c-2.056 1.341-3.534 4.418-4.57 7.16.152.411.3.838.487 1.249.975-3.686 2.772-6.611 5.53-7.723 8.226-3.306 8.226-6.428 8.226-6.428-2.529 4.203-5.332 2.919-9.673 5.742z" class="cls-10" data-name="Path 1276" transform="translate(4656.75 784.818)"/>
        <path id="Path_1277" d="M66.6 22.7c-17.979 0-36.457 13.71-33.9 36.681 1.935 17.411 16.665 23 18.356 38.083a3.991 3.991 0 0 0 2.849 3.4 35.462 35.462 0 0 0 12.674 1.8 35.462 35.462 0 0 0 12.674-1.8 3.991 3.991 0 0 0 2.849-3.4c1.691-15.142 15.69-19.178 18.356-38.083C103.718 36.516 84.586 22.7 66.6 22.7z" class="cls-17" data-name="Path 1277" transform="translate(4624.993 766.879)"/>
        <path id="Path_1278" d="M44.71 75.127c-3.945-5.423-7.875-10.389-8.729-18.036a26.643 26.643 0 0 1 6.352-21.326A30.573 30.573 0 0 1 64.894 26a31.38 31.38 0 0 1 23.184 10.206c4.89 5.621-17.625-4.159-31.883 7.921-18.523 15.614-2.924 42.805-11.485 31z" class="cls-18" data-name="Path 1278" transform="translate(4626.695 768.606)"/>
        <path id="Path_1279" d="M65.99 90.7l1.325-.168c1.523-6.261 6.093-24.891 8.18-37.824.487-2.894 0-5.21-1.523-6.367a3.047 3.047 0 0 0-3.047-.427 4.2 4.2 0 0 0-1.1.67A3.9 3.9 0 0 0 66.508 45a5.088 5.088 0 0 0-3.427 1.8 3.778 3.778 0 0 0-3.047-1.523 5.073 5.073 0 0 0-3.275 1.645 3.976 3.976 0 0 0-3.473-1.615 5.149 5.149 0 0 0-2.94 1.386 3.336 3.336 0 0 0-.518-.274 2.772 2.772 0 0 0-2.864.427c-1.63 1.295-2.3 4.174-1.737 7.525 1.189 7.387 5.973 29.871 7.373 36.193l1.325.183c-1.325-5.636-6.246-29.08-7.51-36.605-.579-3.473.335-5.591 1.28-6.337a1.523 1.523 0 0 1 1.6-.244h.122a8.713 8.713 0 0 0-1.935 5.21c0 3.412.853 6.093 2.331 6.84a1.813 1.813 0 0 0 1.919-.076c1.268-.854 1.828-3.235 1.523-6.369a10.739 10.739 0 0 0-2-5.7 3.823 3.823 0 0 1 2.1-.944 2.849 2.849 0 0 1 2.529 1.341 12 12 0 0 0-2.163 6.672c-.091 2.437.716 4.463 2.041 5.164a1.889 1.889 0 0 0 2.056-.122c1.31-.96 1.737-3.458 1.127-6.87a15.081 15.081 0 0 0-1.523-4.783 3.976 3.976 0 0 1 2.62-1.4 2.574 2.574 0 0 1 2.224 1.28 12.918 12.918 0 0 0-2.056 5.789c-.35 3.306.122 5.621 1.31 6.352a1.523 1.523 0 0 0 1.63 0c1.127-.716 2.254-3.214 1.721-7.921a12.187 12.187 0 0 0-1.127-4.159 4.128 4.128 0 0 1 2.788-1.63 2.788 2.788 0 0 1 2.391 1.356 12.187 12.187 0 0 0-2.117 5.819c-.442 3.427 0 5.85 1.356 6.642a1.66 1.66 0 0 0 1.889-.122c1.447-1.021 2.437-4.265 1.4-9.231a11.714 11.714 0 0 0-.99-2.955 3.046 3.046 0 0 1 .9-.579 1.721 1.721 0 0 1 1.813.244c1.051.853 1.523 2.788 1.051 5.179-2.172 13.207-6.833 32.446-8.235 38.112zm-14-37.4c.32 2.94-.244 4.722-.944 5.194a.564.564 0 0 1-.625 0c-.64-.35-1.721-1.95-1.676-5.728a7.51 7.51 0 0 1 1.63-4.418 9.917 9.917 0 0 1 1.616 4.952zm5.743-.4c.594 3.4 0 5.164-.64 5.636a.64.64 0 0 1-.746 0c-.716-.381-1.523-1.813-1.386-4.022a11.166 11.166 0 0 1 1.615-5.545 15.233 15.233 0 0 1 1.158 3.93zm4.783 5.956c-.152.091-.229 0-.289 0-.411-.259-1.1-1.676-.731-5.164A11.973 11.973 0 0 1 62.943 49a12.567 12.567 0 0 1 .716 3.047c.472 4.159-.4 6.367-1.142 6.809zm6.84 0c-.289.2-.457.107-.518 0-.472-.289-1.234-1.782-.762-5.408A11.531 11.531 0 0 1 69.6 48.7a11.593 11.593 0 0 1 .655 2.148c.99 4.722-.03 7.418-.9 8.028z" class="cls-19" data-name="Path 1279" transform="translate(4631.57 778.547)"/>
        <path id="Path_1280" d="M64.776 38.038c5.088-1.737 15.781 0 17.031 6.261S79.7 57.217 71.813 60.37c-13.161 5.255-24.372-16.391-7.037-22.332z" class="cls-18" data-name="Path 1280" transform="translate(4637.263 774.573)"/>
        <path id="Path_1281" d="M59.779 70.493a23.139 23.139 0 0 0 11.516-3.047c2.5-1.523 1.051 8.043-11.836 8.043S44.088 67.127 47.47 68.68s8.668 1.813 12.309 1.813z" class="cls-18" data-name="Path 1281" transform="translate(4632.13 790.209)"/>
        <path id="Path_1282" d="M74.816 76.25A54.839 54.839 0 0 1 47 77.042a37.473 37.473 0 0 0 27.816-.792z" class="cls-20" data-name="Path 1282" transform="translate(4632.6 794.902)"/>
        <path id="Path_1283" d="M73.949 78.92a50.863 50.863 0 0 1-26.719.807 34.838 34.838 0 0 0 26.719-.807z" class="cls-20" data-name="Path 1283" transform="translate(4632.721 796.299)"/>
        <path id="Path_1284" d="M72.876 81.38A44.176 44.176 0 0 1 48 82.172a30.314 30.314 0 0 0 24.876-.792z" class="cls-20" data-name="Path 1284" transform="translate(4633.124 797.587)"/>
        <path id="Path_1285" d="M45.65 73.69s3.808 3.275 14.319 3.275 14.136-3.6 14.136-3.6a39.9 39.9 0 0 1-28.455.32z" class="cls-6" data-name="Path 1285" transform="translate(4631.893 793.395)"/>
        <path id="Path_1286" d="M91.817 117.245C97.91 115.006 109.99 96.3 109.99 96.3l-18.28 9.14a64.692 64.692 0 0 1 .244 9.932c-.046.716-.092 1.295-.137 1.873z" class="cls-16" data-name="Path 1286" transform="translate(4655.997 805.394)"/>
        <path id="Path_1287" d="M91.445 80s-9.033 5.316-4.28 18.63c2.544 7.114 2.346 15.05 4.57 20.031.99 2.239 3.321 4.067 7.617 0S119.84 97.609 122.2 96.345s5.408-.823 6.261-8.531c0 0 1.645-1.4 3.047-2.666 1.813-1.615 2-2.468-1.325-.853-2.681 1.31-5.9 3.336-5.9 3.336a12.78 12.78 0 0 0 .64-3.047c.122-2.239-.975-1.158-1.98 1.523s-1.9 2.5-4.326 5.971c-5.088 7.266-18.478 15.218-20.763 16.741 0 0-3.047-12.4-3.275-16.893S93.73 83.184 91.445 80z" class="cls-9" data-name="Path 1287" transform="translate(4652.895 796.864)"/>
        <path id="Path_1288" d="M93.513 93.5c0-.579-.122-1.127-.137-1.523-.168-4.57-.777-8.744-3.138-11.958a10.846 10.846 0 0 0-2.148 1.858c4.159 3.505 5.423 11.623 5.423 11.623z" class="cls-10" data-name="Path 1288" transform="translate(4654.103 796.875)"/>
        <path id="Path_1289" d="M69.581 229.945h1.249c1.127-42.531-22.3-95.237-22.545-95.846a.625.625 0 0 0-1.127.5c.242.611 23.565 53.165 22.423 95.346z" class="cls-4" data-name="Path 1289" transform="translate(4632.671 825.025)"/>
        <path id="Path_1290" d="M53.011 153.75H52.9a.625.625 0 0 1-.427-.762 83.447 83.447 0 0 0 2.67-14.288.625.625 0 0 1 1.234.091 84.742 84.742 0 0 1-2.712 14.548.625.625 0 0 1-.655.411z" class="cls-4" data-name="Path 1290" transform="translate(4635.455 827.324)"/>
        <path id="Path_1291" d="M59.734 158.89a.609.609 0 0 1-.259-.091c-3.458-2.117-11.927-5.819-12.019-5.865a.625.625 0 1 1 .5-1.142c.35.152 8.637 3.778 12.186 5.941a.625.625 0 0 1-.4 1.142z" class="cls-4" data-name="Path 1291" transform="translate(4632.632 834.4)"/>
        <path id="Path_1292" d="M57.864 167.846h-.137a.625.625 0 0 1-.4-.792l3.047-9.14a.625.625 0 1 1 1.173.4l-3.047 9.14a.625.625 0 0 1-.64.4z" class="cls-4" data-name="Path 1292" transform="translate(4637.989 837.373)"/>
    </g>
</svg>
