<svg xmlns="http://www.w3.org/2000/svg" width="17.078" height="13.215" viewBox="0 0 17.078 13.215">
    <defs>
        <style>
            .cls-1{opacity:.7}
        </style>
    </defs>
    <path id="users-alt" d="M9.784 10.278a3.824 3.824 0 0 0 1.321-2.892 3.887 3.887 0 0 0-7.773 0 3.824 3.824 0 0 0 1.321 2.892A6.219 6.219 0 0 0 1 15.937a.777.777 0 0 0 1.555 0 4.664 4.664 0 1 1 9.328 0 .777.777 0 0 0 1.555 0 6.219 6.219 0 0 0-3.653-5.659zm-2.565-.56a2.332 2.332 0 1 1 2.332-2.331 2.332 2.332 0 0 1-2.332 2.332zm7.571.249A3.887 3.887 0 0 0 11.883 3.5a.777.777 0 0 0 0 1.555A2.328 2.328 0 0 1 13.049 9.4a.776.776 0 0 0-.039 1.321l.3.2.1.054a5.441 5.441 0 0 1 3.109 4.959.777.777 0 0 0 1.555 0 7 7 0 0 0-3.284-5.967z" class="cls-1" transform="translate(-1 -3.5)"/>
</svg>
