<svg xmlns="http://www.w3.org/2000/svg" width="256.002" height="177.895" viewBox="0 0 256.002 177.895">
    <defs>
        <style>
            .cls-1{fill:#effbff}.cls-2{fill:#94a3e3}.cls-3{fill:#948add}.cls-4{fill:#8e6db5}.cls-5{fill:#91c7f6}.cls-6{fill:#9384d8}.cls-7{fill:#5033d7}.cls-8{fill:#000085}.cls-9{fill:#919fff}.cls-10{fill:#898eff}.cls-11{fill:#3a23ca}.cls-12{fill:#3a27c8}.cls-13{fill:#846ae1}.cls-14{fill:#6753e1}.cls-15{fill:#563acb}.cls-16{fill:#3f27cf}.cls-17{fill:#2e15bf}.cls-18{fill:#7bcaff}.cls-19{fill:#61b0ff}.cls-20{opacity:.55}.cls-21{fill:#ccc}
        </style>
    </defs>
    <g id="Asset_6" data-name="Asset 6" transform="translate(.002 -42.133)">
        <g id="Layer_2" data-name="Layer 2" transform="translate(-.002 42.133)">
            <g id="Layer_3" data-name="Layer 3">
                <path id="Path_1293" d="M256.257 113.1c-5.514-5.358-12.178-8.831-18.812-11.929-25.686-12.038-15.914-52.471-53.539-37.256-9.45 3.824-17.19 13.693-27.157 14.185-6.849.336-13.245-3.517-19.6-6.581C71.7 39.934 47.49 86.429 42.322 105.69s-4.6 40.187-1.184 60c3.9 22.519 11.691 44.668 25.33 60.889l169.326-1.525c21.179-8.297 65.536-68.212 20.463-111.954z" class="cls-1" data-name="Path 1293" transform="translate(-19.748 -60.539)"/>
                <path id="Path_1294" d="M35.9 241.971s-4.238-4.238-1.154-8.856 5.003 3.464 1.154 8.856z" class="cls-2" data-name="Path 1294" transform="translate(-17.244 -148.348)"/>
                <path id="Path_1295" d="M5.4 318.846s-4.555-1.71-3.829-6.167 4.863.887 3.829 6.167z" class="cls-2" data-name="Path 1295" transform="translate(-.763 -189.006)"/>
                <path id="Path_1296" d="M42.54 256.476a5.14 5.14 0 0 1 3.9-4.871c3.894-.974 1.46 3.895-3.9 4.871z" class="cls-3" data-name="Path 1296" transform="translate(-21.817 -158.468)"/>
                <path id="Path_1297" d="M31.437 258.328a5.17 5.17 0 0 0-4.525-4.292c-3.985-.453-.912 4.058 4.525 4.292z" class="cls-3" data-name="Path 1297" transform="translate(-12.872 -159.765)"/>
                <path id="Path_1298" d="M34.561 278.73a5.142 5.142 0 0 0-5.573-2.806c-3.95.736.293 4.15 5.573 2.806z" class="cls-3" data-name="Path 1298" transform="translate(-14.073 -170.955)"/>
                <path id="Path_1299" d="M5.874 333.281s-4.15-4.9-5.573-2.82c-1.325 1.948 1.91 4.739 5.573 2.82z" class="cls-3" data-name="Path 1299" transform="translate(.002 -198.715)"/>
                <path id="Path_1300" d="M16.5 328.34s-.209-6.415 2.246-5.821c2.284.555 1.754 4.788-2.246 5.821z" class="cls-3" data-name="Path 1300" transform="translate(-8.457 -194.885)"/>
                <path id="Path_1301" d="M22.89 340.013s1.525-6.235 3.726-5c2.061 1.147.414 5.087-3.726 5z" class="cls-3" data-name="Path 1301" transform="translate(-11.739 -201.229)"/>
                <path id="Path_1302" d="M32.48 350.547s3.356-5.47 5.081-3.619c1.607 1.724-1.161 4.963-5.081 3.619z" class="cls-3" data-name="Path 1302" transform="translate(-16.658 -207.227)"/>
                <path id="Path_1303" d="M14 344.772s-5.358-3.551-6.133-1.15c-.732 2.241 3.145 4.019 6.133 1.15z" class="cls-3" data-name="Path 1303" transform="translate(-3.987 -205.301)"/>
                <path id="Path_1304" d="M23.926 357.08s-6.157-1.827-6.2.711c-.026 2.334 4.198 2.909 6.2-.711z" class="cls-3" data-name="Path 1304" transform="translate(-9.092 -212.305)"/>
                <path id="Path_1305" d="M42.628 298.694a5.115 5.115 0 0 0-6.157-.974c-3.542 1.914 1.529 3.848 6.157.974z" class="cls-3" data-name="Path 1305" transform="translate(-18.096 -181.85)"/>
                <path id="Path_1306" d="M51.638 318.382a5.136 5.136 0 0 0-6.216-.526c-3.39 2.158 1.817 3.744 6.216.526z" class="cls-3" data-name="Path 1306" transform="translate(-22.737 -192.083)"/>
                <path id="Path_1307" d="M49.078 274.565a5.13 5.13 0 0 1 3.381-5.241c3.774-1.345 1.85 3.726-3.381 5.241z" class="cls-3" data-name="Path 1307" transform="translate(-25.164 -167.507)"/>
                <path id="Path_1308" d="M54.528 293.614a5.136 5.136 0 0 1 2.923-5.509c3.649-1.68 2.149 3.556-2.923 5.509z" class="cls-3" data-name="Path 1308" transform="translate(-27.936 -177.086)"/>
                <path id="Path_1309" d="M64.96 311.657a5.138 5.138 0 0 1 2.47-5.728c3.502-1.973 2.436 3.371-2.47 5.728z" class="cls-3" data-name="Path 1309" transform="translate(-33.244 -186.176)"/>
                <path id="Path_1310" d="M37.4 243.158c.521 10.678 3.176 22.086 8.305 31.5 5.085 9.333 12.412 17.419 20.1 24.677.8.755 2.017-.453 1.213-1.213-7.565-7.141-14.886-14.613-20.025-23.742a62.315 62.315 0 0 1-5.893-14.835c-1.413-5.417-1.948-11-3.288-16.421a.2.2 0 0 0-.395.054z" class="cls-4" data-name="Path 1310" transform="translate(-19.181 -154.104)"/>
                <path id="Path_1311" d="M4.717 318.577a51.8 51.8 0 0 0 7.307 12.178 37.5 37.5 0 0 0 6.483 6.917c5.938 4.579 13.3 7.925 20.907 8.013a.787.787 0 0 0 0-1.573 38.093 38.093 0 0 1-20.293-7.55c-6.152-4.633-9.991-11.788-14.078-18.121-.107-.17-.424-.063-.346.146z" class="cls-4" data-name="Path 1311" transform="translate(-2.402 -192.77)"/>
                <path id="Path_1312" d="M46.517 254.773a6.035 6.035 0 0 0-2.065 1.081c-.526.4-1.344 1.028-1.461 1.72a.278.278 0 0 0 .4.312c.56-.307.94-1.028 1.4-1.461a12.774 12.774 0 0 1 1.851-1.383.151.151 0 0 0-.112-.273z" class="cls-4" data-name="Path 1312" transform="translate(-22.044 -160.155)"/>
                <path id="Path_1313" d="M31.467 257.091c.58.594 1.315 1.023 1.914 1.607.414.4.9 1.32 1.52 1.33a.219.219 0 0 0 .209-.161c.151-.692-.828-1.364-1.291-1.763a5.962 5.962 0 0 0-2.148-1.359.209.209 0 0 0-.2.346z" class="cls-4" data-name="Path 1313" transform="translate(-16.113 -161.168)"/>
                <path id="Path_1314" d="M49.9 273.434a13.434 13.434 0 0 0-2.781 2.757c-.672.877-1.9 2.275-1.783 3.463a.331.331 0 0 0 .555.229 21.587 21.587 0 0 0 1.758-2.971 39.066 39.066 0 0 1 2.436-3.239c.1-.122-.034-.356-.185-.244z" class="cls-4" data-name="Path 1314" transform="translate(-23.245 -169.712)"/>
                <path id="Path_1315" d="M32.849 279.3a12.24 12.24 0 0 1 3.9 1.461 5.845 5.845 0 0 1 1.461 1.179c.351.414.434.643.9.843a.336.336 0 0 0 .414-.234c.224-1.116-1.369-1.973-2.163-2.436a10.293 10.293 0 0 0-4.433-1.252.229.229 0 0 0-.058.448z" class="cls-4" data-name="Path 1315" transform="translate(-16.773 -172.513)"/>
                <path id="Path_1316" d="M56.378 292.244a9.893 9.893 0 0 0-2.6 5.4c-.049.39.594.487.682.093a13.98 13.98 0 0 1 2.348-5.163c.185-.253-.219-.55-.429-.331z" class="cls-4" data-name="Path 1316" transform="translate(-27.579 -179.336)"/>
                <path id="Path_1317" d="M42.11 300.226a19.7 19.7 0 0 1 3.181-.226c1.077.049 2.085.487 3.142.516a.175.175 0 0 0 .088-.322c-1.612-1.174-4.7-.974-6.445-.224-.122.047-.127.276.034.256z" class="cls-4" data-name="Path 1317" transform="translate(-21.534 -183.026)"/>
                <path id="Path_1318" d="M69.133 309.067a.063.063 0 1 0-.063-.067.063.063 0 0 0 .063.063z" class="cls-4" data-name="Path 1318" transform="translate(-35.424 -187.94)"/>
                <path id="Path_1319" d="M66.858 309.985c-.935.414-1.461 1.832-1.827 2.713a8.208 8.208 0 0 0-.711 3.259c0 .448.716.448.7 0a7.6 7.6 0 0 1 .731-3.293 22.656 22.656 0 0 0 1.315-2.523.141.141 0 0 0-.2-.156z" class="cls-4" data-name="Path 1319" transform="translate(-32.988 -188.469)"/>
                <path id="Path_1320" d="M49.652 319.64a34.071 34.071 0 0 1 3.161-.18 30.088 30.088 0 0 0 3.171.078.258.258 0 0 0 .068-.487c-1.924-.687-4.511-.253-6.464.156-.248.054-.2.487.058.448z" class="cls-4" data-name="Path 1320" transform="translate(-25.349 -192.941)"/>
                <path id="Path_1321" d="M17.514 328.305c-.614 1.378-1.057 2.82-1.666 4.2-.283.643.726.974.843.356.292-1.505.755-2.957 1.038-4.467 0-.122-.161-.224-.219-.093z" class="cls-4" data-name="Path 1321" transform="translate(-8.102 -197.841)"/>
                <path id="Path_1322" d="M5.9 335.425a9.859 9.859 0 0 0 2.343.974c.906.307 1.793.672 2.713.935a.394.394 0 0 0 .209-.76c-.906-.307-1.841-.516-2.757-.789a9.827 9.827 0 0 0-2.436-.555.117.117 0 0 0-.058.214z" class="cls-4" data-name="Path 1322" transform="translate(-3.006 -201.424)"/>
                <path id="Path_1323" d="M25.135 340.333c-.229.214-.516.326-.76.516a3.525 3.525 0 0 0-.531.6 15.123 15.123 0 0 0-1.023 1.5c-.341.56.575 1.091.877.511s.55-.974.857-1.461a5.764 5.764 0 0 0 .414-.682 4.506 4.506 0 0 1 .365-.818c.083-.117-.093-.234-.19-.146z" class="cls-4" data-name="Path 1323" transform="translate(-11.665 -204.033)"/>
                <path id="Path_1324" d="M14.808 346.844a15.587 15.587 0 0 0 4.3.263.487.487 0 1 0-.127-.94 34.553 34.553 0 0 1-4.131.341c-.183-.001-.241.292-.042.336z" class="cls-4" data-name="Path 1324" transform="translate(-7.53 -207.017)"/>
                <path id="Path_1325" d="M34.151 350.978a7.583 7.583 0 0 0-1.788.828 6.552 6.552 0 0 0-1.661 1.12.487.487 0 0 0 .58.745 11.643 11.643 0 0 0 1.632-1.184 15.026 15.026 0 0 0 1.461-1.106.253.253 0 0 0-.244-.419z" class="cls-4" data-name="Path 1325" transform="translate(-15.693 -209.49)"/>
                <path id="Path_1326" d="M23.519 357.2a8.524 8.524 0 0 0 4.028-1.978.409.409 0 0 0-.487-.638c-.614.38-1.174.828-1.817 1.169s-1.3.6-1.948.891c-.331.146-.083.614.234.555z" class="cls-4" data-name="Path 1326" transform="translate(-11.866 -211.33)"/>
                <path id="Path_1327" d="M71.523 370.044S66.9 359.815 73.657 350.5c7.794-10.716 30.2-12.178 34.585 6.82 0 0 4.384-3.41 8.281-.974 4.818 3.01 2.436 8.281 2.436 8.281s7.643-1.461 7.964 5.358z" class="cls-5" data-name="Path 1327" transform="translate(-35.89 -205.244)"/>
                <path id="Path_1328" d="M287.191 346.1s12.665-1.948 13.639-6.82-5.845-4.384-5.845-4.384 3.9-1.461 2.436-4.384-5.845-.487-5.845-.487c.974-2.436.263-8.208-3.9-6.82-4.384 1.461-3.41 6.82-3.41 6.82s-2.923-1.461-4.384 0c-2.095 2.095-.487 4.384 1.461 5.845a6.1 6.1 0 0 0-5.358 2.436c-2.433 2.923 2.925 8.769 11.206 7.794z" class="cls-3" data-name="Path 1328" transform="translate(-141.246 -195.148)"/>
                <path id="Path_1329" d="M300.58 336.237c-1.116 4.175-1.018 9.1-1.111 13.4a52.687 52.687 0 0 0 1.042 13.381c.219.926 1.666.536 1.432-.395a53.626 53.626 0 0 1-1.223-13.78c.034-4.092.726-8.554.136-12.606 0-.146-.244-.127-.278 0z" class="cls-4" data-name="Path 1329" transform="translate(-153.578 -201.886)"/>
                <path id="Path_1330" d="M305.357 343.384a14.942 14.942 0 0 0-5.357 5.329c-.326.638.614 1.2.974.565a18.8 18.8 0 0 1 4.613-5.577c.175-.146-.054-.434-.244-.312z" class="cls-4" data-name="Path 1330" transform="translate(-153.83 -205.594)"/>
                <path id="Path_1331" d="M309.162 358.2l-.112.19a.3.3 0 0 0 .4.4l.19-.112c.487-.3-.185-.974-.487-.487z" class="cls-4" data-name="Path 1331" transform="translate(-158.487 -213.117)"/>
                <path id="Path_1332" d="M303.6 360.029a14.064 14.064 0 0 0-2.436 2.723c-.58.857-1.461 2.031-1.427 3.1a.487.487 0 0 0 .779.322 15.037 15.037 0 0 0 1.5-2.728 16.373 16.373 0 0 1 2.216-2.8c.4-.409-.2-.974-.624-.624z" class="cls-4" data-name="Path 1332" transform="translate(-153.731 -214.084)"/>
                <path id="Path_1333" d="M291.513 343.628a7.985 7.985 0 0 1 4.131 3.834c.375.628 1.32-.083.8-.614-1.461-1.461-2.747-3.035-4.871-3.371a.081.081 0 1 0-.044.156z" class="cls-4" data-name="Path 1333" transform="translate(-149.49 -205.652)"/>
                <path id="Path_1334" d="M287.42 356.357c2.723 1.018 3.853 3.41 5.845 5.29a.41.41 0 0 0 .58-.58c-1.919-2.1-3.347-4.52-6.332-4.993a.149.149 0 0 0-.078.287z" class="cls-4" data-name="Path 1334" transform="translate(-147.364 -212.112)"/>
                <path id="Path_1335" d="M259.115 356.166s-2.236-2.119-1.2-4.326 3.5.341 3.351 3.181a9.626 9.626 0 0 1 2.548-2.465c1.286-.687 2.436 1.461 1.4 3.668 0 0 1.919-1.578 3.468-.745s-.244 6.971-3.006 9.888c-1.062 1.115-5.9-.716-7.706-3.064s1.461-2.436 1.461-2.436-3.093-1.661-3.122-2.752a1.662 1.662 0 0 1 2.806-.949z" class="cls-3" data-name="Path 1335" transform="translate(-131.457 -209.515)"/>
                <path id="Path_1336" d="M262.8 358.118a155.078 155.078 0 0 0 11 17.1c.385.531 1.257.058.9-.526a155.937 155.937 0 0 0-11.691-16.757c-.112-.136-.312.039-.234.18z" class="cls-4" data-name="Path 1336" transform="translate(-134.762 -213.046)"/>
                <path id="Path_1337" d="M270.394 360.244a11.1 11.1 0 0 0-.117 4.516c.054.38.667.283.662-.088 0-.789-.127-1.573-.146-2.363a11.169 11.169 0 0 0-.122-2.065.146.146 0 0 0-.278 0z" class="cls-4" data-name="Path 1337" transform="translate(-138.532 -214.202)"/>
                <path id="Path_1338" d="M276 368.287a12.747 12.747 0 0 0-.643 2.192c-.117.55-.346 1.164.078 1.612a.307.307 0 0 0 .419 0c.487-.375.38-1.164.487-1.724a15.5 15.5 0 0 0 .37-1.983c.034-.448-.575-.443-.716-.1z" class="cls-4" data-name="Path 1338" transform="translate(-141.138 -218.25)"/>
                <path id="Path_1339" d="M261.275 365.2a6.619 6.619 0 0 0 3.41.55c.409-.058.263-.638-.093-.672-.541-.049-1.081 0-1.627-.054s-1.057-.2-1.593-.268c-.234-.029-.326.346-.122.448z" class="cls-4" data-name="Path 1339" transform="translate(-133.933 -216.568)"/>
                <path id="Path_1340" d="M265.541 373.467a10.914 10.914 0 0 0 2.4.838 6.993 6.993 0 0 0 2.494.609c.3-.029.546-.414.273-.653a5.483 5.483 0 0 0-2.333-.852 8.963 8.963 0 0 0-2.694-.448.278.278 0 0 0-.136.487z" class="cls-4" data-name="Path 1340" transform="translate(-136.143 -220.775)"/>
                <path id="Path_1341" d="M265.61 387.1s.974-6.332 9.255-4.871a8.378 8.378 0 0 1 7.307-5.845c5.845-.487 8.768 3.41 8.768 6.82 0 0 4.594-.18 4.73 4.053z" class="cls-5" data-name="Path 1341" transform="translate(-136.227 -222.511)"/>
                <path id="Path_1342" d="M260.562 399.188H55.974a.974.974 0 1 1 0-1.948h204.588a.974.974 0 0 1 0 1.948z" class="cls-4" data-name="Path 1342" transform="translate(-28.208 -233.228)"/>
                <path id="Path_1343" d="M505.076 399.688h-16.562a.974.974 0 1 1 0-1.948h16.562a.974.974 0 1 1 0 1.948z" class="cls-4" data-name="Path 1343" transform="translate(-250.052 -233.485)"/>
                <path id="Path_1344" d="M233.53 423.688h-75.016a.974.974 0 0 1 0-1.948h75.016a.974.974 0 0 1 0 1.948z" class="cls-4" data-name="Path 1344" transform="translate(-80.799 -245.794)"/>
                <path id="Path_1345" d="M360.076 423.688h-16.562a.974.974 0 1 1 0-1.948h16.562a.974.974 0 0 1 0 1.948z" class="cls-4" data-name="Path 1345" transform="translate(-175.683 -245.794)"/>
                <path id="Path_1346" d="M343.908 300.213L327 308.123c3.9 1.948 3.254-3.687 18.1-.828 8 1.539 14.477-5.485 14.477-5.485s-4.87-3.95-15.669-1.597z" class="cls-6" data-name="Path 1346" transform="translate(-167.713 -183.081)"/>
                <path id="Path_1348" d="M279.657 144.917s3.658-7.633-4.457-4.14c0 0 6.318-2.597 4.457 4.14z" class="cls-7" data-name="Path 1348" transform="translate(-141.145 -101.222)"/>
                <path id="Path_1349" d="M282.789 124.08s1.544 8.2-6.089 7.063c0 0 5.845.078 6.089-7.063z" class="cls-7" data-name="Path 1349" transform="translate(-141.915 -93.128)"/>
                <path id="Path_1350" d="M365.406 375.2a4.91 4.91 0 0 0-1.374 2.4 10.627 10.627 0 0 0-.575 4.423l1.588-1.213 2.5-2.684.292-.974.93-.336 1.018-1.125-1.948-1.948z" class="cls-8" data-name="Path 1350" transform="translate(-186.372 -221.175)"/>
                <path id="Path_1351" d="M324.54 277.713s1.461 19.972 20.946 42.379a3.771 3.771 0 0 0 1.461-.487c.872-.434.974-.974.974-.974s-13.639-22.894-10.716-41.892c3.312-21.531-11.691-3.897-12.665.974z" class="cls-9" data-name="Path 1351" transform="translate(-166.451 -166.066)"/>
                <path id="Path_1352" d="M339.2 297.967c-1.9-6.712-3.079-14.233-2-21.228 3.312-21.53-11.691-3.9-12.665.974 0 0 .424 5.772 3.839 14.584 3.74 1.651 7.335 3.697 10.826 5.67z" class="cls-10" data-name="Path 1352" transform="translate(-166.446 -166.066)"/>
                <path id="Path_1353" d="M408.5 329.073a4.91 4.91 0 0 0 1.305 2.436 10.594 10.594 0 0 0 3.454 2.825l-.19-1.987-.974-3.546-.672-.765.2-.974-.419-1.461-2.684.624z" class="cls-8" data-name="Path 1353" transform="translate(-209.513 -196.485)"/>
                <path id="Path_1354" d="M323.367 266.9s12.665 30.2 41.448 25.237a2.719 2.719 0 0 0 .307-1.354 2.026 2.026 0 0 0-.351-1.4s-24.356-.458-27.278-25.895c-2.464-21.644-16.193-1.107-14.126 3.412z" class="cls-9" data-name="Path 1354" transform="translate(-165.741 -159.633)"/>
                <path id="Path_1355" d="M336.075 281.8a27.006 27.006 0 0 1 4.91.711 16.831 16.831 0 0 0 6.269.229c-4.642-3.814-8.675-9.81-9.742-19.241-2.47-21.642-16.2-1.106-14.126 3.41a52.122 52.122 0 0 0 10.5 15.052 20.093 20.093 0 0 1 2.192-.161z" class="cls-10" data-name="Path 1355" transform="translate(-165.75 -159.638)"/>
                <path id="Path_1356" d="M274.455 140.127a11.048 11.048 0 0 0 2.923-5.358c.974-4.871-5.358-2.923-6.82 1.948 0 0-1.461-1.125-.726 4.306s3.649.077 4.623-.896z" class="cls-9" data-name="Path 1356" transform="translate(-138.286 -97.163)"/>
                <path id="Path_1357" d="M291.253 148.989a5.149 5.149 0 0 1 .6-3.171c1.1-2.207 4.384 0 2.923 3.9 0 0 1.773-.132-.809 1.948a1.047 1.047 0 0 1-1.627 0 7.053 7.053 0 0 1-1.086-2.674z" class="cls-9" data-name="Path 1357" transform="translate(-149.356 -103.828)"/>
                <path id="Path_1358" d="M201.437 383.441l-.487 4.384s5.48.458 8.768 2.435l-12.358.156.18-1.617a30.313 30.313 0 0 1 .974-5.358c.663-1.948 2.943-1.31 2.923 0z" class="cls-8" data-name="Path 1358" transform="translate(-101.222 -225.518)"/>
                <path id="Path_1359" d="M171.422 384.368l-.487 2.923a20.718 20.718 0 0 1 7.307 2.436l-10.911.156.18-1.617s.818-3.41 1.461-5.358 2.469.149 2.45 1.46z" class="cls-8" data-name="Path 1359" transform="translate(-85.82 -225.471)"/>
                <path id="Path_1360" d="M154.506 283.27l17.6 4.74s5.616 25.685-6.2 46.339l-4.744.156s4.126-23.571-1.754-37.722c-1.663-4.005-5.243-8.652-4.902-13.513z" class="cls-7" data-name="Path 1360" transform="translate(-79.232 -174.775)"/>
                <path id="Path_1361" d="M183.506 282.947l16.177-2.207s11.691 20.946-4.769 53.3l-4.744.156s4.126-23.571-1.754-37.722c-1.671-4.019-5.251-8.666-4.91-13.527z" class="cls-7" data-name="Path 1361" transform="translate(-94.105 -173.477)"/>
                <path id="Path_1362" d="M168.867 285.829a10.488 10.488 0 0 1-.229-2.923l16.177-2.207a34.463 34.463 0 0 1 3 9.148 36.477 36.477 0 0 1-4.949-.867c-1.461-.487-6.332.244-9.986 1.583-2.9 1.062-11.15.667-16.63-1.461a14.654 14.654 0 0 1-1.734-7.146z" class="cls-11" data-name="Path 1362" transform="translate(-79.237 -173.456)"/>
                <path id="Path_1363" d="M197.772 157.89s2.436 4.8 0 8.695-5.845.974-5.845.974a3.509 3.509 0 0 0-1.461 3.1c0 2.26-8.281-1.15-9.255-2.124s-.146-1.627-.146-1.627l3.468-2.387s10.789-5.603 13.239-6.631z" class="cls-9" data-name="Path 1363" transform="translate(-92.696 -110.469)"/>
                <path id="Path_1364" d="M190.607 179a4.514 4.514 0 0 0-.141 1.15c0 2.26-8.281-1.15-9.255-2.124s-.146-1.627-.146-1.627a32.239 32.239 0 0 0 5.992 1.14 5.1 5.1 0 0 1 3.55 1.461z" class="cls-10" data-name="Path 1364" transform="translate(-92.696 -119.962)"/>
                <path id="Path_1365" d="M192.073 165.118a4.708 4.708 0 0 1-3.473-.614c.453-.234 10.809-5.6 13.206-6.625l-.974.9a6.542 6.542 0 0 1-3.9 3.41 3.017 3.017 0 0 0-1.948 3.9 2.523 2.523 0 0 0-2.911-.971z" class="cls-10" data-name="Path 1365" transform="translate(-96.73 -110.464)"/>
                <path id="Path_1366" d="M205.932 144.753s2.182-1.89 3.156.058c0 0 2.923 0 1.948 3.41 0 0 .487 1.948-2.436 2.923 0 0-1.948 4.106-4.871 2.543.011.02 3.917-4.613 2.203-8.934z" class="cls-12" data-name="Path 1366" transform="translate(-104.489 -103.309)"/>
                <path id="Path_1367" d="M193.826 140.537s3.9-.974 3.9 1.461c0 6.332-4.871 14.126-11.2 13.639-1.461 0-2.5-.906-1.948-2.923-.008.001 7.786-4.383 9.248-12.177z" class="cls-7" data-name="Path 1367" transform="translate(-94.585 -101.47)"/>
                <path id="Path_1368" d="M189.722 139.963a12.9 12.9 0 0 0-9.742.487c-3.946 1.948-4.384 4.384-2.436 4.384a12.985 12.985 0 0 0 2.923 7.307s8.281-3.897 9.255-12.178z" class="cls-13" data-name="Path 1368" transform="translate(-90.482 -100.896)"/>
                <path id="Path_1369" d="M205.3 149.53c-.974 2.367-3.746 5.232-5.538 7.482a31.153 31.153 0 0 0-4.413 6.751c-10.229.775-16.192 3.8-19.085 5.753-9.742-5.173-23.206 1.593-24.745 8.042s-1.861 21.764-4.3 28.1a24.284 24.284 0 0 0-.487 15.1c22.894 2.923 30.2-3.41 30.2-3.41 3.9 3.41 9.742 2.436 9.742 2.436 1.948-18.023-3.41-25.817-3.41-25.817a103.149 103.149 0 0 0-2.879-11.788c10.371-2.114 18.413-3.561 23.036-9.888s5.587-15.817 5.845-17.809a12.12 12.12 0 0 1 1.077-3.551z" class="cls-2" data-name="Path 1369" transform="translate(-74.757 -106.181)"/>
                <path id="Path_1370" d="M183.643 213.233l-.1-.161a103.149 103.149 0 0 0-2.879-11.788c7.955-1.622 14.54-2.855 19.265-6.2a48.706 48.706 0 0 1-24.273 2.884 61.62 61.62 0 0 0 2.436 9.742c.7 2.075-4.028 9.07-4.087 8.447a104.425 104.425 0 0 0-1.661-10.4c-1.461-7.307-3.41-10.716-3.9-13.152-.726-3.639 8.281-3.9 8.281-3.9-9.742-5.358-23.381 1.461-24.93 7.95s-1.861 21.764-4.3 28.1a21.741 21.741 0 0 0-1.179 4.428 31.342 31.342 0 0 0 6.537 3.853c2.791 1.393 16.075 3.41 19.485-2.923a17.84 17.84 0 0 0 1.822-7.238c3.439-2.5 4.9-4.452 5.875-8.349 2.216 6.449 3.507 21.92 3.507 21.92s-4.384 0-5.845-1.461l-.974-7.794v7.794s-7.419 4.915-19.767 5.626c15.1.273 20.254-4.165 20.254-4.165 3.9 3.41 9.742 2.436 9.742 2.436 1.788-16.562-2.582-24.473-3.308-25.656z" class="cls-6" data-name="Path 1370" transform="translate(-75.045 -125.289)"/>
                <path id="Path_1371" d="M137.546 217.866c0-3.41 5.061-19.139 6.82-22.407 3.41-6.332 14.721-4.428 17.536 0 3.41 5.358 6.332 15.1 6.332 23.381s0 11.691-11.691 14.126c-6.756 1.408-14.272.063-17.536-3.9-2.382-2.885-1.461-7.708-1.461-11.2z" class="cls-13" data-name="Path 1371" transform="translate(-70.455 -127.652)"/>
                <path id="Path_1372" d="M157.133 232.966c-6.756 1.408-14.272.063-17.536-3.9a6.264 6.264 0 0 1-1.077-1.987c4.048 3.181 10.137 3.278 15.2 2.962 7.794-.487 7.794-7.794 8.1-13.206 0 0 .18-14.56-6.152-17a20.264 20.264 0 0 0-12.343-.487 35.911 35.911 0 0 1 1.627-3.9c3.41-6.332 14.721-4.428 17.536 0 3.41 5.358 6.332 15.1 6.332 23.381s.003 11.702-11.687 14.137z" class="cls-7" data-name="Path 1372" transform="translate(-71.044 -127.652)"/>
                <path id="Path_1373" d="M157.623 235.173s-9.255.487-15.1-.487-8.281 12.178-2.923 17.536 19 2.436 21.433-.487.487-16.562-3.41-16.562z" class="cls-14" data-name="Path 1373" transform="translate(-70.073 -149.83)"/>
                <path id="Path_1374" d="M147.236 234.69c5.845.974 15.1.487 15.1.487 3.9 0 5.845 13.639 3.41 16.562-.974 1.145-3.619 2.285-6.82 2.923.044-.029 4.384-2.991 1.948-14.613-1.013-4.871-4.871 0-12.178-2.923-2-.8-2.967-1.627-2.874-2.382a3.492 3.492 0 0 1 1.413-.054z" class="cls-15" data-name="Path 1374" transform="translate(-74.787 -149.834)"/>
                <path id="Path_1375" d="M171.355 194.788c-2.869-.132-8.106 2.192-10.687 2.621-2.923.487-3.858-.234-3.858-.234a8.408 8.408 0 0 1 3.259-5.573c4.14-.775 9.089.698 11.286 3.186z" class="cls-16" data-name="Path 1375" transform="translate(-80.425 -127.653)"/>
                <path id="Path_1376" d="M180.971 180.478a16.708 16.708 0 0 0-9.255-5.358c-6.332-1.461-6.82-5.845-12.665-3.9s-3.9 10.716-4.384 13.152 1.948 3.9 9.255 0 12.665-6.329 17.049-3.894z" class="cls-2" data-name="Path 1376" transform="translate(-79.295 -117.056)"/>
                <path id="Path_1377" d="M205.949 221.74s-2.923 10.717-11.472 13.737l-.487 5.358a26.971 26.971 0 0 0 12.933-14.224 7.21 7.21 0 0 0-.974-4.871z" class="cls-7" data-name="Path 1377" transform="translate(-99.494 -143.217)"/>
                <path id="Path_1378" d="M245.816 173.4s.818-2.665 1.661-5.071a26.527 26.527 0 0 0-3.122 5.071c-1.057.078-2.056.19-3.025.312a58.46 58.46 0 0 1 5.948.662z" class="cls-6" data-name="Path 1378" transform="translate(-123.774 -115.823)"/>
                <path id="Path_1379" d="M353.347 152.414c-1.7-4.564-7.063-6.289-13.108-5.085-7.477 1.491-1.948 11.54.716 13.839s16.435 2.06 12.392-8.754z" class="cls-13" data-name="Path 1379" transform="translate(-172.573 -104.862)"/>
                <path id="Path_1380" d="M331.6 153.434c-1.427-6 1.159-13.108 8.524-9.255 6.41 3.371 11.35 11.247 11.525 17.653.151 5.446-4.063 9.981-9.552 5.67-2.212-1.739-8.545-5.947-10.497-14.068z" class="cls-7" data-name="Path 1380" transform="translate(-169.881 -102.876)"/>
                <path id="Path_1381" d="M343.523 159.689s3.385.424 5.431 7.555a6.958 6.958 0 0 0 4.93 4.671c-.619 4.671-4.525 7.964-9.469 4.082-1.754-1.374-6.021-4.287-8.714-9.377 1.28-4.315 3.628-7.457 7.822-6.931z" class="cls-17" data-name="Path 1381" transform="translate(-172.175 -111.362)"/>
                <path id="Path_1382" d="M345.207 160.432s3.181 1.3 3.6 8.281 6.82 6.79 8.281 6.971 1.33 1.15-.726 1.871.663 2.538 3.985 3.449 4.384 3.989 1.325 5.076-9.3-.19-11.116-1.4-2.114 1.208-.3 2.436-.365 2.923-3.444.058-12.787-10.356-8.369-23.06c1.499-4.354 5.386-4.841 6.764-3.682z" class="cls-12" data-name="Path 1382" transform="translate(-173.002 -111.496)"/>
                <path id="Path_1383" d="M343.926 182.526c.974-3.8 3.775-6.586 6.206-4.467 0 0 1.31 1.422-.531 6.162-1.461 3.746 2.436 7.209 7.17 10.492a10.508 10.508 0 0 1-2.952-1.125c-1.812-1.208-2.114 1.208-.3 2.436s-.365 2.923-3.444.058a50.548 50.548 0 0 1-4.428-4.316 13.669 13.669 0 0 1-1.721-9.24z" class="cls-17" data-name="Path 1383" transform="translate(-176.275 -120.437)"/>
                <path id="Path_1384" d="M339.767 208.33c-6.82-1.895-12.295 14.224-19.217 12.7.487-8.768 4.516-29.534 6.332-29.714 4.871-.487 4.6-6.264 4.871-8.193s3.41.434 3.41.434a8.665 8.665 0 0 0 2.923 10.005c.55.414 2.923 3.454 2.645 5.743-.292 2.732-1.023 6.185-.964 9.025z" class="cls-9" data-name="Path 1384" transform="translate(-164.405 -123.021)"/>
                <path id="Path_1385" d="M295.488 156.74s5.358 20.848 20.678 20.186c0 0 2.216 8.554-4.116 7.092s-16.562-8.281-18.51-26.3z" class="cls-9" data-name="Path 1385" transform="translate(-150.552 -109.879)"/>
                <path id="Path_1386" d="M322.27 197.277a10.64 10.64 0 0 1-1.413-.093 24.38 24.38 0 0 1-3.9 4.574c-1.052.75-5.4-1.948-9.45-5.358a21.579 21.579 0 0 0 11.72 7.945 3.545 3.545 0 0 0 3.41-.565z" class="cls-10" data-name="Path 1386" transform="translate(-157.717 -130.22)"/>
                <path id="Path_1387" d="M337.691 246.791a5.149 5.149 0 0 1-3.132-.77c-2.143-1.223.239-4.384 4.048-2.708 0 0-.034-1.778 1.9.911a1.047 1.047 0 0 1-.088 1.627 7.054 7.054 0 0 1-2.728.94z" class="cls-9" data-name="Path 1387" transform="translate(-171.175 -153.986)"/>
                <path id="Path_1388" d="M345.67 221.894s7.156-1.257 11.691-2.528c0 0-2.742-6.932-8.369-11.247 0 0-7.672-12.144.487-6.82 6.1 3.98 13.78 14.794 13.191 19.645-.487 4.058-6.82 4.209-16.153 2.952z" class="cls-9" data-name="Path 1388" transform="translate(-177.289 -132.04)"/>
                <path id="Path_1389" d="M350.655 197.017a30 30 0 0 0-5.017-4.516c-3.765-3.931-1.724-8.943-1.724-8.943s-3.142-2.358-3.41-.434c-.107.711-.141 1.948-.38 3.239a5.922 5.922 0 0 0 1.393 1.866c.789.487.77-1.145 1.461 1.52s3.741 3.819 2.241 4.126a7.766 7.766 0 0 1-6.747-1.52c-2.323-2.056.4 3.9.4 3.9l4.106.745 5.358 7.307.39.541q.1-.826.219-1.651a32.149 32.149 0 0 1 3.044 4.608 7.961 7.961 0 0 0-.745-2.4 15.291 15.291 0 0 1-1.739-6.079c-.054-1.426.239-2.236 1.15-2.309z" class="cls-10" data-name="Path 1389" transform="translate(-173.115 -123.024)"/>
                <path id="Path_1390" d="M322.445 205.308s-10.717 24.882-.253 50.416c0 0 7.433-4.384 13.152-3.2 8.281 1.739 14.063-5.548 19.421-3.113 0 0-16.737-17.361-15.948-37.995 0 0-1.681-3.356.034-8.87l-1.413-1.408a7.015 7.015 0 0 1-7.122.283 4.307 4.307 0 0 1-2.255-3.834l-1.8-.287a63.657 63.657 0 0 0-3.816 8.008z" class="cls-2" data-name="Path 1390" transform="translate(-162.895 -130.682)"/>
                <path id="Path_1391" d="M347.237 225.367s-.039-1.3 1.7-.77a7.458 7.458 0 0 0 .755.185l-.39-1.427s-2.986-1.948-3.108-3.166.36-4.871 1.047-3.41c.487 1.013.682.136.823-.935a32.609 32.609 0 0 1-.112-4.345s-1.681-3.356.034-8.87l-1.413-1.408a7.014 7.014 0 0 1-7.122.283 4.307 4.307 0 0 1-2.255-3.834l-1.257-.2.974.336a4.431 4.431 0 0 0 2.718 4.472c3.166 1.549 5.358-.248 6.6 1.013s.58 1.593.667 3.215l-3.561 1.1-2.947-1.057-4.973 3.692 3.449 10.1s-2.626 2.742.273 3.809l-1.179 15.3 3.829 1.72 4.384-2.84 6.191.326z" class="cls-6" data-name="Path 1391" transform="translate(-172.026 -130.769)"/>
                <path id="Path_1392" d="M335.865 295.952c-3.9-1.642-6.391-11.282-6.391-11.282.487 3.59 1.12 8.768.37 11.282-.589 1.973-4.472 3.074-5.358 1.948a25.509 25.509 0 0 1-2.436-4.535 59.651 59.651 0 0 0 2.436 7.151s7.433-4.384 13.152-3.2a13.678 13.678 0 0 0 6.41-.248 18.6 18.6 0 0 1-8.183-1.116z" class="cls-6" data-name="Path 1392" transform="translate(-165.174 -175.493)"/>
                <path id="Path_1393" d="M346.576 213.161l-1.281 15.539 7.487 16.932h-6.766l-4.365 2.538-4.067-2.129 1.89-16.684-4.014-13.61 4.014-3.1 3.41 1.106z" class="cls-18" data-name="Path 1393" transform="translate(-172.052 -138.549)"/>
                <path id="Path_1394" d="M347.11 213.746l.083 15.607 3.049 16.274-4.365 2.538.083-18.715-2.26-16.81z" class="cls-19" data-name="Path 1394" transform="translate(-176.278 -138.549)"/>
                <g id="Group_1566" class="cls-20" data-name="Group 1566" transform="translate(167.11 90.575)">
                    <path id="Path_1395" d="M346.441 248.74s2.884 1.062 4.745 1.763l-1.822-4.024-6.045.117.034.112-.292 2.6a5.139 5.139 0 0 0 3.38-.568z" class="cls-21" data-name="Path 1395" transform="translate(-343.06 -246.48)"/>
                </g>
                <path id="Path_1396" d="M343.686 246.47c-1.023.326-2.82.487-2.986-1.461-.117-1.32.244-2.874 3.278-2.143 0 0-.346-1.744 2.031.565a1.047 1.047 0 0 1 .185 1.612 7.054 7.054 0 0 1-2.509 1.427z" class="cls-9" data-name="Path 1396" transform="translate(-174.73 -153.728)"/>
                <path id="Path_1397" d="M355.982 240.59c-4.486 1.135-10.312 2.158-10.312 2.158l.867 2c5.11.687 9.309.974 12.144.39a16.387 16.387 0 0 1-2.699-4.548z" class="cls-9" data-name="Path 1397" transform="translate(-177.289 -152.885)"/>
                <path id="Path_1398" d="M345.788 245.867c-1.018-.628-.745.672-2.168.877-1.948.283-2.611-.122-2.733-1.115a2.1 2.1 0 0 1 .828-2.129 1.865 1.865 0 0 0-.974 2.177c.171 1.919 1.948 1.768 2.986 1.461a8.469 8.469 0 0 0 1.578-.716c1.276.156 2.484.283 3.629.37a13.964 13.964 0 0 1-3.146-.925z" class="cls-10" data-name="Path 1398" transform="translate(-174.747 -154.377)"/>
                <path id="Path_1399" d="M347.617 171.348s-.166 3.264-3.9 5.738-5.914-7.618-4.511-10.794c0 0 2.952-4.131 6.449-.745s1.962 5.801 1.962 5.801z" class="cls-9" data-name="Path 1399" transform="translate(-173.755 -113.712)"/>
                <path id="Path_1400" d="M337.62 163.518s2.665-5.558 6.893-4.043 4.043 6.893 3.678 9.791c0 0-5.193-1.637-6.1-6.167-.004.001-2.664 1.631-4.471.419z" class="cls-12" data-name="Path 1400" transform="translate(-173.16 -111.147)"/>
                <path id="Path_1401" d="M290.756 124.08s-2.645 11.691 5.616 6.006c-.005 0-6.581 4.155-5.616-6.006z" class="cls-7" data-name="Path 1401" transform="translate(-148.917 -93.128)"/>
                <path id="Path_1402" d="M299.612 138.58s-6.006 1.5-.828 4.1c0 .002-3.41-2.234.828-4.1z" class="cls-7" data-name="Path 1402" transform="translate(-152.162 -100.565)"/>
                <path id="Path_1403" d="M291.852 147.206s-6.859-6.82-7.5 3.517c-.002-.005.909-8.008 7.5-3.517z" class="cls-7" data-name="Path 1403" transform="translate(-145.838 -103.857)"/>
                <path id="Path_1404" d="M288.009 138.58a1.266 1.266 0 0 0 1.262 1.34 2.236 2.236 0 0 0-1.948 1.174 1.949 1.949 0 0 0-.692-1.885.846.846 0 0 0 1.378-.629z" class="cls-7" data-name="Path 1404" transform="translate(-147.008 -100.565)"/>
                <path id="Path_1405" d="M370 331.32s3.239 1.861 11.661 2.489c-.019 0-7.35 1.047-11.661-2.489z" class="cls-2" data-name="Path 1405" transform="translate(-189.767 -199.419)"/>
                <path id="Path_1406" d="M376.54 336.73a9.254 9.254 0 0 0 5.275.575 4.909 4.909 0 0 1-5.275-.575z" class="cls-2" data-name="Path 1406" transform="translate(-193.121 -202.194)"/>
                <path id="Path_1407" d="M342 346.82a46.482 46.482 0 0 0 3.166 3.951A11.182 11.182 0 0 1 342 346.82z" class="cls-2" data-name="Path 1407" transform="translate(-175.406 -207.369)"/>
                <path id="Path_1408" d="M296.69 187.21a37.13 37.13 0 0 0 5.251 8.023s-4.686-3.254-5.251-8.023z" class="cls-2" data-name="Path 1408" transform="translate(-152.167 -125.507)"/>
                <path id="Path_1409" d="M249.54 203.571s6.172-2.09 8.929-7.131c0-.005-1.199 6.225-8.929 7.131z" class="cls-2" data-name="Path 1409" transform="translate(-127.985 -130.241)"/>
            </g>
        </g>
    </g>
</svg>
