<svg id="_24px_tutup_2" data-name="24px tutup 2" xmlns="http://www.w3.org/2000/svg" width="24" height="24" viewBox="0 0 24 24">
  <path id="Path_1374" data-name="Path 1374" d="M635.575,134.82c-.892-.891-1.875-1.818-2.776-2.667a1.579,1.579,0,0,1,0-2.307c.9-.849,1.884-1.776,2.776-2.667a1.222,1.222,0,0,0,.1-1.785,1.275,1.275,0,0,0-1.834.047c-.893.892-1.818,1.875-2.667,2.776a1.583,1.583,0,0,1-2.309,0c-.849-.9-1.774-1.884-2.667-2.776a1.222,1.222,0,0,0-1.785-.1,1.275,1.275,0,0,0,.048,1.835c.891.891,1.875,1.818,2.775,2.667a1.579,1.579,0,0,1,0,2.307c-.9.849-1.884,1.776-2.775,2.667a1.275,1.275,0,0,0-.048,1.835,1.222,1.222,0,0,0,1.785-.1c.893-.892,1.818-1.875,2.667-2.776a1.583,1.583,0,0,1,2.309,0c.849.9,1.774,1.884,2.667,2.776a1.275,1.275,0,0,0,1.834.047A1.222,1.222,0,0,0,635.575,134.82Z" transform="translate(-618.043 -119)" fill="#212b36"/>
  <path id="Path_2472" data-name="Path 2472" d="M814.524,409.454a12.014,12.014,0,0,0-12,12,11.873,11.873,0,0,0,2.569,7.421,1.125,1.125,0,1,0,1.767-1.392,9.659,9.659,0,0,1-2.086-6.029,9.75,9.75,0,1,1,4.3,8.085,1.125,1.125,0,1,0-1.259,1.865,12,12,0,1,0,6.708-21.95Z" transform="translate(-802.524 -409.454)" fill="#212b36"/>
</svg>
