<svg xmlns="http://www.w3.org/2000/svg" width="1057.787" height="374.208" viewBox="0 0 1057.787 374.208">
    <defs>
        <style>
            .cls-1{fill:#fff}
        </style>
    </defs>
    <path id="XMLID_62_" d="M1057.987 837.836a56.493 56.493 0 0 0-35.76 31.74 120.794 120.794 0 0 0-141.878 47.61 86.15 86.15 0 0 0-36.924-8.147 79.593 79.593 0 0 0-16.822 1.693v-1.693a56.181 56.181 0 0 0-44.33-54.91A80.1 80.1 0 0 0 635 838.154a52.506 52.506 0 0 0-35.866-14.283 53.717 53.717 0 0 0-22.218 4.867 290.6 290.6 0 0 1-21.795-40.416A283.19 283.19 0 0 1 531.1 673.635c0-3.7.106-7.3.212-11 1.8-47.293-25.392 89.507-40.416 124.209a284.07 284.07 0 0 1-37.559 62.951 69.8 69.8 0 0 0-108.656.106 68.723 68.723 0 0 0-86.544 13.86 103.467 103.467 0 0 0-189.379 57.657v.952A125.551 125.551 0 0 0 .2 1027.006h1057.787z" class="cls-1" transform="translate(-.2 -652.798)"/>
</svg>
