<svg xmlns="http://www.w3.org/2000/svg" width="117.929" height="191.922" viewBox="0 0 117.929 191.922">
    <defs>
        <style>
            .cls-1,.cls-14,.cls-15,.cls-16,.cls-9{fill:none}.cls-1{stroke:#af1f1f}.cls-1,.cls-14,.cls-15,.cls-16,.cls-23,.cls-9{stroke-linecap:round;stroke-linejoin:round;stroke-miterlimit:10}.cls-1,.cls-14,.cls-23,.cls-9{stroke-width:6px}.cls-2{fill:#e36535}.cls-3{fill:#db2828}.cls-4{fill:#006fbb}.cls-5{fill:#cf264d}.cls-12,.cls-28,.cls-6{fill:#a5143a}.cls-23,.cls-6,.cls-8{opacity:.72}.cls-7{fill:#b4e1fa}.cls-10,.cls-7{opacity:.23}.cls-21,.cls-23,.cls-26,.cls-8{fill:#084e8a}.cls-16,.cls-9{stroke:#001429}.cls-10,.cls-11,.cls-19{fill:#f4a15d}.cls-11,.cls-18,.cls-22{opacity:.32}.cls-12,.cls-21{opacity:.37}.cls-13{fill:#601b23}.cls-14,.cls-15{stroke:#601b23}.cls-15,.cls-16{stroke-width:4px}.cls-17{fill:#4e8280}.cls-20{fill:#37605d}.cls-22{fill:#ebf5fa}.cls-23{stroke:#084e8a}.cls-24{fill:#abcfd8}.cls-25{fill:#e2f0f2;opacity:.93}.cls-27{fill:#bc1d4e}.cls-28{opacity:.74}.cls-29{opacity:.53}.cls-30{fill:#fff;opacity:.41}
        </style>
    </defs>
    <g id="roket_chicken" data-name="roket chicken" transform="translate(-465.005 -717.43)">
        <g id="Group_2983" data-name="Group 2983" transform="translate(504.69 833.071)">
            <path id="XMLID_29_" d="M479.652 655.376c-4.2.537-7.558 6.44-8.184 11.314a33.88 33.88 0 0 0-.268 4.249 36.389 36.389 0 0 0 2.773 13.6c1.789 4.427 4.472 8.944 7.692 11.538 3.265-2.594 5.9-7.111 7.692-11.538a36.389 36.389 0 0 0 2.773-13.6 33.88 33.88 0 0 0-.268-4.249c-.626-4.919-3.98-10.778-8.184-11.314a20.175 20.175 0 0 0-4.026 0z" class="cls-1" transform="translate(-462.927 -655.258)"/>
            <path id="XMLID_35_" d="M479.652 655.376c-4.2.537-7.558 6.44-8.184 11.314a33.88 33.88 0 0 0-.268 4.249 36.389 36.389 0 0 0 2.773 13.6c1.789 4.427 4.472 8.944 7.692 11.538 3.265-2.594 5.9-7.111 7.692-11.538a36.389 36.389 0 0 0 2.773-13.6 33.88 33.88 0 0 0-.268-4.249c-.626-4.919-3.98-10.778-8.184-11.314a20.175 20.175 0 0 0-4.026 0z" class="cls-2" transform="translate(-462.927 -655.258)"/>
            <path id="XMLID_178_" d="M490.221 683.395a65.041 65.041 0 0 1-4.964 24.373c-.089.268-.224.537-.358.85-3.22 7.692-7.826 15.384-13.416 19.9-5.769-4.651-10.465-12.656-13.729-20.572-.045-.045-.045-.089-.089-.179a65.041 65.041 0 0 1-4.964-24.373 63.293 63.293 0 0 1 .492-7.647c1.073-8.676 6.976-19.141 14.355-20.259.089 0 .179-.045.268-.045a33.5 33.5 0 0 1 7.021-.045.761.761 0 0 1 .313.045c7.513.939 13.551 11.538 14.624 20.3a73.774 73.774 0 0 1 .447 7.652z" class="cls-3" transform="translate(-452.7 -655.237)"/>
            <path id="XMLID_177_" d="M490.221 683.395a65.041 65.041 0 0 1-4.964 24.373c-.089.268-.224.537-.358.85-3.22 7.692-7.826 15.384-13.416 19.9-5.769-4.651-10.465-12.656-13.729-20.572-.045-.045-.045-.089-.089-.179a65.041 65.041 0 0 1-4.964-24.373 63.293 63.293 0 0 1 .492-7.647c1.073-8.676 6.976-19.141 14.355-20.259.089 0 .179-.045.268-.045a33.5 33.5 0 0 1 7.021-.045.761.761 0 0 1 .313.045c7.513.939 13.551 11.538 14.624 20.3a73.774 73.774 0 0 1 .447 7.652z" class="cls-1" transform="translate(-452.7 -655.237)"/>
        </g>
        <g id="Group_2982" data-name="Group 2982" transform="translate(467.477 720.43)">
            <path id="XMLID_79_" d="M351.524 415.035L341.4 418.98v-19.225l31.088-24.255v36.368l-7.516 3.944a16.2 16.2 0 0 0-13.448-.777z" class="cls-4" transform="translate(-332.58 -350.592)"/>
            <path id="XMLID_19_" d="M319.7 453.725a27.8 27.8 0 0 1-5-15.839 28.232 28.232 0 0 1 7.7-19.286 28.434 28.434 0 0 1 7.764 19.286 27.927 27.927 0 0 1-4.969 15.839z" class="cls-5" transform="translate(-314.172 -380.307)"/>
            <path id="XMLID_83_" d="M341.4 463.379l10.062-3.913a36.143 36.143 0 0 0-.559-8.137 37.4 37.4 0 0 0-4.068-11.429l-5.435 4.255z" class="cls-6" transform="translate(-332.58 -394.992)"/>
            <path id="XMLID_63_" d="M342.7 405.128l29.819-23.228v-6.4L341.4 399.724v19.256l1.3-.5z" class="cls-7" transform="translate(-332.58 -350.592)"/>
            <path id="XMLID_69_" d="M397.908 414.166a15.693 15.693 0 0 1 4.845 1.646l7.516-3.944V375.5l-13.106 10.218a75.7 75.7 0 0 0-.963 12.33 79.145 79.145 0 0 0 1.708 16.118z" class="cls-8" transform="translate(-370.361 -350.592)"/>
            <path id="XMLID_72_" d="M351.524 415.035L341.4 418.98v-19.225l31.088-24.255v36.368l-7.516 3.944a16.2 16.2 0 0 0-13.448-.777z" class="cls-9" transform="translate(-332.58 -350.592)"/>
            <path id="XMLID_34_" d="M319.7 453.725a27.8 27.8 0 0 1-5-15.839 28.232 28.232 0 0 1 7.7-19.286 28.434 28.434 0 0 1 7.764 19.286 27.927 27.927 0 0 1-4.969 15.839z" class="cls-5" transform="translate(-314.172 -380.307)"/>
            <path id="XMLID_37_" d="M320.764 418.6c.373.4.745.839 1.087 1.273a31.418 31.418 0 0 0-5.124 17.019c0 6.149.932 11.895 4.1 16.864h-2.857a28 28 0 0 1-4.97-15.839 28.452 28.452 0 0 1 7.764-19.317z" class="cls-10" transform="translate(-313 -380.307)"/>
            <path id="XMLID_4_" d="M320.764 418.6a5.411 5.411 0 0 1 .373.435 32.554 32.554 0 0 0-1.4 34.722h-1.77a28 28 0 0 1-4.967-15.84 28.452 28.452 0 0 1 7.764-19.317z" class="cls-11" transform="translate(-313 -380.307)"/>
            <path id="XMLID_9_" d="M344.851 437.886a28.2 28.2 0 0 0-7.764-19.286c-.373.4-.745.839-1.087 1.273a30.961 30.961 0 0 1 .155 33.883h3.727a28.175 28.175 0 0 0 4.969-15.87z" class="cls-12" transform="translate(-328.857 -380.307)"/>
            <path id="XMLID_45_" d="M346.437 437.886a28.2 28.2 0 0 0-7.764-19.286 5.405 5.405 0 0 0-.373.435 32.554 32.554 0 0 1 1.4 34.722h1.77a28.175 28.175 0 0 0 4.967-15.871z" class="cls-6" transform="translate(-330.443 -380.307)"/>
            <path id="XMLID_10_" d="M337.087 418.6c-.373.4-.745.839-1.087 1.273a30.961 30.961 0 0 1 .155 33.883h3.727a28 28 0 0 0 4.969-15.839 28.452 28.452 0 0 0-7.764-19.317z" class="cls-12" transform="translate(-328.857 -380.307)"/>
            <path id="XMLID_16_" d="M338.673 418.6a5.405 5.405 0 0 0-.373.435 32.554 32.554 0 0 1 1.4 34.722h1.77a28 28 0 0 0 4.969-15.839 28.452 28.452 0 0 0-7.766-19.318z" class="cls-6" transform="translate(-330.443 -380.307)"/>
            <path id="XMLID_95_" d="M332.7 424.121a31.365 31.365 0 0 0-4.1-5.621 30.3 30.3 0 0 0-4.1 5.621z" class="cls-13" transform="translate(-320.928 -380.238)"/>
            <path id="XMLID_28_" d="M319.7 453.725a27.8 27.8 0 0 1-5-15.839 28.232 28.232 0 0 1 7.7-19.286 28.434 28.434 0 0 1 7.764 19.286 27.927 27.927 0 0 1-4.969 15.839z" class="cls-14" transform="translate(-314.172 -380.307)"/>
            <path id="XMLID_31_" d="M415.855 538.785s-3.758.807-9.162 6.211a103.676 103.676 0 0 0-7.3 8.944 1.637 1.637 0 0 1-2.95-.932l-.745-33.076a3.269 3.269 0 0 1 .683-2.609l8.139-10.123z" class="cls-4" transform="translate(-369.984 -441.391)"/>
            <path id="XMLID_24_" d="M396.383 553.661a3.667 3.667 0 0 0 3.137-3.571l.342-30.746a3.269 3.269 0 0 1 .683-2.609l5.093-6.367-1.149-3.168-8.106 10.093a3.3 3.3 0 0 0-.683 2.609z" class="cls-11" transform="translate(-369.984 -441.39)"/>
            <path id="XMLID_84_" d="M425.539 538.785L414.2 507.2l-4.5 5.621a124.564 124.564 0 0 0 11.4 28.231 14.193 14.193 0 0 1 4.439-2.267z" class="cls-8" transform="translate(-379.668 -441.39)"/>
            <path id="XMLID_21_" d="M415.855 538.785s-3.758.807-9.162 6.211a103.676 103.676 0 0 0-7.3 8.944 1.637 1.637 0 0 1-2.95-.932l-.745-33.076a3.269 3.269 0 0 1 .683-2.609l8.139-10.123z" class="cls-9" transform="translate(-369.984 -441.391)"/>
            <path id="XMLID_32_" d="M0 0h10.218" class="cls-15" transform="translate(2.578 69.319)"/>
            <path id="XMLID_192_" d="M319.7 453.725a27.8 27.8 0 0 1-5-15.839 28.232 28.232 0 0 1 7.7-19.286 28.434 28.434 0 0 1 7.764 19.286 27.927 27.927 0 0 1-4.969 15.839z" class="cls-5" transform="translate(-314.172 -380.307)"/>
            <path id="XMLID_161_" d="M319.7 453.725a27.8 27.8 0 0 1-5-15.839 28.232 28.232 0 0 1 7.7-19.286 28.434 28.434 0 0 1 7.764 19.286 27.927 27.927 0 0 1-4.969 15.839z" class="cls-4" transform="translate(-314.172 -380.307)"/>
            <path id="XMLID_155_" d="M320.764 418.6c.373.4.745.839 1.087 1.273a31.418 31.418 0 0 0-5.124 17.019c0 6.149.932 11.895 4.1 16.864h-2.857a28 28 0 0 1-4.97-15.839 28.452 28.452 0 0 1 7.764-19.317z" class="cls-10" transform="translate(-313 -380.307)"/>
            <path id="XMLID_147_" d="M320.764 418.6a5.411 5.411 0 0 1 .373.435 32.554 32.554 0 0 0-1.4 34.722h-1.77a28 28 0 0 1-4.967-15.84 28.452 28.452 0 0 1 7.764-19.317z" class="cls-11" transform="translate(-313 -380.307)"/>
            <path id="XMLID_144_" d="M344.851 437.886a28.2 28.2 0 0 0-7.764-19.286c-.373.4-.745.839-1.087 1.273a30.961 30.961 0 0 1 .155 33.883h3.727a28.175 28.175 0 0 0 4.969-15.87z" class="cls-12" transform="translate(-328.857 -380.307)"/>
            <path id="XMLID_140_" d="M346.437 437.886a28.2 28.2 0 0 0-7.764-19.286 5.405 5.405 0 0 0-.373.435 32.554 32.554 0 0 1 1.4 34.722h1.77a28.175 28.175 0 0 0 4.967-15.871z" class="cls-6" transform="translate(-330.443 -380.307)"/>
            <path id="XMLID_134_" d="M337.087 418.6c-.373.4-.745.839-1.087 1.273a30.961 30.961 0 0 1 .155 33.883h3.727a28 28 0 0 0 4.969-15.839 28.452 28.452 0 0 0-7.764-19.317z" class="cls-12" transform="translate(-328.857 -380.307)"/>
            <path id="XMLID_130_" d="M338.673 418.6a5.405 5.405 0 0 0-.373.435 32.554 32.554 0 0 1 1.4 34.722h1.77a28 28 0 0 0 4.969-15.839 28.452 28.452 0 0 0-7.766-19.318z" class="cls-6" transform="translate(-330.443 -380.307)"/>
            <path id="XMLID_67_" d="M334.5 424.121a31.368 31.368 0 0 0-4.1-5.621 30.3 30.3 0 0 0-4.1 5.621z" class="cls-13" transform="translate(-322.169 -380.238)"/>
            <path id="XMLID_39_" d="M319.7 453.725a27.8 27.8 0 0 1-5-15.839 28.232 28.232 0 0 1 7.7-19.286 28.434 28.434 0 0 1 7.764 19.286 27.927 27.927 0 0 1-4.969 15.839z" class="cls-9" transform="translate(-314.172 -380.307)"/>
            <path id="XMLID_12_" d="M0 0h10.218" class="cls-16" transform="translate(2.578 69.319)"/>
            <path id="XMLID_196_" d="M562.963 415.035l10.125 3.944v-19.224L542 375.5v36.368l7.516 3.944a16.2 16.2 0 0 1 13.447-.777z" class="cls-4" transform="translate(-470.88 -350.592)"/>
            <path id="XMLID_188_" d="M619.68 463.379l-10.062-3.913a36.148 36.148 0 0 1 .559-8.137 37.4 37.4 0 0 1 4.068-11.429l5.435 4.255v19.224z" class="cls-8" transform="translate(-517.471 -394.992)"/>
            <path id="XMLID_181_" d="M571.815 405.128L542 381.9v-6.4l31.088 24.224v19.256l-1.273-.5z" class="cls-10" transform="translate(-470.88 -350.592)"/>
            <path id="XMLID_175_" d="M554.361 414.166a15.692 15.692 0 0 0-4.845 1.646L542 411.867V375.5l13.106 10.218a77.98 77.98 0 0 1-.745 28.448z" class="cls-8" transform="translate(-470.88 -350.592)"/>
            <path id="XMLID_166_" d="M562.963 415.035l10.125 3.944v-19.224L542 375.5v36.368l7.516 3.944a16.2 16.2 0 0 1 13.447-.777z" class="cls-9" transform="translate(-470.88 -350.592)"/>
            <path id="XMLID_59_" d="M522.9 538.785s3.758.807 9.162 6.211a103.688 103.688 0 0 1 7.3 8.944 1.637 1.637 0 0 0 2.95-.932l.745-33.076a3.269 3.269 0 0 0-.683-2.609l-8.138-10.123z" class="cls-4" transform="translate(-457.712 -441.391)"/>
            <path id="XMLID_48_" d="M564.955 553.661a3.667 3.667 0 0 1-3.137-3.571l-.342-30.746a3.269 3.269 0 0 0-.683-2.609l-5.093-6.367 1.149-3.168 8.137 10.125a3.3 3.3 0 0 1 .683 2.609z" class="cls-8" transform="translate(-480.325 -441.39)"/>
            <path id="XMLID_47_" d="M522.9 538.785l11.336-31.585 4.5 5.621a124.565 124.565 0 0 1-11.4 28.231 14.193 14.193 0 0 0-4.436-2.267z" class="cls-6" transform="translate(-457.712 -441.39)"/>
            <path id="XMLID_33_" d="M522.9 538.785s3.758.807 9.162 6.211a103.688 103.688 0 0 1 7.3 8.944 1.637 1.637 0 0 0 2.95-.932l.745-33.076a3.269 3.269 0 0 0-.683-2.609l-8.138-10.123z" class="cls-9" transform="translate(-457.712 -441.391)"/>
            <path id="XMLID_22_" d="M483.957 627.406c.342-3.7-.155-7.174-6.367-16.336a2.863 2.863 0 0 0-4.5 0c-6.211 9.193-6.708 12.671-6.367 16.336a1.274 1.274 0 0 0 1.429.807c3.572-1.832 10.808-1.832 14.379 0a1.243 1.243 0 0 0 1.426-.807z" class="cls-17" transform="translate(-418.924 -512.247)"/>
            <g id="XMLID_107_" class="cls-18" transform="translate(47.716 97.716)">
                <g id="XMLID_222_">
                    <g id="XMLID_225_">
                        <path id="XMLID_226_" d="M469.857 627.378c-.342-3.7.155-7.174 6.367-16.336a2.262 2.262 0 0 1 .683-.652 2.86 2.86 0 0 0-3.82.652c-6.211 9.193-6.708 12.671-6.367 16.336a1.274 1.274 0 0 0 1.429.807 12.674 12.674 0 0 1 1.739-.683c0-.031-.031-.062-.031-.124z" class="cls-19" transform="translate(-466.64 -609.935)"/>
                    </g>
                    <g id="XMLID_223_" transform="translate(10.268 16.881)">
                        <path id="XMLID_224_" d="M499.7 664.356a15.933 15.933 0 0 1 5.621 1.3 1.313 1.313 0 0 0 1.4-.683 20.657 20.657 0 0 0-7.021-.617z" class="cls-19" transform="translate(-499.7 -664.291)"/>
                    </g>
                </g>
            </g>
            <g id="XMLID_46_" transform="translate(54.971 97.729)">
                <g id="XMLID_168_">
                    <g id="XMLID_169_">
                        <path id="XMLID_170_" d="M490.279 611.071a2.8 2.8 0 0 0-.279-.311 2.865 2.865 0 0 1 4.224.311c6.211 9.193 6.708 12.671 6.367 16.336a1.275 1.275 0 0 1-1.429.807 10.863 10.863 0 0 0-2.516-.87c.342-3.664-.186-7.144-6.367-16.273z" class="cls-20" transform="translate(-490 -609.977)"/>
                    </g>
                </g>
            </g>
            <path id="XMLID_17_" d="M483.957 627.406c.342-3.7-.155-7.174-6.367-16.336a2.863 2.863 0 0 0-4.5 0c-6.211 9.193-6.708 12.671-6.367 16.336a1.274 1.274 0 0 0 1.429.807c3.572-1.832 10.808-1.832 14.379 0a1.243 1.243 0 0 0 1.426-.807z" class="cls-1" transform="translate(-418.924 -512.247)"/>
            <path id="XMLID_15_" d="M447 399.309c14.628-23.945 19.939-47.455 16.646-67.052-2.857-17.019-12.05-29.287-23.665-36.958-11.615 7.671-20.808 19.939-23.665 36.958-3.292 19.6 2.05 43.107 16.646 67.052z" class="cls-4" transform="translate(-383.586 -295.3)"/>
            <path id="XMLID_20_" d="M427.438 332.668c1.863-15.4 6.708-27.641 13.23-36.8-.217-.155-.466-.311-.683-.466-11.615 7.671-20.808 19.939-23.665 36.958-3.292 19.6 2.05 43.107 16.646 67.052h2.95c-8.105-23.947-10.838-46.961-8.478-66.744z" class="cls-7" transform="translate(-383.586 -295.369)"/>
            <path id="XMLID_54_" d="M518.817 332.671c-2.826-16.895-11.895-29.1-23.417-36.771a79.421 79.421 0 0 1 7.174 14.721 84.079 84.079 0 0 1 4.907 26.833c1.118 26.678-9.1 56.182-11.243 62.3h5.932c14.63-23.976 19.939-47.486 16.647-67.083z" class="cls-21" transform="translate(-438.752 -295.714)"/>
            <path id="XMLID_5_" d="M516.266 332.258c-2.857-17.019-12.05-29.287-23.665-36.958-.311.186-.59.4-.9.59a52.348 52.348 0 0 1 10.311 10.684c22.858 31.8.932 79.412-2.081 85.717a67.74 67.74 0 0 0-2.267-15.528 70.3 70.3 0 0 0-3.509-9.938l-1.4 31.585h3.851c-.093.311-.186.59-.311.9h3.261c14.691-23.945 20.002-47.456 16.71-67.052z" class="cls-8" transform="translate(-436.201 -295.3)"/>
            <path id="XMLID_6_" d="M420.3 344.122c.435-4.969 2.05-21.119 12.019-34.38 1.584-2.081 3.944-4.907 3.758-5.062-.28-.248-5.746 4.69-9.628 9.938a55.122 55.122 0 0 0-10.031 24.1c-3.292 19.6 2.05 43.107 16.646 67.052h1.273a141.833 141.833 0 0 1-8.447-20.87 122.9 122.9 0 0 1-4.565-19.659c-.837-6.087-1.769-12.609-1.025-21.119z" class="cls-22" transform="translate(-383.655 -301.761)"/>
            <ellipse id="XMLID_13_" cx="8.447" cy="8.447" class="cls-23" rx="8.447" ry="8.447" transform="translate(49.629 31.864)"/>
            <path id="XMLID_11_" d="M447 399.309c14.628-23.945 19.939-47.455 16.646-67.052-2.857-17.019-12.05-29.287-23.665-36.958-11.615 7.671-20.808 19.939-23.665 36.958-3.292 19.6 2.05 43.107 16.646 67.052z" class="cls-9" transform="translate(-383.586 -295.3)"/>
            <ellipse id="XMLID_25_" cx="8.447" cy="8.447" class="cls-24" rx="8.447" ry="8.447" transform="rotate(-80.782 50.385 -4.455)"/>
            <ellipse id="XMLID_26_" cx="5.093" cy="5.093" class="cls-25" rx="5.093" ry="5.093" transform="translate(50.157 33.448)"/>
            <ellipse id="XMLID_1_" cx="8.447" cy="8.447" class="cls-9" rx="8.447" ry="8.447" transform="rotate(-80.782 50.385 -4.455)"/>
            <path id="XMLID_44_" d="M456.2 306.015a36.579 36.579 0 0 1 23.945.031 54.441 54.441 0 0 0-11.988-10.746 54.226 54.226 0 0 0-11.957 10.715z" class="cls-26" transform="translate(-411.726 -295.3)"/>
            <path id="XMLID_23_" d="M456.2 306.015a36.579 36.579 0 0 1 23.945.031 54.441 54.441 0 0 0-11.988-10.746 54.226 54.226 0 0 0-11.957 10.715z" class="cls-9" transform="translate(-411.726 -295.3)"/>
            <path id="XMLID_18_" d="M487.842 571.9c.342 0 .621-.373.652-.87l2.329-38.014c.248-3.913-.994-7.547-2.826-8.416a.335.335 0 0 0-.342 0c-1.832.839-3.075 4.472-2.826 8.416l2.329 38.014c.063.493.374.87.684.87z" class="cls-27" transform="translate(-431.443 -453.352)"/>
            <path id="XMLID_2_" d="M487.842 571.9c.342 0 .621-.373.652-.87l2.329-38.014c.248-3.913-.994-7.547-2.826-8.416a.335.335 0 0 0-.342 0c-1.832.839-3.075 4.472-2.826 8.416l2.329 38.014c.063.493.374.87.684.87z" class="cls-28" transform="translate(-431.443 -453.352)"/>
            <g id="XMLID_8_" class="cls-29" transform="translate(53.386 71.198)">
                <g id="XMLID_199_">
                    <g id="XMLID_202_" transform="translate(0 .047)">
                        <path id="XMLID_203_" d="M487.756 524.7c-1.832.839-3.075 4.472-2.826 8.416l2.329 38.014a.951.951 0 0 0 .466.839V524.7z" class="cls-19" transform="translate(-484.898 -524.7)"/>
                    </g>
                    <g id="XMLID_200_" transform="translate(2.858)">
                        <path id="XMLID_201_" d="M494.1 524.6h.342a.335.335 0 0 0-.342 0z" class="cls-19" transform="translate(-494.1 -524.55)"/>
                    </g>
                </g>
            </g>
            <path id="XMLID_27_" d="M487.842 571.9c.342 0 .621-.373.652-.87l2.329-38.014c.248-3.913-.994-7.547-2.826-8.416a.335.335 0 0 0-.342 0c-1.832.839-3.075 4.472-2.826 8.416l2.329 38.014c.063.493.374.87.684.87z" class="cls-9" transform="translate(-431.443 -453.352)"/>
            <path id="XMLID_255_" d="M630.3 453.725a27.8 27.8 0 0 1-5-15.839A28.232 28.232 0 0 1 633 418.6a28.434 28.434 0 0 1 7.764 19.286 27.927 27.927 0 0 1-4.969 15.839z" class="cls-5" transform="translate(-528.309 -380.307)"/>
            <path id="XMLID_249_" d="M630.3 453.725a27.8 27.8 0 0 1-5-15.839A28.232 28.232 0 0 1 633 418.6a28.434 28.434 0 0 1 7.764 19.286 27.927 27.927 0 0 1-4.969 15.839z" class="cls-4" transform="translate(-528.309 -380.307)"/>
            <path id="XMLID_245_" d="M631.464 418.6c.373.4.745.839 1.087 1.273a31.419 31.419 0 0 0-5.124 17.019c0 6.149.932 11.895 4.1 16.864h-2.857a27.832 27.832 0 0 1 2.8-35.156z" class="cls-10" transform="translate(-527.206 -380.307)"/>
            <path id="XMLID_242_" d="M631.464 418.6a5.417 5.417 0 0 1 .373.435 32.554 32.554 0 0 0-1.4 34.722h-1.77a27.832 27.832 0 0 1 2.8-35.156z" class="cls-11" transform="translate(-527.206 -380.307)"/>
            <path id="XMLID_239_" d="M655.451 437.886a28.2 28.2 0 0 0-7.764-19.286c-.373.4-.745.839-1.087 1.273a30.961 30.961 0 0 1 .155 33.883h3.727a28.175 28.175 0 0 0 4.969-15.87z" class="cls-12" transform="translate(-542.994 -380.307)"/>
            <path id="XMLID_236_" d="M657.037 437.886a28.2 28.2 0 0 0-7.764-19.286 5.405 5.405 0 0 0-.373.435 32.554 32.554 0 0 1 1.4 34.722h1.77a28.175 28.175 0 0 0 4.967-15.871z" class="cls-6" transform="translate(-544.58 -380.307)"/>
            <path id="XMLID_233_" d="M647.687 418.6c-.373.4-.745.839-1.087 1.273a30.961 30.961 0 0 1 .155 33.883h3.727a27.832 27.832 0 0 0-2.8-35.156z" class="cls-12" transform="translate(-542.994 -380.307)"/>
            <path id="XMLID_230_" d="M649.273 418.6a5.405 5.405 0 0 0-.373.435 32.554 32.554 0 0 1 1.4 34.722h1.77a27.832 27.832 0 0 0-2.8-35.156z" class="cls-6" transform="translate(-544.58 -380.307)"/>
            <path id="XMLID_227_" d="M645.2 424.121a31.362 31.362 0 0 0-4.1-5.621 30.3 30.3 0 0 0-4.1 5.621z" class="cls-13" transform="translate(-536.376 -380.238)"/>
            <path id="XMLID_219_" d="M630.3 453.725a27.8 27.8 0 0 1-5-15.839A28.232 28.232 0 0 1 633 418.6a28.434 28.434 0 0 1 7.764 19.286 27.927 27.927 0 0 1-4.969 15.839z" class="cls-9" transform="translate(-528.309 -380.307)"/>
            <path id="XMLID_210_" d="M0 0h10.218" class="cls-16" transform="translate(99.631 69.319)"/>
            <path id="XMLID_228_" d="M463.8 306.613s2.112-3.323 9.286-8.913a31.226 31.226 0 0 0-4.193 7.547c-2.112.404-5.093 1.366-5.093 1.366z" class="cls-30" transform="translate(-416.966 -296.955)"/>
        </g>
    </g>
</svg>
