<svg xmlns="http://www.w3.org/2000/svg" width="24" height="37.012" viewBox="0 0 24 37.012"><defs><style>.a{fill:#fff;}</style></defs><path class="a" d="M12.017,31.1l-6.489-6.86,2.1-1.987,4.383,4.634,4.357-4.631,2.106,1.981ZM24,28.338V8.675A8.685,8.685,0,0,0,15.325,0H8.675A8.685,8.685,0,0,0,0,8.675V28.338a8.685,8.685,0,0,0,8.675,8.675h6.651A8.685,8.685,0,0,0,24,28.338ZM15.325,2.892a5.79,5.79,0,0,1,5.783,5.783V28.338a5.79,5.79,0,0,1-5.783,5.783H8.675a5.79,5.79,0,0,1-5.783-5.783V8.675A5.79,5.79,0,0,1,8.675,2.892ZM12,5.856A1.446,1.446,0,1,0,13.446,7.3,1.446,1.446,0,0,0,12,5.856Zm0,5.783a1.446,1.446,0,1,0,1.446,1.446A1.446,1.446,0,0,0,12,11.639Zm0,5.783a1.446,1.446,0,1,0,1.446,1.446A1.446,1.446,0,0,0,12,17.422Zm0,0" transform="translate(0 0)"/></svg>