<svg xmlns="http://www.w3.org/2000/svg" id="Group_1297" width="193.708" height="205.25" data-name="Group 1297" viewBox="0 0 193.708 205.25">
    <defs>
        <style>
            .cls-1{fill:#948add}.cls-2{fill:#8e6db5}.cls-3{fill:#91c7f6}
        </style>
    </defs>
    <path id="Path_663" d="M370.928 451.515s70.443-10.837 75.861-37.931-32.511-24.384-32.511-24.384 21.675-8.128 13.547-24.384-32.512-2.709-32.512-2.709c5.419-13.547 1.463-45.652-21.675-37.931-24.384 8.128-18.965 37.931-18.965 37.931s-16.256-8.128-24.384 0c-11.65 11.65-2.709 24.384 8.128 32.512 0 0-16.256-2.709-29.8 13.547s16.253 48.768 62.311 43.349z" class="cls-1" data-name="Path 663" transform="translate(-253.612 -322.993)"/>
    <path id="Path_664" d="M335.7 336.726c-6.2 23.219-5.663 50.61-6.177 74.507-.542 24.872 0 50.123 5.8 74.426 1.219 5.148 9.266 2.98 7.965-2.195-6.367-24.953-7.044-51.017-6.8-76.647.19-22.758 4.037-47.576.759-70.118 0-.813-1.355-.7-1.544 0z" class="cls-2" data-name="Path 664" transform="translate(-212.531 -300.539)"/>
    <path id="Path_665" d="M360.04 343.5c-11.623 7.369-23.327 17.231-29.8 29.64-1.815 3.549 3.414 6.665 5.419 3.143a104.578 104.578 0 0 1 25.657-31.022c.975-.813-.3-2.411-1.355-1.734z" class="cls-2" data-name="Path 665" transform="translate(-211.675 -288.181)"/>
    <path id="Path_666" d="M339.766 359.008l-.623 1.057a1.653 1.653 0 0 0 2.249 2.249l1.057-.623c2.709-1.653-1.03-5.419-2.709-2.709z" class="cls-2" data-name="Path 666" transform="translate(-196.168 -263.107)"/>
    <path id="Path_667" d="M351.148 360.553A78.22 78.22 0 0 0 337.6 375.7c-3.224 4.769-8.128 11.3-7.938 17.259a2.709 2.709 0 0 0 4.338 1.786c3.847-4.064 5.419-10.35 8.318-15.172a91.068 91.068 0 0 1 12.328-15.579c2.222-2.276-1.111-5.419-3.468-3.468z" class="cls-2" data-name="Path 667" transform="translate(-212.022 -259.883)"/>
    <path id="Path_668" d="M321.636 344.331c10.323 3.2 17.665 12.382 22.975 21.323 2.086 3.5 7.342-.461 4.443-3.414-8.128-8.128-15.281-16.879-27.093-18.749a.45.45 0 0 0-.244.867z" class="cls-2" data-name="Path 668" transform="translate(-226.157 -287.986)"/>
    <path id="Path_669" d="M317.785 357.67c15.145 5.663 21.431 18.965 32.512 29.423a2.28 2.28 0 1 0 3.224-3.224c-10.675-11.677-18.613-25.143-35.222-27.771a.828.828 0 1 0-.434 1.6z" class="cls-2" data-name="Path 669" transform="translate(-233.224 -266.456)"/>
    <path id="Path_670" d="M301.847 379.711s-12.436-11.786-6.692-24.059 19.453 1.9 18.64 17.692c0 0 7.017-9.889 14.17-13.709s13.547 8.128 7.8 20.4c0 0 10.675-8.778 19.29-4.145s-1.355 38.771-16.717 55c-5.906 6.2-32.837-3.983-42.862-17.042s8.128-13.547 8.128-13.547-17.2-9.239-17.367-15.308 9.351-11.161 15.61-5.282z" class="cls-1" data-name="Path 670" transform="translate(-286.239 -275.113)"/>
    <path id="Path_671" d="M292.907 359.165a862.565 862.565 0 0 0 61.2 95.125c2.14 2.953 6.99.325 4.985-2.926a867.326 867.326 0 0 0-65.024-93.2c-.623-.759-1.734.217-1.3 1z" class="cls-2" data-name="Path 671" transform="translate(-275.24 -263.345)"/>
    <path id="Path_672" d="M301.639 360.7c-2.357 7.342-1.734 17.584-.65 25.116.3 2.113 3.712 1.571 3.685-.488 0-4.389-.7-8.751-.813-13.14a62.122 62.122 0 0 0-.677-11.488.813.813 0 0 0-1.544 0z" class="cls-2" data-name="Path 672" transform="translate(-262.677 -259.491)"/>
    <path id="Path_673" d="M309.614 369.427a70.9 70.9 0 0 0-3.576 12.192c-.65 3.062-1.924 6.475.434 8.968a1.707 1.707 0 0 0 2.33 0c2.709-2.086 2.113-6.475 2.709-9.591a86.207 86.207 0 0 0 2.059-11.027c.189-2.493-3.2-2.466-3.983-.542z" class="cls-2" data-name="Path 673" transform="translate(-253.989 -246)"/>
    <path id="Path_674" d="M291.822 367.231a36.819 36.819 0 0 0 18.965 3.062c2.276-.325 1.463-3.549-.515-3.739-3.007-.271-6.015 0-9.049-.3s-5.879-1.111-8.859-1.49c-1.3-.163-1.815 1.924-.677 2.493z" class="cls-2" data-name="Path 674" transform="translate(-278.002 -251.606)"/>
    <path id="Path_675" d="M295.891 375.778a60.692 60.692 0 0 0 13.357 4.66c4.335 1.3 9.32 3.847 13.872 3.387 1.653-.163 3.034-2.3 1.517-3.631-3.5-3.007-8.589-3.658-12.978-4.741a49.852 49.852 0 0 0-14.983-2.493 1.544 1.544 0 0 0-.759 2.709z" class="cls-2" data-name="Path 675" transform="translate(-270.638 -237.584)"/>
    <path id="Path_676" d="M295.54 436.181s5.419-35.221 51.478-27.093c0 0 8.128-29.8 40.64-32.512s48.768 18.965 48.768 37.931c0 0 25.549-1 26.308 22.542z" class="cls-3" data-name="Path 676" transform="translate(-270.341 -231.798)"/>
</svg>
