<svg xmlns="http://www.w3.org/2000/svg" viewBox="0 0 36.32 36.32"><defs><style>.cls-1{fill:none;stroke:#000;stroke-miterlimit:10;stroke-width:0.57px;}</style></defs><title>adult</title><g id="Layer_2" data-name="Layer 2"><g id="Layer_1-2" data-name="Layer 1"><path class="cls-1" d="M18.16,36A17.88,17.88,0,1,0,.28,18.16,17.91,17.91,0,0,0,18.16,36Z"/><path class="cls-1" d="M13.1,9.13c0-.07,0-.14,0-.2"/><polyline class="cls-1" points="13.08 8.93 13.08 8.93 13.08 8.92 13.08 8.92"/><path class="cls-1" d="M13.08,8.92c0,.2,0,.4,0,.61a1.43,1.43,0,0,0-.45,1.1c0,.69.22,1.9.85,2.25,2,7,7.33,7,9.32,0,.62-.35.82-1.56.85-2.25a1.43,1.43,0,0,0-.45-1.1,5.71,5.71,0,0,0-.06-1"/><path class="cls-1" d="M14.83,16a25.7,25.7,0,0,1-.47,4.29"/><path class="cls-1" d="M21.33,16.34A23.42,23.42,0,0,0,22,20.21"/><path class="cls-1" d="M14.42,19.31c-4.22.38-9.15,2.45-10.16,4.32a24.5,24.5,0,0,0-.74,4.43"/><line class="cls-1" x1="18.14" y1="26.78" x2="15.56" y2="24.52"/><path class="cls-1" d="M15.56,24.52a10.62,10.62,0,0,1-2.51-5"/><path class="cls-1" d="M10.72,20.21s1,9.36-2.16,11.7"/><path class="cls-1" d="M7.79,30.39A9.26,9.26,0,0,1,8.5,33"/><path class="cls-1" d="M21.89,19.29c4.21.38,9.16,2.47,10.17,4.34a23.06,23.06,0,0,1,.8,4.59"/><line class="cls-1" x1="18.18" y1="26.78" x2="20.76" y2="24.52"/><path class="cls-1" d="M20.76,24.52a10.62,10.62,0,0,0,2.51-5"/><path class="cls-1" d="M25.59,20.21s-.91,9.3,2.28,11.64"/><path class="cls-1" d="M28.53,30.39a9.14,9.14,0,0,0-.75,2.68"/><path class="cls-1" d="M19.47,14.6a1.92,1.92,0,0,1-2.56,0"/><path class="cls-1" d="M18.94,9.79a2.31,2.31,0,0,1,1-.19,2.43,2.43,0,0,1,.91.16"/><path class="cls-1" d="M19.92,10.94a.63.63,0,0,0,.63-.63.63.63,0,0,0-1.26,0A.63.63,0,0,0,19.92,10.94Z"/><path class="cls-1" d="M17.38,9.79a2.34,2.34,0,0,0-1-.19,2.43,2.43,0,0,0-.91.16"/><path class="cls-1" d="M16.4,11a.64.64,0,0,0,.63-.64.63.63,0,0,0-.63-.63.64.64,0,0,0-.64.63A.64.64,0,0,0,16.4,11Z"/><path class="cls-1" d="M21.06,29.55s0,1.47,0,1.76a1.49,1.49,0,1,0,3,0c0-1.13,0-.63,0-1.6,0-.63-2.46-.65-3-.12"/><path class="cls-1" d="M13,8.71a4.44,4.44,0,0,1,4.69-1.93c2.28.5,4.36,1.8,5.25,1.3.4-.23.56-1.07.3-2.06-.36-1.43-2.84-3.95-7-2.51-2.59-.34-4.19,2.75-3.27,5.2"/></g></g></svg>