<svg xmlns="http://www.w3.org/2000/svg" viewBox="0 0 27.08 23.41"><title>calender</title><g id="Layer_2" data-name="Layer 2"><g id="Layer_1-2" data-name="Layer 1"><path d="M26.35,23.41H.71A.71.71,0,0,1,0,22.7V1.32A.71.71,0,0,1,.71.6H26.37a.71.71,0,0,1,.71.72V22.68A.72.72,0,0,1,26.35,23.41ZM1.43,22h24.2V2H1.43Z"/><path d="M3.29,2.63a.71.71,0,0,1-.71-.71V.71A.72.72,0,0,1,4,.71V1.92A.71.71,0,0,1,3.29,2.63Z"/><path d="M5.57,2.63a.71.71,0,0,1-.72-.71V.71a.72.72,0,0,1,1.43,0V1.92A.71.71,0,0,1,5.57,2.63Z"/><path d="M7.84,2.63a.71.71,0,0,1-.71-.71V.71a.72.72,0,0,1,1.43,0V1.92A.71.71,0,0,1,7.84,2.63Z"/><path d="M10.12,2.63a.71.71,0,0,1-.72-.71V.71a.72.72,0,0,1,1.43,0V1.92A.71.71,0,0,1,10.12,2.63Z"/><path d="M12.39,2.63a.71.71,0,0,1-.71-.71V.71a.72.72,0,0,1,1.43,0V1.92A.71.71,0,0,1,12.39,2.63Z"/><path d="M14.67,2.63A.71.71,0,0,1,14,1.92V.71a.72.72,0,0,1,1.43,0V1.92A.71.71,0,0,1,14.67,2.63Z"/><path d="M16.94,2.63a.71.71,0,0,1-.71-.71V.71a.72.72,0,0,1,1.43,0V1.92A.71.71,0,0,1,16.94,2.63Z"/><path d="M19.22,2.63a.71.71,0,0,1-.71-.71V.71a.71.71,0,0,1,1.42,0V1.92A.69.69,0,0,1,19.22,2.63Z"/><path d="M21.5,2.63a.71.71,0,0,1-.72-.71V.71a.72.72,0,0,1,1.43,0V1.92A.69.69,0,0,1,21.5,2.63Z"/><path d="M23.77,2.63a.71.71,0,0,1-.71-.71V.71a.72.72,0,0,1,1.43,0V1.92A.7.7,0,0,1,23.77,2.63Z"/><path d="M6.79,6.47H3.29A.72.72,0,0,1,3.29,5h3.5a.72.72,0,0,1,0,1.43Z"/><path d="M23.47,6.47H10A.72.72,0,0,1,10,5H23.47a.72.72,0,1,1,0,1.43Z"/><path d="M5.59,10H5a.35.35,0,0,1-.35-.35A.37.37,0,0,1,5,9.33h.61a.36.36,0,0,1,0,.71Z"/><path d="M8.33,10h-.6a.36.36,0,0,1-.36-.35.37.37,0,0,1,.36-.36h.6a.36.36,0,1,1,0,.71Z"/><path d="M11.08,10h-.6a.36.36,0,0,1-.36-.35.37.37,0,0,1,.36-.36h.6a.36.36,0,0,1,0,.71Z"/><path d="M13.82,10h-.6a.36.36,0,0,1-.36-.35.37.37,0,0,1,.36-.36h.6a.36.36,0,1,1,0,.71Z"/><path d="M16.57,10H16a.36.36,0,0,1-.36-.35A.37.37,0,0,1,16,9.33h.6a.36.36,0,1,1,0,.71Z"/><path d="M19.31,10h-.6a.35.35,0,0,1-.35-.35.36.36,0,0,1,.35-.36h.6a.36.36,0,1,1,0,.71Z"/><path d="M22.06,10h-.6a.36.36,0,0,1-.36-.35.37.37,0,0,1,.36-.36h.6a.36.36,0,1,1,0,.71Z"/><path d="M5.59,12.54H5a.35.35,0,0,1-.35-.35A.37.37,0,0,1,5,11.83h.61a.36.36,0,0,1,0,.71Z"/><path d="M8.33,12.54h-.6a.36.36,0,0,1-.36-.35.37.37,0,0,1,.36-.36h.6a.36.36,0,1,1,0,.71Z"/><path d="M11.08,12.54h-.6a.36.36,0,0,1-.36-.35.37.37,0,0,1,.36-.36h.6a.36.36,0,0,1,0,.71Z"/><path d="M13.82,12.54h-.6a.36.36,0,0,1-.36-.35.37.37,0,0,1,.36-.36h.6a.36.36,0,1,1,0,.71Z"/><path d="M16.57,12.54H16a.36.36,0,0,1-.36-.35.37.37,0,0,1,.36-.36h.6a.36.36,0,1,1,0,.71Z"/><path d="M19.31,12.54h-.6a.35.35,0,0,1-.35-.35.36.36,0,0,1,.35-.36h.6a.36.36,0,1,1,0,.71Z"/><path d="M22.06,12.54h-.6a.36.36,0,0,1-.36-.35.37.37,0,0,1,.36-.36h.6a.36.36,0,1,1,0,.71Z"/><path d="M5.59,15H5a.36.36,0,0,1-.35-.36A.37.37,0,0,1,5,14.31h.61a.36.36,0,0,1,0,.72Z"/><path d="M8.33,15h-.6a.36.36,0,0,1-.36-.36.37.37,0,0,1,.36-.36h.6a.36.36,0,0,1,0,.72Z"/><path d="M11.08,15h-.6a.36.36,0,0,1-.36-.36.37.37,0,0,1,.36-.36h.6a.36.36,0,0,1,0,.72Z"/><path d="M13.82,15h-.6a.36.36,0,0,1-.36-.36.37.37,0,0,1,.36-.36h.6a.36.36,0,0,1,0,.72Z"/><path d="M16.57,15H16a.36.36,0,0,1-.36-.36.37.37,0,0,1,.36-.36h.6a.36.36,0,0,1,0,.72Z"/><path d="M19.31,15h-.6a.36.36,0,0,1-.35-.36.36.36,0,0,1,.35-.36h.6a.36.36,0,1,1,0,.72Z"/><path d="M22.06,15h-.6a.36.36,0,0,1-.36-.36.37.37,0,0,1,.36-.36h.6a.36.36,0,1,1,0,.72Z"/><path d="M5.59,17.51H5a.36.36,0,0,1,0-.72h.61a.36.36,0,0,1,.35.36A.34.34,0,0,1,5.59,17.51Z"/><path d="M8.33,17.51h-.6a.36.36,0,0,1,0-.72h.6a.36.36,0,0,1,.36.36A.35.35,0,0,1,8.33,17.51Z"/><path d="M11.08,17.51h-.6a.36.36,0,1,1,0-.72h.6a.36.36,0,0,1,.35.36A.34.34,0,0,1,11.08,17.51Z"/><path d="M13.82,17.51h-.6a.36.36,0,1,1,0-.72h.6a.36.36,0,0,1,.36.36A.35.35,0,0,1,13.82,17.51Z"/><path d="M5.59,20H5a.36.36,0,0,1,0-.71h.61a.35.35,0,0,1,.35.35A.36.36,0,0,1,5.59,20Z"/><path d="M8.33,20h-.6a.36.36,0,1,1,0-.71h.6a.35.35,0,0,1,.36.35A.36.36,0,0,1,8.33,20Z"/><path d="M11.08,20h-.6a.36.36,0,1,1,0-.71h.6a.35.35,0,0,1,.35.35A.36.36,0,0,1,11.08,20Z"/><path d="M16.57,17.51H16a.36.36,0,0,1,0-.72h.6a.36.36,0,0,1,.36.36A.34.34,0,0,1,16.57,17.51Z"/><path d="M19.31,17.51h-.6a.36.36,0,0,1-.35-.36.35.35,0,0,1,.35-.36h.6a.36.36,0,0,1,.36.36A.34.34,0,0,1,19.31,17.51Z"/><path d="M22.06,17.51h-.6a.36.36,0,1,1,0-.72h.6a.36.36,0,0,1,.36.36A.34.34,0,0,1,22.06,17.51Z"/></g></g></svg>