<svg xmlns="http://www.w3.org/2000/svg" width="26.989" height="26.99" viewBox="0 0 26.989 26.99">
    <defs>
        <style>
            .cls-1{fill:#2699fb}.cls-2{fill:#1e81ce}
        </style>
    </defs>
    <g id="correct" transform="translate(-.008)">
        <path id="Path_448" d="M32.382 14.533l-3.308-1.472L27.6 9.752l-3.6.376L21.071 8l-2.931 2.128-3.6-.376-1.471 3.308-3.309 1.473.376 3.6-2.124 2.93 2.124 2.931-.376 3.6 3.308 1.472 1.473 3.31 3.6-.376 2.929 2.124L24 32l3.6.376 1.472-3.308 3.31-1.473-.376-3.6 2.124-2.929-2.124-2.931zM18.459 26.287l-3.7-3.7L16 21.363l2.464 2.459 7.387-7.387 1.232 1.232zm0 0" class="cls-1" data-name="Path 448" transform="translate(-7.569 -7.568)"/>
        <g id="Group_156" data-name="Group 156" transform="translate(.008)">
            <path id="Path_449" d="M26.914 13.239l-2.027-2.8.359-3.434a.435.435 0 0 0-.256-.443l-3.155-1.4-1.4-3.155a.438.438 0 0 0-.443-.256l-3.435.359L13.758.083a.435.435 0 0 0-.511 0L10.45 2.11l-3.434-.359a.441.441 0 0 0-.443.256l-1.4 3.155-3.155 1.4a.435.435 0 0 0-.256.443l.359 3.434-2.031 2.8a.435.435 0 0 0 0 .511l2.027 2.8-.359 3.435a.435.435 0 0 0 .256.443l3.155 1.4 1.4 3.155a.44.44 0 0 0 .443.256l3.434-.359 2.8 2.027a.435.435 0 0 0 .511 0l2.8-2.027 3.435.359a.438.438 0 0 0 .443-.256l1.4-3.155 3.155-1.4a.436.436 0 0 0 .256-.443l-.359-3.435 2.027-2.8a.435.435 0 0 0 0-.511zm-2.83 2.931a.434.434 0 0 0-.081.3l.343 3.286-3.018 1.344a.432.432 0 0 0-.221.221l-1.343 3.019-3.287-.34a.434.434 0 0 0-.3.081L13.5 26.016l-2.675-1.939a.431.431 0 0 0-.255-.083.284.284 0 0 0-.044 0l-3.287.343L5.9 21.321a.435.435 0 0 0-.221-.221l-3.022-1.343L3 16.471a.436.436 0 0 0-.081-.3L.981 13.495 2.92 10.82a.436.436 0 0 0 .081-.3l-.344-3.287 3.019-1.344a.431.431 0 0 0 .224-.22L7.24 2.65l3.287.343a.439.439 0 0 0 .3-.081L13.5.973l2.675 1.939a.438.438 0 0 0 .3.081l3.286-.343 1.343 3.019a.435.435 0 0 0 .221.221l3.019 1.343L24 10.519a.434.434 0 0 0 .081.3l1.939 2.675zm0 0" class="cls-2" data-name="Path 449" transform="translate(-.008)"/>
            <path id="Path_450" d="M135.886 155.093a.435.435 0 0 0-.616 0l-7.079 7.079-2.156-2.152a.435.435 0 0 0-.615 0l-1.234 1.227a.435.435 0 0 0 0 .616l3.7 3.7a.436.436 0 0 0 .616 0l8.619-8.619a.436.436 0 0 0 0-.616zm-7.695 9.543l-3.08-3.08.616-.614 2.157 2.152a.435.435 0 0 0 .615 0l7.079-7.079.616.616zm0 0" class="cls-2" data-name="Path 450" transform="translate(-117.308 -146.533)"/>
        </g>
    </g>
</svg>
