<svg xmlns="http://www.w3.org/2000/svg" width="283.544" height="202.738" viewBox="0 0 283.544 202.738">
  <g id="Group_784" data-name="Group 784" transform="translate(-578.033 -193.354)">
    <path id="Path_16" data-name="Path 16" d="M288.329,225.214q-1.327,1.167-2.714,2.267c-.155.126-.316.247-.474.375a95.3,95.3,0,0,1-10.363,7l-.674.392c-.163.1-.323.19-.493.281-3.765,2.174-7.671,4.175-11.624,6.07l-.042.022-.3.141q-4.782,2.292-9.707,4.387l-.079.03q-2.221.935-4.441,1.821c-.6.247-1.211.476-1.818.711-1.142.437-2.287.866-3.442,1.278l-.143.054-.247.086-.308.114q-4.518,1.614-9.156,2.981l-.054.015q-3.235.942-6.511,1.744l-.3.074c-3.208.775-6.467,1.441-9.746,1.974l-.755.121q-3.6.565-7.244.923c-13.667,1.32-27.5.247-41.079-1.594-27.427-3.721-54.492-10.7-79.175-21.629q-7.106-3.146-13.936-6.736c-.037-.02-.069-.039-.106-.057q-4.088-2.149-8.066-4.478c-.777-.449-1.549-.908-2.317-1.369q-1.416-.854-2.82-1.727-1.851-1.155-3.7-2.366l-.577-.385-.222-.151c-.313-.21-.622-.419-.933-.632-11.6-7.9-21.937-17.464-26.823-29.438-5.645-13.817-2.033-31.335,11.949-39.5,4.806-2.813,10.393-4.34,16.038-5.6l.577-.128c.955-.21,1.91-.412,2.86-.614,3.328-.706,6.674-1.406,9.988-2.189h0c1.727-.407,3.437-.834,5.137-1.3l.7-.192a83.175,83.175,0,0,0,11.994-4.224H87.2q.625-.278,1.234-.575c.262-.123.523-.247.785-.382a46.476,46.476,0,0,0,12.053-8.431c.274-.276.54-.558.8-.839.2-.22.4-.442.587-.664a16.86,16.86,0,0,0,4.37-9.186h0a11.843,11.843,0,0,0-.148-3.314c-.387-2.07-.762-4.1-1.039-6.072a31.118,31.118,0,0,1,.025-10.686h0a20.115,20.115,0,0,1,5.529-10.1q.713-.74,1.537-1.48a32.392,32.392,0,0,1,8.544-5.4q.577-.247,1.162-.493c8.655-3.5,19.055-4.234,28.772-3.75a156.958,156.958,0,0,1,26.958,3.75c.7.158,1.406.323,2.1.493A186.873,186.873,0,0,1,202.685,83.5c18.846,7.089,36.633,16.931,53.251,27.792l.493.321q1.041.679,2.07,1.362,1.991,1.32,3.948,2.657l.881.6q.651.444,1.3.891l1.323.915h0a1.451,1.451,0,0,1,.178.126l1.125.78c.651.454,1.3.91,1.947,1.369h0l1.392.987c.289.207.58.412.868.622l1.48,1.081.331.247c.069.049.138.1.2.153l.042.027c4.012,2.944,7.928,6,11.6,9.23l.474.419.049.044c.4.355.8.716,1.192,1.078a80.329,80.329,0,0,1,12.593,14.232C315.534,172.368,310.75,205.507,288.329,225.214Z" transform="translate(552.643 126.743)" fill="#6c63ff" opacity="0.1"/>
    <g id="Layer_2" data-name="Layer 2" transform="translate(609.939 227.963)" style="isolation: isolate">
      <g id="Layer_1" data-name="Layer 1">
        <path id="Path_630" data-name="Path 630" d="M73.533,58.063a9.326,9.326,0,0,0-13.29,1.772l2.751-3.591A9.495,9.495,0,1,0,47.933,44.68L50.218,41.6A9.495,9.495,0,0,0,35.156,30.037l-6.3,8.254A9.495,9.495,0,0,0,13.8,26.727L8.623,33.255A9.495,9.495,0,1,0,23.685,44.819l-2.052,2.7A9.495,9.495,0,1,0,36.695,59.089l.746-.979A9.466,9.466,0,1,0,52.5,69.581l1.306-1.725A9.509,9.509,0,0,0,68.87,79.466l6.2-8.114a9.326,9.326,0,0,0-1.539-13.29Z" transform="translate(24.392 84.302)" fill="#fff"/>
        <path id="Path_631" data-name="Path 631" d="M91.505,98.531,75.371,105.9,32.75,38.984,91.505,0S60.635,28.352,71.221,42.947c5.269,7.088,11.1,13.663,4.663,32.269S91.505,98.531,91.505,98.531Z" transform="translate(119.967)" fill="#f5f5f5"/>
        <path id="Path_632" data-name="Path 632" d="M0,98.531,16.134,105.9,58.8,38.984,0,0S28.865,27.979,29.378,46.957,14.735,58.708,9.326,69.947,20.8,90.93,0,98.531Z" fill="#f5f5f5"/>
        <path id="Path_633" data-name="Path 633" d="M108.193,13.1a10.212,10.212,0,0,1-6.808,5.642,23.922,23.922,0,0,1-16.647-.653l-14.6-5.829a31.01,31.01,0,0,0-19.119-1.212l-13.01,3.311A21.45,21.45,0,0,0,26.356,22.1L16.237,35.3a9.839,9.839,0,0,0,.28,12.637A9.326,9.326,0,0,0,31.019,47L41.977,33.015A56.936,56.936,0,0,0,54.195,34.18a38.517,38.517,0,0,1,23.642,7.741l41.5,31.8,16.274-17.58Z" transform="translate(51.565 36.932)" fill="#fff"/>
        <path id="Path_634" data-name="Path 634" d="M151.735,71.3,119.466,46.589,110.14,39.5A38.517,38.517,0,0,0,86.5,31.761,56.937,56.937,0,0,1,74.42,30.641L63.462,44.631a9.326,9.326,0,0,1-14.5.7,9.839,9.839,0,0,1-.28-12.637l6.808-8.813S39.54,21.548,32.5,10.73L5.22,53.677l15.2,16.414A9.326,9.326,0,0,1,35.39,80.77l.326.233,4.663-6.155A9.57,9.57,0,1,1,55.488,86.6L52.97,89.863a9.495,9.495,0,0,1,15.062,11.564l-1.4,1.819h.233a9.326,9.326,0,0,1,14.829,10.539l7.554,5.456a9.495,9.495,0,1,0,11.564-15.062l7.927,5.736a9.495,9.495,0,0,0,11.564-15.062l8.347,6.388a9.326,9.326,0,0,0,13.29-1.772h0a9.326,9.326,0,0,0-1.772-13.29,9.495,9.495,0,1,0,11.564-15.062Z" transform="translate(19.121 39.305)" fill="#fff"/>
        <path id="Path_635" data-name="Path 635" d="M39.334,31.1a87.244,87.244,0,0,0-6.2,7.228A9.326,9.326,0,0,1,22.36,41.452l4.2,2.984A9.337,9.337,0,0,0,40.22,31.706Z" transform="translate(81.907 113.922)" fill="#f5f5f5"/>
        <path id="Path_636" data-name="Path 636" d="M43.381,29.24a45.932,45.932,0,0,0-6.575,6.9A9.326,9.326,0,0,1,26.64,39.452l3.637,2.8A9.34,9.34,0,0,0,44.033,29.613Z" transform="translate(97.585 107.109)" fill="#f5f5f5"/>
        <path id="Path_637" data-name="Path 637" d="M73.364,51.15l-31.8-24.388-9.326-7.088A36.186,36.186,0,0,0,26.5,16.13l8.207,6.3,31.8,24.388a9.886,9.886,0,0,1,2.751,12.824A9.326,9.326,0,0,1,60.354,64.3a1.772,1.772,0,0,0-1.819,2.378,9.326,9.326,0,0,1-1.4,9h0a9.326,9.326,0,0,1-10.166,3.311l3.637,2.8A9.326,9.326,0,0,0,63.9,80.014h0a9.326,9.326,0,0,0-1.772-13.29A9.326,9.326,0,0,0,76.115,64.16a9.886,9.886,0,0,0-2.751-13.01Z" transform="translate(97.072 59.086)" fill="#f5f5f5"/>
        <path id="Path_638" data-name="Path 638" d="M9.889,27.588a9.326,9.326,0,0,1-1.958-2.1A9.326,9.326,0,0,0,20.195,38.547,40.9,40.9,0,0,0,9.889,27.588Z" transform="translate(24.291 93.372)" fill="#f5f5f5"/>
        <path id="Path_639" data-name="Path 639" d="M40.044,31a9.326,9.326,0,0,1-.793,1.306l-6.2,8.021A9.359,9.359,0,0,1,17.8,40,9.442,9.442,0,1,0,33.655,50.259l6.2-8.114A9.326,9.326,0,0,0,40.044,31Z" transform="translate(59.653 113.556)" fill="#f5f5f5"/>
        <path id="Path_640" data-name="Path 640" d="M12.9,30.648a9.326,9.326,0,0,1-1.958-2.1A9.435,9.435,0,1,0,26.655,39C24.416,35.638,17,33.819,12.9,30.648Z" transform="translate(34.292 104.582)" fill="#f5f5f5"/>
        <path id="Path_641" data-name="Path 641" d="M30.555,40.509c-2.238-3.311-10.166-4.43-14.316-7.6a9.326,9.326,0,0,1-1.958-2.1A9.442,9.442,0,1,0,30.135,41.069Z" transform="translate(46.759 112.86)" fill="#f5f5f5"/>
        <path id="Path_642" data-name="Path 642" d="M41.931,15.683c6.575,10.772,17.487,31.243,11.145,39.683-1.585,2.145-9.886,0-22.336-5.176L58.206,71.267,74.48,53.687,47.107,10.74A9.326,9.326,0,0,1,41.931,15.683Z" transform="translate(112.604 39.342)" fill="#f5f5f5"/>
        <path id="Path_643" data-name="Path 643" d="M20.422,70.055a9.325,9.325,0,0,1,1.4-.979c-.606-4.663-1.352-8.907-1.4-12.217C20.189,42.309,32.592,10.74,32.592,10.74L5.22,53.641Z" transform="translate(19.121 39.342)" fill="#f5f5f5"/>
        <path id="Path_644" data-name="Path 644" d="M40.839,16.073A56.937,56.937,0,0,1,28.668,15L17.71,28.989a97.133,97.133,0,0,1,36-11,40.243,40.243,0,0,0-12.87-1.912Z" transform="translate(64.874 54.947)" fill="#f5f5f5"/>
        <path id="Path_645" data-name="Path 645" d="M122.075,62.216a3.73,3.73,0,0,1-2.285-.793l-41.5-31.8a34.507,34.507,0,0,0-21.217-7.135h-.28A66.357,66.357,0,0,1,46.3,21.694l-9.326,12.45a13.243,13.243,0,0,1-20.191.979,13.616,13.616,0,0,1-.7-17.3A3.769,3.769,0,1,1,22,22.487a6.109,6.109,0,0,0,0,7.834,5.829,5.829,0,0,0,4.663,1.865,5.736,5.736,0,0,0,4.29-2.238L41.916,15.678a3.777,3.777,0,0,1,3.824-1.352A65.282,65.282,0,0,0,57.071,15.4,40.522,40.522,0,0,1,83,23.885l41.5,31.8a3.73,3.73,0,0,1-2.285,6.668Z" transform="translate(48.781 52.123)" fill="#f5f5f5"/>
        <path id="Path_646" data-name="Path 646" d="M66.2,86.486a3.73,3.73,0,0,1-2.938-6.015l6.2-8.114A5.736,5.736,0,0,0,68.4,64.29a5.829,5.829,0,0,0-4.243-1.166,5.736,5.736,0,0,0-3.824,2.192h0a3.769,3.769,0,0,1-5.922-4.663h0l2.751-3.591a5.843,5.843,0,0,0-9.326-7.041h0a3.769,3.769,0,0,1-5.922-4.663h0l2.518-3.264A5.829,5.829,0,0,0,35.1,35.1l-6.3,8.254h0a3.769,3.769,0,1,1-5.922-4.663h0a5.736,5.736,0,0,0-.7-7.787,5.829,5.829,0,0,0-4.243-1.166,5.736,5.736,0,0,0-3.824,2.192,3.769,3.769,0,0,1-5.922-4.663,13.243,13.243,0,0,1,22.336,2.192A13.2,13.2,0,0,1,53.194,40.228a13.2,13.2,0,0,1,12.5,15.155A13.243,13.243,0,0,1,75.53,76.927l-6.2,8.114A3.73,3.73,0,0,1,66.2,86.486Z" transform="translate(27.058 81.013)" fill="#f5f5f5"/>
      </g>
    </g>
    <path id="Path_287" data-name="Path 287" d="M384.37,301.427l-4.776-4.8a2.536,2.536,0,0,0-3.6-.024L346,326.336l-12.681-12.78a2.529,2.529,0,0,0-3.576-.026l-4.827,4.776a2.563,2.563,0,0,0-.024,3.6l19.257,19.409a2.563,2.563,0,0,0,3.6.026l36.59-36.315a2.536,2.536,0,0,0,.027-3.6Z" transform="translate(365.834 -102.508)" fill="#3acc6c"/>
    <g id="Layer_2-2" data-name="Layer 2" transform="translate(609.939 227.963)" style="mix-blend-mode: multiply;isolation: isolate">
      <g id="Layer_1-2" data-name="Layer 1">
        <path id="Path_630-2" data-name="Path 630" d="M73.533,58.063a9.326,9.326,0,0,0-13.29,1.772l2.751-3.591A9.495,9.495,0,1,0,47.933,44.68L50.218,41.6A9.495,9.495,0,0,0,35.156,30.037l-6.3,8.254A9.495,9.495,0,0,0,13.8,26.727L8.623,33.255A9.495,9.495,0,1,0,23.685,44.819l-2.052,2.7A9.495,9.495,0,1,0,36.695,59.089l.746-.979A9.466,9.466,0,1,0,52.5,69.581l1.306-1.725A9.509,9.509,0,0,0,68.87,79.466l6.2-8.114a9.326,9.326,0,0,0-1.539-13.29Z" transform="translate(24.392 84.302)" fill="#fff"/>
        <path id="Path_631-2" data-name="Path 631" d="M91.505,98.531,75.371,105.9,32.75,38.984,91.505,0S60.635,28.352,71.221,42.947c5.269,7.088,11.1,13.663,4.663,32.269S91.505,98.531,91.505,98.531Z" transform="translate(119.967)" fill="#f5f5f5"/>
        <path id="Path_632-2" data-name="Path 632" d="M0,98.531,16.134,105.9,58.8,38.984,0,0S28.865,27.979,29.378,46.957,14.735,58.708,9.326,69.947,20.8,90.93,0,98.531Z" fill="#f5f5f5"/>
        <path id="Path_633-2" data-name="Path 633" d="M108.193,13.1a10.212,10.212,0,0,1-6.808,5.642,23.922,23.922,0,0,1-16.647-.653l-14.6-5.829a31.01,31.01,0,0,0-19.119-1.212l-13.01,3.311A21.45,21.45,0,0,0,26.356,22.1L16.237,35.3a9.839,9.839,0,0,0,.28,12.637A9.326,9.326,0,0,0,31.019,47L41.977,33.015A56.936,56.936,0,0,0,54.195,34.18a38.517,38.517,0,0,1,23.642,7.741l41.5,31.8,16.274-17.58Z" transform="translate(51.565 36.932)" fill="#fff"/>
        <path id="Path_634-2" data-name="Path 634" d="M151.735,71.3,119.466,46.589,110.14,39.5A38.517,38.517,0,0,0,86.5,31.761,56.937,56.937,0,0,1,74.42,30.641L63.462,44.631a9.326,9.326,0,0,1-14.5.7,9.839,9.839,0,0,1-.28-12.637l6.808-8.813S39.54,21.548,32.5,10.73L5.22,53.677l15.2,16.414A9.326,9.326,0,0,1,35.39,80.77l.326.233,4.663-6.155A9.57,9.57,0,1,1,55.488,86.6L52.97,89.863a9.495,9.495,0,0,1,15.062,11.564l-1.4,1.819h.233a9.326,9.326,0,0,1,14.829,10.539l7.554,5.456a9.495,9.495,0,1,0,11.564-15.062l7.927,5.736a9.495,9.495,0,0,0,11.564-15.062l8.347,6.388a9.326,9.326,0,0,0,13.29-1.772h0a9.326,9.326,0,0,0-1.772-13.29,9.495,9.495,0,1,0,11.564-15.062Z" transform="translate(19.121 39.305)" fill="#fff"/>
        <path id="Path_635-2" data-name="Path 635" d="M39.334,31.1a87.244,87.244,0,0,0-6.2,7.228A9.326,9.326,0,0,1,22.36,41.452l4.2,2.984A9.337,9.337,0,0,0,40.22,31.706Z" transform="translate(81.907 113.922)" fill="#f5f5f5"/>
        <path id="Path_636-2" data-name="Path 636" d="M43.381,29.24a45.932,45.932,0,0,0-6.575,6.9A9.326,9.326,0,0,1,26.64,39.452l3.637,2.8A9.34,9.34,0,0,0,44.033,29.613Z" transform="translate(97.585 107.109)" fill="#f5f5f5"/>
        <path id="Path_637-2" data-name="Path 637" d="M73.364,51.15l-31.8-24.388-9.326-7.088A36.186,36.186,0,0,0,26.5,16.13l8.207,6.3,31.8,24.388a9.886,9.886,0,0,1,2.751,12.824A9.326,9.326,0,0,1,60.354,64.3a1.772,1.772,0,0,0-1.819,2.378,9.326,9.326,0,0,1-1.4,9h0a9.326,9.326,0,0,1-10.166,3.311l3.637,2.8A9.326,9.326,0,0,0,63.9,80.014h0a9.326,9.326,0,0,0-1.772-13.29A9.326,9.326,0,0,0,76.115,64.16a9.886,9.886,0,0,0-2.751-13.01Z" transform="translate(97.072 59.086)" fill="#f5f5f5"/>
        <path id="Path_638-2" data-name="Path 638" d="M9.889,27.588a9.326,9.326,0,0,1-1.958-2.1A9.326,9.326,0,0,0,20.195,38.547,40.9,40.9,0,0,0,9.889,27.588Z" transform="translate(24.291 93.372)" fill="#f5f5f5"/>
        <path id="Path_639-2" data-name="Path 639" d="M40.044,31a9.326,9.326,0,0,1-.793,1.306l-6.2,8.021A9.359,9.359,0,0,1,17.8,40,9.442,9.442,0,1,0,33.655,50.259l6.2-8.114A9.326,9.326,0,0,0,40.044,31Z" transform="translate(59.653 113.556)" fill="#f5f5f5"/>
        <path id="Path_640-2" data-name="Path 640" d="M12.9,30.648a9.326,9.326,0,0,1-1.958-2.1A9.435,9.435,0,1,0,26.655,39C24.416,35.638,17,33.819,12.9,30.648Z" transform="translate(34.292 104.582)" fill="#f5f5f5"/>
        <path id="Path_641-2" data-name="Path 641" d="M30.555,40.509c-2.238-3.311-10.166-4.43-14.316-7.6a9.326,9.326,0,0,1-1.958-2.1A9.442,9.442,0,1,0,30.135,41.069Z" transform="translate(46.759 112.86)" fill="#f5f5f5"/>
        <path id="Path_642-2" data-name="Path 642" d="M41.931,15.683c6.575,10.772,17.487,31.243,11.145,39.683-1.585,2.145-9.886,0-22.336-5.176L58.206,71.267,74.48,53.687,47.107,10.74A9.326,9.326,0,0,1,41.931,15.683Z" transform="translate(112.604 39.342)" fill="#f5f5f5"/>
        <path id="Path_643-2" data-name="Path 643" d="M20.422,70.055a9.325,9.325,0,0,1,1.4-.979c-.606-4.663-1.352-8.907-1.4-12.217C20.189,42.309,32.592,10.74,32.592,10.74L5.22,53.641Z" transform="translate(19.121 39.342)" fill="#f5f5f5"/>
        <path id="Path_644-2" data-name="Path 644" d="M40.839,16.073A56.937,56.937,0,0,1,28.668,15L17.71,28.989a97.133,97.133,0,0,1,36-11,40.243,40.243,0,0,0-12.87-1.912Z" transform="translate(64.874 54.947)" fill="#f5f5f5"/>
        <path id="Path_645-2" data-name="Path 645" d="M122.075,62.216a3.73,3.73,0,0,1-2.285-.793l-41.5-31.8a34.507,34.507,0,0,0-21.217-7.135h-.28A66.357,66.357,0,0,1,46.3,21.694l-9.326,12.45a13.243,13.243,0,0,1-20.191.979,13.616,13.616,0,0,1-.7-17.3A3.769,3.769,0,1,1,22,22.487a6.109,6.109,0,0,0,0,7.834,5.829,5.829,0,0,0,4.663,1.865,5.736,5.736,0,0,0,4.29-2.238L41.916,15.678a3.777,3.777,0,0,1,3.824-1.352A65.282,65.282,0,0,0,57.071,15.4,40.522,40.522,0,0,1,83,23.885l41.5,31.8a3.73,3.73,0,0,1-2.285,6.668Z" transform="translate(48.781 52.123)" fill="#f5f5f5"/>
        <path id="Path_646-2" data-name="Path 646" d="M66.2,86.486a3.73,3.73,0,0,1-2.938-6.015l6.2-8.114A5.736,5.736,0,0,0,68.4,64.29a5.829,5.829,0,0,0-4.243-1.166,5.736,5.736,0,0,0-3.824,2.192h0a3.769,3.769,0,0,1-5.922-4.663h0l2.751-3.591a5.843,5.843,0,0,0-9.326-7.041h0a3.769,3.769,0,0,1-5.922-4.663h0l2.518-3.264A5.829,5.829,0,0,0,35.1,35.1l-6.3,8.254h0a3.769,3.769,0,1,1-5.922-4.663h0a5.736,5.736,0,0,0-.7-7.787,5.829,5.829,0,0,0-4.243-1.166,5.736,5.736,0,0,0-3.824,2.192,3.769,3.769,0,0,1-5.922-4.663,13.243,13.243,0,0,1,22.336,2.192A13.2,13.2,0,0,1,53.194,40.228a13.2,13.2,0,0,1,12.5,15.155A13.243,13.243,0,0,1,75.53,76.927l-6.2,8.114A3.73,3.73,0,0,1,66.2,86.486Z" transform="translate(27.058 81.013)" fill="#f5f5f5"/>
      </g>
    </g>
  </g>
</svg>
