<svg id="instagram-alt" xmlns="http://www.w3.org/2000/svg" width="38" height="38" viewBox="0 0 38 38">
  <defs>
    <style>
      .cls-1 {
        fill: #f3f4f4;
      }
    </style>
  </defs>
  <path id="instagram-alt-2" data-name="instagram-alt" class="cls-1" d="M21,16.288A4.712,4.712,0,1,0,25.712,21,4.712,4.712,0,0,0,21,16.288Zm18.867-4.655a12.407,12.407,0,0,0-.8-4.294,7.6,7.6,0,0,0-4.408-4.408,12.407,12.407,0,0,0-4.294-.8C27.916,2,27.194,2,21,2s-6.916,0-9.367.133a12.407,12.407,0,0,0-4.294.8A7.6,7.6,0,0,0,2.931,7.339a12.407,12.407,0,0,0-.8,4.294C2,14.084,2,14.806,2,21s0,6.916.133,9.367a13.034,13.034,0,0,0,.8,4.313A7.486,7.486,0,0,0,4.66,37.34a7.391,7.391,0,0,0,2.679,1.729,12.407,12.407,0,0,0,4.294.8C14.084,40,14.806,40,21,40s6.916,0,9.367-.133a12.407,12.407,0,0,0,4.294-.8A7.391,7.391,0,0,0,37.34,37.34a7.486,7.486,0,0,0,1.729-2.66,12.54,12.54,0,0,0,.8-4.313C40,27.916,40,27.194,40,21s0-6.916-.133-9.367Zm-4.826,15.2a10.887,10.887,0,0,1-.741,3.42A7.334,7.334,0,0,1,30.253,34.3a10.887,10.887,0,0,1-3.439.665H15.186a10.887,10.887,0,0,1-3.439-.665A7.073,7.073,0,0,1,7.7,30.253a10.431,10.431,0,0,1-.646-3.439V15.186A10.431,10.431,0,0,1,7.7,11.747,6.669,6.669,0,0,1,9.334,9.258,6.821,6.821,0,0,1,11.747,7.7a10.887,10.887,0,0,1,3.439-.665H26.814a10.887,10.887,0,0,1,3.439.665A7.073,7.073,0,0,1,34.3,11.747a10.887,10.887,0,0,1,.665,3.439c0,1.5,0,1.9,0,5.814s.133,4.313.076,5.814ZM32,12.7a4.522,4.522,0,0,0-2.679-2.679A7.6,7.6,0,0,0,26.7,9.6H15.3a7.6,7.6,0,0,0-2.622.494A4.522,4.522,0,0,0,10,12.678,8.113,8.113,0,0,0,9.6,15.3V26.7a8.113,8.113,0,0,0,.494,2.622A4.522,4.522,0,0,0,12.773,32a8.113,8.113,0,0,0,2.527.494H26.7A7.6,7.6,0,0,0,29.322,32,4.522,4.522,0,0,0,32,29.322a7.6,7.6,0,0,0,.494-2.622V15.3A7.182,7.182,0,0,0,32,12.678ZM21,28.258A7.239,7.239,0,0,1,13.761,21h0A7.258,7.258,0,1,1,21,28.258Zm7.6-13.091a1.71,1.71,0,0,1,0-3.4h0a1.71,1.71,0,0,1,0,3.4Z" transform="translate(-2 -2)"/>
</svg>
