<svg xmlns="http://www.w3.org/2000/svg" viewBox="0 0 525.39 188.85"><defs><style>.cls-1{fill:#8e6db5;}.cls-2{fill:#9384d8;}.cls-3{fill:#94a3e3;}.cls-4{fill:#effbff;}.cls-5{fill:#5033d7;}.cls-6{fill:#3a23ca;}</style></defs><title>produk ke website</title><g id="Layer_2" data-name="Layer 2"><g id="Layer_2-2" data-name="Layer 2"><path class="cls-1" d="M104,167h39.75c5.5,0,5.5,3.27,0,3.27h-15.5c-5.5,0-6,5.83,0,5.83s6.88,6.4-2.31,6.4H77.65c-5.88,0-4.62,2.25,0,2.25h18.4c3.22,0,4.78,4.11,0,4.11H21.73c-5.46,0-4.27-4.11,1.39-4.11s6.4-2.25,2.53-2.25H15.27c-4,0-4.92-4.26,2-4.26H41.18Z"/><path class="cls-2" d="M60.29,140.35s.75-12.06,12.35-12.78,17.19,13.12,17.19,13.12L87,141s-3.85-9.79-13.42-9.62-8.89,10.93-8.89,10.93Z"/><path class="cls-2" d="M153.36,99.91,96.91,91.44a3.44,3.44,0,0,0-4.07,3.24V146a3.39,3.39,0,0,0,3.41,3.28l55.92,1.49a3.41,3.41,0,0,0,3.61-3.24l.53-44.3A3.35,3.35,0,0,0,153.36,99.91Z"/><path class="cls-3" d="M96.31,147.24A1.32,1.32,0,0,1,95,146V94.68a1.32,1.32,0,0,1,1.36-1.28l.22,0L153,101.89a1.3,1.3,0,0,1,1.15,1.28l-.53,44.3a1.33,1.33,0,0,1-1.37,1.27Z"/><path class="cls-2" d="M132,109.76c-3-4.71-2.68,1.71-5.12-1s-.83-11-10.37,1c-5.66,7.07-14.31,13.38-20.42,17.35V146a.28.28,0,0,0,.29.28l55.94,1.49a.29.29,0,0,0,.29-.28l.18-15.17A97.61,97.61,0,0,1,132,109.76Z"/><path class="cls-3" d="M97.75,138.31s-14.06,1.4-26,1.37-26.38,1.27-33.83,3.45-13.61,10.2-12,25.36S35.6,186,45.81,184.27s30.2-5.28,44-7c8.13-1,15.89-2,20.89-2.62a7.09,7.09,0,0,0,6.18-6.77C117.31,157.49,115.79,137.3,97.75,138.31Z"/><path class="cls-3" d="M77.65,55.72c0,17.41,13.09,31.52,29.23,31.52s29.23-14.11,29.23-31.52S123,24.2,106.88,24.2,77.65,38.31,77.65,55.72Zm17.84,0c0-8.23,4.77-15.09,11.14-16.77,6.37,1.68,11.14,8.54,11.14,16.77S113,70.81,106.63,72.49C100.27,70.81,95.49,63.94,95.49,55.72Z"/><path class="cls-2" d="M117.77,55.72c0-8.23-4.77-15.09-11.14-16.77a11.81,11.81,0,0,1,3-.4c7.82,0,14.15,7.69,14.15,17.17s-6.34,17.17-14.15,17.17a11.81,11.81,0,0,1-3-.4C113,70.81,117.77,63.94,117.77,55.72Z"/><path class="cls-2" d="M98.61,47a2,2,0,0,0,1.76-3c-.21-.39-5.33-9.67-15.14-11.1a2,2,0,0,0-.58,4c7.84,1.14,12.15,9,12.2,9A2,2,0,0,0,98.61,47Z"/><path class="cls-2" d="M85,75.07a19.18,19.18,0,0,0,15.25-7.47A2,2,0,0,0,97,65.31a15.28,15.28,0,0,1-14.33,5.6,2,2,0,1,0-.53,4A21.84,21.84,0,0,0,85,75.07Z"/><path class="cls-2" d="M115.52,48.39a2,2,0,0,0,1.38-.55h0a40.81,40.81,0,0,1,13.94-8.17,2,2,0,1,0-1.22-3.81,44.2,44.2,0,0,0-15.48,9.09,2,2,0,0,0,1.38,3.45Z"/><path class="cls-2" d="M128.78,78.34a2,2,0,0,0,.49-3.94c-9.35-2.38-12.43-8.24-12.56-8.48a2,2,0,0,0-3.58,1.78c.15.31,3.92,7.72,15.15,10.58A2,2,0,0,0,128.78,78.34Z"/><path class="cls-2" d="M30.11,66.85l3.57-1.46L38,58.06a23.74,23.74,0,0,0,3.26-12V34.72a6.41,6.41,0,0,0-6.63-6.16H28.36a6.41,6.41,0,0,0-6.63,6.16V46.1a23.74,23.74,0,0,0,3.26,12Z"/><rect class="cls-3" x="30.11" y="63.4" width="4.11" height="64.84" transform="translate(64.34 191.63) rotate(-180)"/><path class="cls-3" d="M30.11,65.4h4.11l4-7.34a25.14,25.14,0,0,0,3-12V34.72a6.16,6.16,0,0,0-6.16-6.16H29.28a6.16,6.16,0,0,0-6.16,6.16V46.1a25.14,25.14,0,0,0,3,12Z"/><path class="cls-2" d="M32.54,50.91a2,2,0,0,1,2.43,2V64l-.75,1.39V52.93A2.05,2.05,0,0,0,32.54,50.91Z"/><rect class="cls-3" x="25.3" y="128.23" width="13.75" height="4.74" rx="2.37" ry="2.37" transform="translate(64.34 261.21) rotate(-180)"/><path class="cls-2" d="M8.39,99.81,12,98.35,16.23,91a23.74,23.74,0,0,0,3.26-12V67.68a6.41,6.41,0,0,0-6.63-6.16H6.63A6.41,6.41,0,0,0,0,67.68V79.05A23.74,23.74,0,0,0,3.26,91Z"/><rect class="cls-3" x="8.39" y="96.35" width="4.11" height="64.84" transform="translate(20.88 257.54) rotate(-180)"/><path class="cls-3" d="M8.39,98.35H12.5l4-7.34a25.14,25.14,0,0,0,3-12V67.68a6.16,6.16,0,0,0-6.16-6.16H7.55a6.16,6.16,0,0,0-6.16,6.16V79.05a25.14,25.14,0,0,0,3,12Z"/><path class="cls-2" d="M10.82,83.87a2,2,0,0,1,2.43,2V97l-.75,1.39V85.89A2.05,2.05,0,0,0,10.82,83.87Z"/><rect class="cls-3" x="3.57" y="161.19" width="13.75" height="4.74" rx="2.37" ry="2.37" transform="translate(20.88 327.12) rotate(180)"/><path class="cls-2" d="M40.75,143.94c-3.77.41-10.31,4-12.7,12.67s.38,18.82,4.19,22.76,11.33,4.2,16.57,2.32,8.49-14.53,4.74-25.08S47,143.26,40.75,143.94Z"/><path class="cls-2" d="M58.59,182.1s4.49-5.15,3.42-19.81c-1.09-14.86-8.9-21.64-8.9-21.64s4.31-1.73,7.5-.65a32.59,32.59,0,0,1,9.59,21.06c1.1,13.89-3.74,19.72-3.74,19.72S61.63,183.5,58.59,182.1Z"/><path class="cls-2" d="M97.73,176.33s4.76-2.48,3.25-17.1A29.63,29.63,0,0,0,89.61,139s3.57-1.62,6.76-.54c0,0,9.24,6.34,10.33,20.05,1.1,13.89-3.18,17.11-3.18,17.11A6,6,0,0,1,97.73,176.33Z"/><path class="cls-2" d="M65.09,152l35.1-3.67s3.41,6.27,2.14,6.14-36.2,3.74-36.2,3.74Z"/><path class="cls-2" d="M59.92,118.93a5.17,5.17,0,0,1-3.39,0c-4.83-1.85-3.59-11-2.44-16.14,2.55-11.31,3.17-15.16-.42-23.6-2.4-5.66-2.09-11.16.79-14.33a6.24,6.24,0,0,1,6-2,8.06,8.06,0,0,1,4.85,3.52c2.08,3.05,3.39,8.51,1,15.35-.16.48-.38,1-.6,1.47-1,2.23-2.24,5.07-.6,10.34,2.19,7,5.62,18.06-1.57,23.42A12.06,12.06,0,0,1,59.92,118.93ZM61,65.68l-.2,0a3.76,3.76,0,0,0-3.51,1.43c-2.17,2.51-2.34,6.88-.46,11.48,3.69,9,2.9,13.57.54,24.4-1.87,8.56-.53,12.52,1.14,13.22.9.38,2.22-.06,3.9-1.25,5.49-3.92,2.08-14.51.14-20.55-2-6.33-.35-10,.73-12.39.22-.47.42-.92.56-1.32h0c2.17-6.11,1-10.86-.62-13.22A4.29,4.29,0,0,0,61,65.68Z"/><path class="cls-3" d="M59.57,119a7.09,7.09,0,0,1-2.11.31c-3.76-.05-6-3.25-5.86-8.54a42.28,42.28,0,0,1,3-13.48,33.74,33.74,0,0,0,2.2-8.35h0c.19-2-.44-4.35-1.12-6.87-1.08-4-2.33-8.68-1-13.4a6.94,6.94,0,0,1,8.47-5c1.68.52,4.53,2.21,5.61,7.82s-.47,9.7-1.88,13.46c-1,2.79-2,5.26-1.74,7.75.15,1.55.43,3.32.73,5.19.95,5.93,2,12.51-.71,16.67A10.6,10.6,0,0,1,59.57,119Zm.37-29.78a35.66,35.66,0,0,1-2.2,8.7,39.29,39.29,0,0,0-2.68,12.26c-.13,3.78,1.19,6.1,3.43,6.2,1.56.07,3.32-1.05,4.5-2.82,2.17-3.23,1.1-9.73.22-15.06-.32-2-.63-3.83-.8-5.51-.31-3.15.82-6.08,2-9.1,1.44-3.72,2.89-7.45,1.89-12.48-.33-1.67-1.18-4.57-3.15-5.13h0c-2-.53-4.51,1.25-5.21,3.73-1.11,4-.08,7.94.9,11.7a22.68,22.68,0,0,1,1.13,7.52Z"/><path class="cls-2" d="M58.54,119.23a5.25,5.25,0,0,1-5.28-1.12c-2.58-2.41-4-8.47,0-17.35.26-.58.58-1.16.91-1.77A13.79,13.79,0,0,0,55.8,87.43C53.63,79,49.77,64,59.47,63.27a7.62,7.62,0,0,1,6.66,2.39c3.41,3.87,2.05,11,.91,15-2.73,9.67-3.5,13.22-1.08,20.62a15.41,15.41,0,0,1-1.5,13.09,11.26,11.26,0,0,1-5.78,4.8Zm4.3-53a6.13,6.13,0,0,0-2.23-.11c-6.69.72-3.38,14-1.69,20.81a16.4,16.4,0,0,1-1.78,13c-.29.54-.56,1.06-.76,1.52h0c-3.23,7.45-2.19,12.42-.35,14.23a2.56,2.56,0,0,0,2.57.71,7,7,0,0,0,3.57-3,12.67,12.67,0,0,0,1.17-11.05C60.51,94,61.61,89.52,64.46,79.71c2-7,1.23-11.12-.12-12.59A3.05,3.05,0,0,0,62.84,66.23Zm-8,34.9h0Z"/><path class="cls-2" d="M61.23,91.67a9,9,0,0,1-4.87-1.52,1.3,1.3,0,0,1-.29-2A1.75,1.75,0,0,1,58.31,88h0c.32.23,3.13,2.1,5.16.08a1.42,1.42,0,0,1,1.94,0,1.26,1.26,0,0,1,.08,1.82A5.82,5.82,0,0,1,61.23,91.67Z"/><path class="cls-2" d="M63.37,91.58h-.11A10.43,10.43,0,0,1,56,87.93a1.28,1.28,0,0,1,.43-2,1.77,1.77,0,0,1,2.21.46A7.2,7.2,0,0,0,63.48,89a1.32,1.32,0,1,1-.11,2.63Z"/><path class="cls-2" d="M57.47,93.4a1.55,1.55,0,0,1-1.57-1,1.42,1.42,0,0,1,1.19-1.72A15,15,0,0,0,63.42,87a1.43,1.43,0,0,1,1.94,0,1.26,1.26,0,0,1,.1,1.82,18,18,0,0,1-7.62,4.58A1.82,1.82,0,0,1,57.47,93.4Z"/><path class="cls-3" d="M84.72,175.1a13.32,13.32,0,0,0,10.08,5h19c4,0,9-5,9-5Z"/><ellipse class="cls-2" cx="103.72" cy="175.1" rx="18.99" ry="1"/><path class="cls-2" d="M123,124.89c1.76,18.27-1.59,26-10.72,38.08a44.72,44.72,0,0,0-6.43,12.13h2.32c3.41-5.27,8-10.4,12.19-16.75C127.88,146.9,123,124.89,123,124.89Z"/><path class="cls-3" d="M123,124.89s-1.32,15.63-10.35,27.73A73,73,0,0,0,104,167a61.84,61.84,0,0,1,.25,8.1h1.61A44.72,44.72,0,0,1,112.32,163C121.45,150.87,124.8,143.16,123,124.89Z"/><path class="cls-2" d="M112.51,175.1h2a263.8,263.8,0,0,0,18.43-23.79S123.41,162,112.51,175.1Z"/><path class="cls-3" d="M107.62,175.1h4.89c10.89-13.12,20.39-23.79,20.39-23.79A59.76,59.76,0,0,0,107.62,175.1Z"/><path class="cls-3" d="M102.59,160.77c-3.08-14.31-6.16-35,7.26-51.29,0,0-20.25,19.59-16.51,40.72a110.83,110.83,0,0,0,6.32,22l1.64,2.67.15.26h2.86A87,87,0,0,0,102.59,160.77Z"/><path class="cls-2" d="M106.74,167c-.6-6.57-2-13.37-2.79-22.3-1.73-18.93,5.91-35.22,5.91-35.22-13.43,16.29-10.35,37-7.26,51.29a87,87,0,0,1,1.73,14.33H107A61.84,61.84,0,0,0,106.74,167Z"/><path class="cls-2" d="M101.39,172.17C93.51,159.39,88,150.55,90.78,128.76c-3.84,6.15-5.5,15.72-3.53,26.1,1.48,7.78,7.27,13.42,12.15,20.24h3.79l-.15-.26Z"/><path class="cls-3" d="M90.78,128.76s-14.65,9.61-8.35,30.16c2.29,7.47,6.41,11.77,10.31,16.18H99.4c-4.88-6.82-10.67-12.46-12.15-20.24C85.28,144.48,86.94,134.91,90.78,128.76Z"/><path class="cls-3" d="M484.76,50H443.52V39.65h41.24Zm-40.24-1h39.24V40.65H444.52Z"/><path class="cls-3" d="M439.41,50H398.18V39.65h41.24Zm-40.24-1h39.24V40.65H399.18Z"/><path class="cls-3" d="M394.07,50H352.83V39.65h41.24Zm-40.24-1h39.24V40.65H353.83Z"/><path class="cls-3" d="M484.76,96.4H443.52V55.16h41.24Zm-40.24-1h39.24V56.16H444.52Z"/><path class="cls-3" d="M439.41,96.4H398.18V55.16h41.24Zm-40.24-1h39.24V56.16H399.18Z"/><path class="cls-3" d="M394.07,96.4H352.83V55.16h41.24Zm-40.24-1h39.24V56.16H353.83Z"/><path class="cls-3" d="M453.6,40.15a14.21,14.21,0,0,0,22.21,0Z"/><path class="cls-2" d="M473.45,40.15a15.16,15.16,0,0,0,2.22.75,1,1,0,0,0,1.25-.74s0,0,0,0Z"/><rect class="cls-3" x="379.27" y="41.99" width="4.63" height="1.6" rx="0.8" ry="0.8" transform="translate(723.25 -132.46) rotate(146.45)"/><rect class="cls-3" x="359.86" y="41.66" width="4.63" height="1.6" rx="0.8" ry="0.8" transform="translate(625.54 294.67) rotate(-142.93)"/><path class="cls-2" d="M418.69,40.15a3.36,3.36,0,0,1-1.57,1.34c-1,.39-1.69.45-2.09.15a1.85,1.85,0,0,1-.52-1.49h-1.83a2.86,2.86,0,0,0,1,2.63,2.65,2.65,0,0,0,1.69.41,6.18,6.18,0,0,0,2.08-.54,5.27,5.27,0,0,0,2.65-2.51Z"/><path class="cls-3" d="M418.17,40.15a3.25,3.25,0,0,1-.56.72,2.9,2.9,0,0,1-2.58.86,1.69,1.69,0,0,1-1.16-1.58H412a2.86,2.86,0,0,0,2.14,2.91,3.63,3.63,0,0,0,1.09.1,5.43,5.43,0,0,0,3.35-1.53,5.16,5.16,0,0,0,1.06-1.49Z"/><path class="cls-2" d="M417.74,40.15a5.83,5.83,0,0,1-.53.57,3.59,3.59,0,0,1-2.14,1.07,1.31,1.31,0,0,1-1.2-.66,2.6,2.6,0,0,1-.33-1h-1.9A3.85,3.85,0,0,0,412.2,42a2.69,2.69,0,0,0,2.5,1.19h.08a5.77,5.77,0,0,0,3.45-1.69,7.54,7.54,0,0,0,1.09-1.33Z"/><path class="cls-4" d="M328.16,39.32h24.28s0,0,0-.07c-.26-5.86-2.19-11.95-6.64-16a22.68,22.68,0,0,0-32.07,0c-3.93,3.93-6.9,10.39-6.64,16,.26,5.86,2.19,11.95,6.64,16a23.89,23.89,0,0,0,14.44,6.58Z"/><path class="cls-1" d="M418.65,178.07c-43.83,0-118.35,2.68-122.37,3.32a.85.85,0,0,0-.81.75v1.09c0,.42.46.77,1,.77h96.38l-2.78,2h57.12l-2.78-2h41.32c.56,0,1-.34,1-.77v-1.09a.85.85,0,0,0-.81-.75c-4-.64-51-3.32-94.84-3.32"/><path class="cls-2" d="M504.68,35H332.43l-.32,0h-.17l-.21,0-.18,0-.51.09-.21.05-.25.07h0l-.31.09-.61.22h0l-.27.11-.05,0-.27.13a5.83,5.83,0,0,0-.57.31l-.27.17-.27.18a8.68,8.68,0,0,0-3.75,7.15V145.19H513.38V43.72A8.7,8.7,0,0,0,504.68,35Zm.25,103.13H332.46V42.41H504.93Z"/><path class="cls-5" d="M513.38,43.72V153.39c0,.19,0,.38,0,.57s0,.16,0,.24,0,.11,0,.17,0,.19,0,.28,0,.08,0,.12,0,.17,0,.25,0,.12,0,.18c-.05.25-.12.5-.19.74l-.11.33h0l-.09.24c-.06.16-.13.32-.2.47l-.13.27-.17.32c-.12.21-.24.41-.37.61s-.27.39-.42.57l-31-20.62h24.39V42.41H336.73L328,36.57l.27-.18.27-.17.57-.31.27-.13.05,0,.27-.11h0l.61-.22.31-.09h0l.25-.07.21-.05.51-.09.18,0,.21,0h.17l.32,0H504.68A8.7,8.7,0,0,1,513.38,43.72Z"/><path class="cls-2" d="M447.9,186.31a64.78,64.78,0,0,1-6.17-3.57c-2.56-1.77-3.35-3.35-3.55-6.5s-1-14.15-1-14.15H400.4s-.79,11-1,14.15-1,4.73-3.55,6.5a64.79,64.79,0,0,1-6.17,3.57,1.35,1.35,0,0,0,.62,2.54h57a1.35,1.35,0,0,0,.62-2.54Z"/><path class="cls-5" d="M438,174.26c-.29-4.34-.86-12.17-.86-12.17H400.4s-.15,2.15-.34,4.82Z"/><path class="cls-3" d="M447.9,186.31l-.54-.28c.07.27.08.75-.89.75H391.13c-1,0-1-.49-.89-.75l-.54.28a1.35,1.35,0,0,0,.62,2.54h57a1.35,1.35,0,0,0,.62-2.54Z"/><polygon class="cls-6" points="456.99 145.19 473.83 145.19 464.01 138.15 446.66 138.15 456.99 145.19"/><polygon class="cls-6" points="332.46 62.83 324.21 56.9 324.21 66.78 332.46 72.66 332.46 62.83"/><path class="cls-6" d="M332.46,60.34V43.83l-6.82-4.89a8.65,8.65,0,0,0-1.43,4.78v11Z"/><polygon class="cls-5" points="332.46 86.3 324.21 80.79 324.21 145.19 420.67 145.19 410.12 138.15 332.46 138.15 332.46 86.3"/><path class="cls-2" d="M324.21,145.19v8.19a8.7,8.7,0,0,0,8.7,8.7H504.68a8.7,8.7,0,0,0,8.7-8.7v-8.19Z"/><path class="cls-3" d="M513.38,153.39v-8.19H324.21l187.31,13.58A8.66,8.66,0,0,0,513.38,153.39Z"/><path class="cls-4" d="M369.44,18.32a9.76,9.76,0,0,0-9.59-9.59c-5,0-9.83,4.41-9.59,9.59a9.76,9.76,0,0,0,9.59,9.59C364.86,27.91,369.67,23.5,369.44,18.32Z"/><path class="cls-4" d="M337.32,0c-5.61,0-5.62,8.72,0,8.72S342.94,0,337.32,0Z"/><path class="cls-4" d="M520.76,158.73c-6.17,0-6.18,9.59,0,9.59S526.94,158.73,520.76,158.73Z"/><path class="cls-4" d="M511.6,165.71c-3.09,0-3.09,4.8,0,4.8S514.69,165.71,511.6,165.71Z"/><rect class="cls-5" x="353.33" y="105.03" width="130.92" height="24.51" rx="12.26" ry="12.26"/><path class="cls-3" d="M449.73,75.78c0,8.92,6.7,16.15,15,16.15s15-7.23,15-16.15-6.7-16.15-15-16.15S449.73,66.86,449.73,75.78Zm9.14,0c0-4.21,2.44-7.73,5.71-8.59,3.26.86,5.71,4.38,5.71,8.59s-2.44,7.73-5.71,8.59C461.31,83.51,458.87,80,458.87,75.78Z"/><path class="cls-2" d="M470.28,75.78c0-4.21-2.44-7.73-5.71-8.59a6,6,0,0,1,1.54-.2c4,0,7.25,3.94,7.25,8.8s-3.25,8.8-7.25,8.8a6,6,0,0,1-1.54-.2C467.83,83.51,470.28,80,470.28,75.78Z"/><path class="cls-2" d="M460.46,71.3a1,1,0,0,0,.9-1.51c-.11-.2-2.73-5-7.76-5.69a1,1,0,1,0-.3,2c4,.59,6.23,4.59,6.25,4.63A1,1,0,0,0,460.46,71.3Z"/><path class="cls-2" d="M453.49,85.69a9.83,9.83,0,0,0,7.81-3.82,1,1,0,0,0-1.68-1.17,7.83,7.83,0,0,1-7.34,2.87,1,1,0,0,0-.27,2A11.19,11.19,0,0,0,453.49,85.69Z"/><path class="cls-2" d="M469.12,72a1,1,0,0,0,.71-.28h0A20.9,20.9,0,0,1,477,67.56a1,1,0,0,0-.62-2,22.64,22.64,0,0,0-7.93,4.66,1,1,0,0,0,.71,1.77Z"/><path class="cls-2" d="M475.92,87.37a1,1,0,0,0,.25-2c-4.79-1.22-6.37-4.22-6.43-4.35a1,1,0,0,0-1.83.91c.08.16,2,4,7.76,5.42A1,1,0,0,0,475.92,87.37Z"/><path class="cls-2" d="M369.14,71.7l.73-1.07-.17-2.86a8,8,0,0,0-1.31-4l-2.12-3.19a2.16,2.16,0,0,0-3-.5l-1.75,1.16a2.16,2.16,0,0,0-.72,3l2.12,3.19a8,8,0,0,0,3.14,2.75Z"/><rect class="cls-3" x="374.42" y="68.52" width="1.38" height="21.85" transform="translate(731.63 -61.65) rotate(146.45)"/><path class="cls-3" d="M368.87,71.29l1.15-.77-.25-2.8a8.47,8.47,0,0,0-1.38-3.92l-2.12-3.19a2.08,2.08,0,0,0-2.88-.58l-1.62,1.08a2.08,2.08,0,0,0-.58,2.88l2.12,3.19a8.47,8.47,0,0,0,3.08,2.8Z"/><path class="cls-2" d="M366.85,66.77l.1-.08a.69.69,0,0,1,1,.19L370,70l0,.53L367.7,67A.69.69,0,0,0,366.85,66.77Z"/><rect class="cls-3" x="379.27" y="88.42" width="4.63" height="1.6" rx="0.8" ry="0.8" transform="translate(748.91 -47.32) rotate(146.45)"/><path class="cls-2" d="M374.57,71.33l1.26.33,2.64-1.1A8,8,0,0,0,381.78,68L384.09,65a2.16,2.16,0,0,0-.53-3l-1.67-1.27a2.16,2.16,0,0,0-3,.31L376.53,64A8,8,0,0,0,375,67.93Z"/><rect class="cls-3" x="368.55" y="68.61" width="1.38" height="21.85" transform="translate(615.89 365.6) rotate(-142.93)"/><path class="cls-3" d="M374.87,70.94l1.1.83,2.56-1.17a8.47,8.47,0,0,0,3.25-2.6L384.09,65a2.08,2.08,0,0,0-.4-2.91l-1.56-1.18a2.08,2.08,0,0,0-2.91.4l-2.31,3.06a8.47,8.47,0,0,0-1.62,3.83Z"/><path class="cls-2" d="M378.46,67.54l.11.07a.69.69,0,0,1,.14,1l-2.25,3-.48.22,2.53-3.35A.69.69,0,0,0,378.46,67.54Z"/><rect class="cls-3" x="359.86" y="88.1" width="4.63" height="1.6" rx="0.8" ry="0.8" transform="translate(597.54 378.15) rotate(-142.93)"/><path class="cls-2" d="M415.42,89.63a2.65,2.65,0,0,1-1.69-.41c-2.18-1.5-.46-5.91.73-8.33,2.63-5.33,3.4-7.17,2.63-11.8-.52-3.11.3-5.81,2.12-7a3.19,3.19,0,0,1,3.25-.27,4.13,4.13,0,0,1,2,2.34c.67,1.77.66,4.65-1.33,7.77-.14.22-.3.43-.48.66a6.56,6.56,0,0,0-1.54,5.08c.24,3.76.62,9.67-3.6,11.47A6.18,6.18,0,0,1,415.42,89.63Zm6.94-26.39-.09,0a1.92,1.92,0,0,0-1.92.29c-1.38,1-2,3.15-1.61,5.66.75,4.92-.19,7.11-2.67,12.21-2,4-1.77,6.17-1,6.72.4.3,1.11.24,2.09-.15,3.2-1.29,2.78-7,2.54-10.21a7.81,7.81,0,0,1,1.86-6.08c.17-.21.32-.41.44-.59h0c1.81-2.78,1.83-5.28,1.28-6.66A2.2,2.2,0,0,0,422.35,63.24Z"/><path class="cls-3" d="M415.24,89.6a3.63,3.63,0,0,1-1.09-.1c-1.87-.48-2.62-2.35-1.89-5a21.66,21.66,0,0,1,3.13-6.35,17.29,17.29,0,0,0,2.1-3.89h0a10.79,10.79,0,0,0,.27-3.56c-.05-2.13-.12-4.6,1.14-6.79a3.56,3.56,0,0,1,4.82-1.47c.77.46,2,1.65,1.85,4.57A11.79,11.79,0,0,1,423,73.53a9.16,9.16,0,0,0-1.8,3.65c-.11.79-.19,1.71-.26,2.67-.24,3.07-.51,6.47-2.36,8.22A5.43,5.43,0,0,1,415.24,89.6ZM419,74.82a18.27,18.27,0,0,1-2.14,4.07,20.13,20.13,0,0,0-2.81,5.78c-.52,1.87-.14,3.18,1,3.5a2.9,2.9,0,0,0,2.58-.86c1.47-1.35,1.72-4.71,1.92-7.47.08-1,.15-2,.27-2.84a10.18,10.18,0,0,1,2.09-4.29,10.63,10.63,0,0,0,2.44-6c0-.87,0-2.42-.95-2.93h0a2.5,2.5,0,0,0-3,1.23c-1,1.84-1,3.94-1,5.93a11.62,11.62,0,0,1-.34,3.88Z"/><path class="cls-2" d="M414.7,89.61a2.69,2.69,0,0,1-2.5-1.19c-1-1.51-1-4.7,2.08-8.64.2-.26.43-.51.67-.77a7.06,7.06,0,0,0,2.21-5.56c-.07-4.46-.18-12.39,4.73-11.59a3.9,3.9,0,0,1,3,2c1.23,2.34-.3,5.71-1.35,7.58-2.52,4.49-3.34,6.16-3,10.14a7.89,7.89,0,0,1-2.32,6.34,5.77,5.77,0,0,1-3.45,1.69Zm8.52-25.87a3.14,3.14,0,0,0-1.1-.32c-3.42-.45-3.37,6.58-3.35,10.16a8.4,8.4,0,0,1-2.46,6.28c-.21.24-.41.46-.56.66h0c-2.5,3.32-2.59,5.92-1.89,7a1.31,1.31,0,0,0,1.2.66,3.59,3.59,0,0,0,2.14-1.07,6.49,6.49,0,0,0,1.91-5.36c-.41-4.5.68-6.61,3.28-11.15,1.87-3.26,2-5.39,1.46-6.29A1.56,1.56,0,0,0,423.22,63.74ZM415,80.16h0Z"/><path class="cls-2" d="M419.35,76.22a4.62,4.62,0,0,1-2.24-1.34.67.67,0,0,1,.1-1,.89.89,0,0,1,1.14.18h0c.13.15,1.31,1.42,2.56.66a.73.73,0,0,1,1,.22.64.64,0,0,1-.18.92A3,3,0,0,1,419.35,76.22Z"/><path class="cls-2" d="M420.43,76.43h-.06a5.34,5.34,0,0,1-3.15-2.68.66.66,0,0,1,.45-.92.91.91,0,0,1,1,.5,3.69,3.69,0,0,0,2.09,1.83.67.67,0,1,1-.37,1.3Z"/><path class="cls-2" d="M417.27,76.63a.8.8,0,0,1-.66-.71.73.73,0,0,1,.8-.71A7.67,7.67,0,0,0,421,74.14a.73.73,0,0,1,1,.23.65.65,0,0,1-.17.92,9.2,9.2,0,0,1-4.34,1.36Z"/><path class="cls-4" d="M374.07,113.82a12.09,12.09,0,0,1,2-.16,3.32,3.32,0,0,1,2.27.67A2.17,2.17,0,0,1,379,116a2.38,2.38,0,0,1-.62,1.73,3.35,3.35,0,0,1-2.47.89,3.58,3.58,0,0,1-.84-.07v3.24h-1Zm1,3.9a3.49,3.49,0,0,0,.86.08c1.26,0,2-.61,2-1.73s-.75-1.58-1.91-1.58a4.38,4.38,0,0,0-1,.08Z"/><path class="cls-4" d="M384.63,118h-3.14v2.91H385v.88h-4.55v-8.08h4.37v.88h-3.32v2.55h3.14Z"/><path class="cls-4" d="M386.21,120.53a3.7,3.7,0,0,0,1.87.53c1.07,0,1.69-.56,1.69-1.38s-.43-1.19-1.52-1.61c-1.32-.47-2.13-1.15-2.13-2.29a2.33,2.33,0,0,1,2.61-2.19,3.67,3.67,0,0,1,1.79.4l-.29.85a3.21,3.21,0,0,0-1.54-.38c-1.1,0-1.52.66-1.52,1.21,0,.76.49,1.13,1.61,1.56,1.37.53,2.06,1.19,2.06,2.38s-.92,2.33-2.83,2.33a4.17,4.17,0,0,1-2.06-.52Z"/><path class="cls-4" d="M393.58,119.26l-.84,2.54h-1.08l2.75-8.08h1.26l2.76,8.08h-1.12l-.86-2.54Zm2.65-.82-.79-2.33c-.18-.53-.3-1-.42-1.48h0c-.12.48-.25,1-.41,1.46l-.79,2.34Z"/><path class="cls-4" d="M399.61,121.8v-8.08h1.14l2.59,4.09a22.86,22.86,0,0,1,1.45,2.63h0c-.1-1.08-.12-2.06-.12-3.32v-3.38h1v8.08h-1.05l-2.57-4.1a25.81,25.81,0,0,1-1.51-2.7h0c.06,1,.08,2,.08,3.33v3.45Z"/><path class="cls-4" d="M409.91,120.53a3.7,3.7,0,0,0,1.87.53c1.07,0,1.69-.56,1.69-1.38s-.43-1.19-1.52-1.61c-1.32-.47-2.13-1.15-2.13-2.29a2.33,2.33,0,0,1,2.61-2.19,3.67,3.67,0,0,1,1.79.4l-.29.85a3.21,3.21,0,0,0-1.54-.38c-1.1,0-1.52.66-1.52,1.21,0,.76.49,1.13,1.61,1.56,1.37.53,2.06,1.19,2.06,2.38s-.92,2.33-2.83,2.33a4.17,4.17,0,0,1-2.06-.52Z"/><path class="cls-4" d="M420.15,118H417v2.91h3.5v.88H416v-8.08h4.37v.88H417v2.55h3.14Z"/><path class="cls-4" d="M421.87,113.72h1v3.9h0c.22-.31.43-.6.64-.86l2.47-3h1.29l-2.93,3.43,3.15,4.65h-1.23l-2.66-4-.77.89v3.08h-1Z"/><path class="cls-4" d="M429.8,119.26,429,121.8h-1.08l2.75-8.08h1.26l2.76,8.08h-1.12l-.86-2.54Zm2.65-.82-.79-2.33c-.18-.53-.3-1-.42-1.48h0c-.12.48-.25,1-.41,1.46l-.79,2.34Z"/><path class="cls-4" d="M435.84,113.83a10.87,10.87,0,0,1,2-.17,3.31,3.31,0,0,1,2.34.66,2,2,0,0,1,.64,1.54,2.12,2.12,0,0,1-1.52,2.06v0a2,2,0,0,1,1.19,1.63,12.83,12.83,0,0,0,.62,2.22H440a10.47,10.47,0,0,1-.54-1.93c-.24-1.12-.67-1.54-1.62-1.57h-1v3.5h-1Zm1,3.68H438c1.12,0,1.82-.61,1.82-1.54s-.75-1.5-1.86-1.51a4.3,4.3,0,0,0-1,.1Z"/><path class="cls-4" d="M443.66,119.26l-.84,2.54h-1.08l2.75-8.08h1.26l2.76,8.08h-1.12l-.86-2.54Zm2.65-.82-.79-2.33c-.18-.53-.3-1-.42-1.48h0c-.12.48-.25,1-.41,1.46l-.79,2.34Z"/><path class="cls-4" d="M449.7,121.8v-8.08h1.14l2.59,4.09a22.86,22.86,0,0,1,1.45,2.63h0c-.1-1.08-.12-2.06-.12-3.32v-3.38h1v8.08h-1.06l-2.57-4.1a25.64,25.64,0,0,1-1.51-2.7h0c.06,1,.08,2,.08,3.33v3.45Z"/><path class="cls-4" d="M463.75,121.44a7.53,7.53,0,0,1-2.48.44,3.8,3.8,0,0,1-4.15-4.08,4.05,4.05,0,0,1,4.38-4.17,5,5,0,0,1,2,.37l-.25.85a4.19,4.19,0,0,0-1.79-.35,3,3,0,0,0-3.25,3.25,3,3,0,0,0,3.12,3.26,3.4,3.4,0,0,0,1.39-.22V118.4h-1.64v-.84h2.66Z"/><polygon class="cls-5" points="283.43 108.95 247.42 86.79 247.42 98.69 206.94 98.69 206.94 119.2 247.42 119.2 247.42 131.1 283.43 108.95"/><path class="cls-5" d="M267.15,131.3a.65.65,0,0,0,0-1.3.65.65,0,0,0,0,1.3Z"/></g></g></svg>