<svg xmlns="http://www.w3.org/2000/svg" id="twitter" width="38" height="30.935" viewBox="0 0 38 30.935">
    <defs>
        <style>
            .cls-1{fill:#f3f4f4}
        </style>
    </defs>
    <path id="twitter-2" d="M40 7.556a16.131 16.131 0 0 1-4.484 1.216 7.847 7.847 0 0 0 3.439-4.313A15.6 15.6 0 0 1 34 6.359a7.79 7.79 0 0 0-13.3 7.106A22.116 22.116 0 0 1 4.641 5.314 7.9 7.9 0 0 0 3.6 9.247a7.771 7.771 0 0 0 3.458 6.479 7.7 7.7 0 0 1-3.534-.969v.095a7.79 7.79 0 0 0 6.27 7.6 7.467 7.467 0 0 1-2.09.323 9.31 9.31 0 0 1-1.463-.133 7.809 7.809 0 0 0 7.277 5.4 15.618 15.618 0 0 1-9.618 3.34 15.068 15.068 0 0 1-1.9-.114 21.983 21.983 0 0 0 11.951 3.515A22.021 22.021 0 0 0 36.2 12.591v-1.007A16.017 16.017 0 0 0 40 7.556z" class="cls-1" data-name="twitter" transform="translate(-2 -3.849)"/>
</svg>
