<svg xmlns="http://www.w3.org/2000/svg" width="14.545" height="16" viewBox="0 0 14.545 16">
    <defs>
        <style>
            .cls-1{opacity:.7}
        </style>
    </defs>
    <path id="calendar-alt" d="M9.273 14.091a.727.727 0 1 0-.727-.727.727.727 0 0 0 .727.727zm3.636 0a.727.727 0 1 0-.727-.727.727.727 0 0 0 .727.727zm0-2.909a.727.727 0 1 0-.727-.727.727.727 0 0 0 .727.727zm-3.636 0a.727.727 0 1 0-.727-.727.727.727 0 0 0 .727.727zm5.091-8.727h-.727v-.728a.727.727 0 0 0-1.455 0v.727H6.364v-.727a.727.727 0 1 0-1.455 0v.727h-.727A2.182 2.182 0 0 0 2 4.636v10.182A2.182 2.182 0 0 0 4.182 17h10.182a2.182 2.182 0 0 0 2.182-2.182V4.636a2.182 2.182 0 0 0-2.182-2.181zm.727 12.364a.727.727 0 0 1-.727.727H4.182a.727.727 0 0 1-.727-.727V8.273h11.636zm0-8H3.455V4.636a.727.727 0 0 1 .727-.727h.727v.727a.727.727 0 0 0 1.455 0v-.727h5.818v.727a.727.727 0 0 0 1.455 0v-.727h.727a.727.727 0 0 1 .727.727zm-9.455 4.363a.727.727 0 1 0-.727-.727.727.727 0 0 0 .727.727zm0 2.909a.727.727 0 1 0-.727-.727.727.727 0 0 0 .727.727z" class="cls-1" transform="translate(-2 -1)"/>
</svg>
