<svg xmlns="http://www.w3.org/2000/svg" width="46.885" height="22" viewBox="0 0 46.885 22">
    <defs>
        <style>
            .cls-1,.cls-4{fill:#3c72b7}.cls-2{fill:#fff}.cls-3{fill:#d4d6d7;fill-rule:evenodd}.cls-4{font-size:16px;font-family:OpenSans-ExtraBold,Open Sans;font-weight:800}
        </style>
    </defs>
    <g id="Group_49" data-name="Group 49" transform="translate(1459.814 -6544.062)">
        <g id="Group_45" data-name="Group 45" transform="translate(-1456.112 6548.116)">
            <ellipse id="Ellipse_2" cx="10.442" cy="10.441" class="cls-1" data-name="Ellipse 2" rx="10.442" ry="10.441" transform="translate(-3.703 -2.939)"/>
            <path id="Path_8" d="M-1337.995 6649.892a2 2 0 0 0-.668-.656 3.362 3.362 0 0 0-2.9-.26c-.512.186-.513.34-1.119.376-.566 0-.906-.018-1.172.452-.2.346-.074.456.027.851.517 1.734 2.2.635 2.456 1.993.024.782-.81 1.316-1.871 1.316a4.3 4.3 0 0 1-3.852-4.026c-.268-6.842 6.551-6.15 8.864-3.9a1.776 1.776 0 0 0-.335-.789 6.92 6.92 0 0 0-.495-.665c-3.809-4.367-11.509-1.5-11.844 4.643-.318 5.849 3.869 8.518 7.693 8.231a5.926 5.926 0 0 0 5.581-4.4 3.805 3.805 0 0 0-.365-3.166zm-2.809-.139c-.111.038-.273.1-.381.046a.238.238 0 0 1 .08-.272.637.637 0 0 1 .594.038c.041.03.005.088-.289.188z" class="cls-2" data-name="Path 8" transform="translate(1350.925 -6642.485)"/>
            <g id="Group_41" data-name="Group 41" transform="translate(.011 .007)">
                <path id="Path_9" d="M-1350.566 6650.362c0-.112-.034-.77-.006-1.25.334-5.823 8.034-8.545 11.844-4.4a6.74 6.74 0 0 1 .495.63 2.317 2.317 0 0 1 .322.619 7.29 7.29 0 0 0-5.363-2.343 7.314 7.314 0 0 0-7.291 6.748v.005a.1.1 0 0 1 0 .011z" class="cls-3" data-name="Path 9" transform="translate(1350.584 -6642.715)"/>
            </g>
            <g id="Group_43" data-name="Group 43" transform="translate(2.156 1.526)">
                <path id="Path_12" d="M-1273.645 6695.668a4.331 4.331 0 0 1-4.2 4.175 4.008 4.008 0 0 1-2.19-.652 4.3 4.3 0 0 1-2.926-3.875c-.247-6.379 5.558-6.266 8.265-4.418a5.828 5.828 0 0 0-3.872-1.484 6.271 6.271 0 0 0-6.069 6.455 6.271 6.271 0 0 0 6.069 6.455 5.817 5.817 0 0 0 3.731-1.365 6.128 6.128 0 0 0 1.341-2.5 3.985 3.985 0 0 0-.149-2.791z" class="cls-3" data-name="Path 12" transform="translate(1284.638 -6689.414)"/>
            </g>
        </g>
        <text id="XP" class="cls-4" transform="translate(-1434.93 6561.062)">
            <tspan x="0" y="0">XP</tspan>
        </text>
    </g>
</svg>
