<svg xmlns="http://www.w3.org/2000/svg" width="54.744" height="54.737" viewBox="0 0 54.744 54.737">
    <defs>
        <style>
            .cls-1{fill:#3c72b7}.cls-2{fill:#fff}.cls-3{fill:#d4d6d7;fill-rule:evenodd}
        </style>
    </defs>
    <g id="Group_51" data-name="Group 51">
        <g id="Group_45" data-name="Group 45">
            <ellipse id="Ellipse_2" cx="27.372" cy="27.369" class="cls-1" data-name="Ellipse 2" rx="27.372" ry="27.369"/>
            <path id="Path_8" d="M-1317.033 6661.9a5.252 5.252 0 0 0-1.75-1.721 8.815 8.815 0 0 0-7.612-.682c-1.341.486-1.344.891-2.933.986-1.484 0-2.374-.045-3.073 1.186-.516.906-.194 1.2.07 2.229 1.355 4.545 5.765 1.666 6.439 5.225.062 2.051-2.122 3.449-4.9 3.449-2.661 0-9.8-3.016-10.1-10.553-.7-17.936 17.172-16.119 23.234-10.217a4.662 4.662 0 0 0-.878-2.068 18.047 18.047 0 0 0-1.3-1.74c-9.984-11.447-30.168-3.926-31.045 12.17-.835 15.33 10.143 22.328 20.165 21.574 6.955-.52 12.612-4.371 14.629-11.545a9.973 9.973 0 0 0-.946-8.293zm-7.363-.363c-.291.1-.716.266-1 .121a.624.624 0 0 1 .21-.713 1.675 1.675 0 0 1 1.558.1c.106.077.012.229-.772.493z" class="cls-2" data-name="Path 8" transform="translate(1360.631 -6634.782)"/>
            <g id="Group_41" data-name="Group 41" transform="translate(9.735 7.723)">
                <path id="Path_9" d="M-1350.537 6662.76c-.009-.293-.089-2.018-.016-3.275.876-15.266 21.059-22.4 31.044-11.543a17.7 17.7 0 0 1 1.3 1.65 6.1 6.1 0 0 1 .844 1.623 19.107 19.107 0 0 0-14.057-6.141 19.17 19.17 0 0 0-19.112 17.686V6662.803z" class="cls-3" data-name="Path 9" transform="translate(1350.584 -6642.716)"/>
            </g>
            <g id="Group_43" data-name="Group 43" transform="translate(15.358 11.705)">
                <path id="Path_12" d="M-1255.823 6705.809c-.387 6.111-5.169 10.943-11.014 10.943a10.507 10.507 0 0 1-5.739-1.709 11.259 11.259 0 0 1-7.669-10.156c-.648-16.723 14.568-16.424 21.664-11.582a15.28 15.28 0 0 0-10.148-3.891c-8.786 0-15.908 7.576-15.908 16.918s7.122 16.922 15.908 16.922a15.245 15.245 0 0 0 9.779-3.58 16.049 16.049 0 0 0 3.514-6.539 10.445 10.445 0 0 0-.387-7.326z" class="cls-3" data-name="Path 12" transform="translate(1284.638 -6689.414)"/>
            </g>
        </g>
    </g>
</svg>
