<svg xmlns="http://www.w3.org/2000/svg" width="30" height="24.6" viewBox="0 0 30 24.6">
    <defs>
        <style>
            .cls-1{fill:#1b1c1d}
        </style>
    </defs>
    <g id="money-pending-alt" transform="translate(3 2.3)">
        <g id="Group_1281" data-name="Group 1281">
            <path id="Path_2638" d="M24.3 10v8.2a1.312 1.312 0 0 1-1.4 1.4H1.1a1.312 1.312 0 0 1-1.4-1.4V7.3a1.312 1.312 0 0 1 1.4-1.4h14.3a1.312 1.312 0 0 0 1.4-1.4 1.312 1.312 0 0 0-1.4-1.4H1.1A4.2 4.2 0 0 0-3 7.3v10.9a4.055 4.055 0 0 0 4.1 4.1h21.8a4.055 4.055 0 0 0 4.1-4.1V10a1.312 1.312 0 0 0-1.4-1.4 1.288 1.288 0 0 0-1.3 1.4z" class="cls-1" data-name="Path 2638"/>
        </g>
        <g id="Group_1282" data-name="Group 1282">
            <path id="Path_2639" d="M7.9 12.7A4.1 4.1 0 1 0 12 8.6a4.055 4.055 0 0 0-4.1 4.1zm5.5 0a1.312 1.312 0 0 1-1.4 1.4 1.265 1.265 0 0 1-1.4-1.4 1.312 1.312 0 0 1 1.4-1.4 1.312 1.312 0 0 1 1.4 1.4z" class="cls-1" data-name="Path 2639"/>
        </g>
        <g id="Group_1283" data-name="Group 1283">
            <path id="Path_2640" d="M20.9-2.3a1.312 1.312 0 0 0-1.4 1.4v5.5A1.312 1.312 0 0 0 20.9 6a1.265 1.265 0 0 0 1.4-1.4V-.9a1.43 1.43 0 0 0-1.4-1.4zm1.2 11.8c0-.1-.1-.1-.1-.3l-.2-.2a1.4 1.4 0 0 0-1.5-.3c-.1.2-.3.2-.4.3a1.159 1.159 0 0 0-.4 1c0 .1 0 .4.1.5.1.4.4.5.7.7a1.4 1.4 0 0 0 1.1 0c.4-.1.5-.4.7-.7a.749.749 0 0 0 .1-.5v-.3c0-.1 0-.1-.1-.2z" class="cls-1" data-name="Path 2640"/>
        </g>
        <g id="Group_1284" data-name="Group 1284">
            <path id="Path_2641" d="M-.5 11.5h-1.1V8.8h1.1a3.329 3.329 0 0 0 3.3-3.3v-1h2.7v1.1a6.131 6.131 0 0 1-6 5.9z" class="cls-1" data-name="Path 2641"/>
        </g>
        <g id="Group_1285" data-name="Group 1285">
            <path id="Path_2642" d="M5.3 20.9H2.6v-1.1a3.329 3.329 0 0 0-3.3-3.3h-1v-2.7h1.1a6.018 6.018 0 0 1 6 6v1.1z" class="cls-1" data-name="Path 2642"/>
        </g>
        <g id="Group_1286" data-name="Group 1286">
            <path id="Path_2643" d="M21.4 20.9h-2.7v-1.1a6.018 6.018 0 0 1 6-6h1v2.7h-1.1a3.329 3.329 0 0 0-3.3 3.3v1.1z" class="cls-1" data-name="Path 2643"/>
        </g>
    </g>
</svg>
