<svg xmlns="http://www.w3.org/2000/svg" width="34" height="30.909" viewBox="0 0 34 30.909">
    <defs>
        <style>
            .cls-1{fill:#1e1e1e}
        </style>
    </defs>
    <path id="money-withdraw" d="M18 17.455a4.636 4.636 0 1 0 4.636 4.636A4.636 4.636 0 0 0 18 17.455zm0 6.182a1.545 1.545 0 1 1 1.545-1.545A1.545 1.545 0 0 1 18 23.636zm-1.1-9.721a1.545 1.545 0 0 0 .51.325 1.453 1.453 0 0 0 1.175 0 1.545 1.545 0 0 0 .51-.325l3.539-3.477a1.6 1.6 0 1 0-2.254-2.257l-.835.912V3.545a1.545 1.545 0 0 0-3.091 0v5.549l-.835-.912a1.6 1.6 0 1 0-2.256 2.256zm11.915 8.175a1.545 1.545 0 1 0-1.545 1.545 1.545 1.545 0 0 0 1.548-1.545zm1.545-10.818h-4.633a1.545 1.545 0 0 0 0 3.091h4.636a1.545 1.545 0 0 1 1.545 1.545v12.364a1.545 1.545 0 0 1-1.545 1.545H5.636a1.545 1.545 0 0 1-1.545-1.545V15.909a1.545 1.545 0 0 1 1.545-1.545h4.636a1.545 1.545 0 1 0 0-3.091H5.636A4.636 4.636 0 0 0 1 15.909v12.364a4.636 4.636 0 0 0 4.636 4.636h24.728A4.636 4.636 0 0 0 35 28.273V15.909a4.636 4.636 0 0 0-4.636-4.636zM7.182 22.091a1.545 1.545 0 1 0 1.545-1.545 1.545 1.545 0 0 0-1.545 1.545z" class="cls-1" transform="translate(-1 -2)"/>
</svg>
