<svg xmlns="http://www.w3.org/2000/svg" id="monitor-offline-alt" width="35.6" height="35.413" viewBox="0 0 35.6 35.413">
    <defs>
        <style>
            .cls-1{fill:#1b1c1d}
        </style>
    </defs>
    <g id="Group_1280" data-name="Group 1280" transform="translate(5.75 5.713)">
        <path id="Path_2635" d="M6.3 0h16.2A1.417 1.417 0 0 1 24 1.5V12h-5.7l3 3H24v1.5a1.613 1.613 0 0 1-.3.9l2.1 2.1a4.07 4.07 0 0 0 1.2-3v-15A4.361 4.361 0 0 0 22.5-3H3.3z" class="cls-1" data-name="Path 2635"/>
        <path id="Path_2636" d="M15.6 21.9l1.2 2.1H7.2L9 21h5.7l-3-3H1.5A1.417 1.417 0 0 1 0 16.5V15h8.7l-3-3H0V6.3l-3-3v13.2A4.419 4.419 0 0 0 1.5 21h3.9l-.9 1.5a2.725 2.725 0 0 0 0 3A3.151 3.151 0 0 0 7.2 27H17a2.425 2.425 0 0 0 2.4-1.4z" class="cls-1" data-name="Path 2636"/>
    </g>
    <path id="Path_2637" d="M28.2 29.7a1.284 1.284 0 0 1-1-.4L-5.3-3.2a1.449 1.449 0 0 1 0-2.1 1.543 1.543 0 0 1 2.1 0l32.6 32.6a1.45 1.45 0 0 1 0 2.1 2.375 2.375 0 0 1-1.2.3z" class="cls-1" data-name="Path 2637" transform="translate(5.75 5.713)"/>
</svg>
