<svg xmlns="http://www.w3.org/2000/svg" width="32.197" height="32.203" viewBox="0 0 32.197 32.203">
    <path d="M11.269 16.104h-3.22a1.61 1.61 0 0 0 0 3.22h3.22a1.61 1.61 0 0 0 0-3.22zm-1.61-3.22H16.1a1.61 1.61 0 1 0 0-3.22H9.659a1.61 1.61 0 0 0 0 3.22zm1.61 9.659h-3.22a1.61 1.61 0 1 0 0 3.22h3.22a1.61 1.61 0 0 0 0-3.22zm19.318-6.439h-4.83V1.616a1.61 1.61 0 0 0-2.415-1.4l-4.83 2.769-4.83-2.769a1.61 1.61 0 0 0-1.61 0L7.244 2.985 2.415.216A1.61 1.61 0 0 0 0 1.616v25.758a4.83 4.83 0 0 0 4.83 4.83h22.538a4.83 4.83 0 0 0 4.83-4.83v-9.659a1.61 1.61 0 0 0-1.611-1.611zM4.83 28.984a1.61 1.61 0 0 1-1.61-1.61V4.404l3.22 1.835a1.739 1.739 0 0 0 1.61 0l4.83-2.769 4.83 2.769a1.739 1.739 0 0 0 1.61 0l3.218-1.835v22.97a4.83 4.83 0 0 0 .29 1.61zm24.148-1.61a1.61 1.61 0 1 1-3.22 0v-8.049h3.22zM18.61 22.818a1.223 1.223 0 0 0-.29-.145.966.966 0 0 0-.306-.1 1.61 1.61 0 0 0-1.449.435 1.69 1.69 0 0 0-.465 1.146 1.61 1.61 0 0 0 .113.612 1.916 1.916 0 0 0 .354.531 1.851 1.851 0 0 0 .531.338 1.513 1.513 0 0 0 1.223 0 1.851 1.851 0 0 0 .531-.338 1.61 1.61 0 0 0 .467-1.143 1.69 1.69 0 0 0-.467-1.143 2.543 2.543 0 0 0-.241-.193zm.225-6.246a1.671 1.671 0 1 0 .354.531 1.465 1.465 0 0 0-.354-.531z"/>
</svg>
