<svg xmlns="http://www.w3.org/2000/svg" viewBox="0 0 16 11.17"><defs><style>.cls-1{fill:#1b1c1d;}</style></defs><title>total pengunjung</title><g id="Layer_2" data-name="Layer 2"><g id="xp"><path class="cls-1" d="M15.8,7.76a6.28,6.28,0,0,0-2-1.52l.05-.08a3.84,3.84,0,0,0,.48-2.06,3.17,3.17,0,0,0-.07-.53,3.13,3.13,0,0,0-2.91-2.46,3.09,3.09,0,0,0-.62.06A3.87,3.87,0,0,0,7.83,0,3.81,3.81,0,0,0,5.29,1.16a3.09,3.09,0,0,0-.64,0A3.13,3.13,0,0,0,1.74,3.58a3.19,3.19,0,0,0-.07.53,3.85,3.85,0,0,0,.48,2.06l.05.08a6.3,6.3,0,0,0-2,1.52A.9.9,0,1,0,1.6,8.88,6.1,6.1,0,0,1,3.5,7.59l.11-.06a1.24,1.24,0,0,0,.69-.85,1.42,1.42,0,0,0-.43-1.21,2.58,2.58,0,0,1-.2-.26,2.1,2.1,0,0,1-.21-1A1.38,1.38,0,0,1,3.5,4a1.34,1.34,0,0,1,.73-.91s0,.09,0,.14a4.28,4.28,0,0,0,.51,3.08,6,6,0,0,1,.54,1.05A9.83,9.83,0,0,0,2,9.73a.9.9,0,1,0,1.43,1.09A8.47,8.47,0,0,1,6.11,8.9l.16-.09A1.48,1.48,0,0,0,7,7.89a3.57,3.57,0,0,0-.77-2.54A2.44,2.44,0,0,1,5.89,4a2.51,2.51,0,0,1,.05-.39,2.17,2.17,0,0,1,2-1.77,2.13,2.13,0,0,1,2.14,1.77,2.51,2.51,0,0,1,.05.52,2.52,2.52,0,0,1-.59,1.68,2.1,2.1,0,0,1-1.15.79.9.9,0,1,0,.41,1.75,3.1,3.1,0,0,0,.33-.12,1.53,1.53,0,0,0,.61.61l.16.09a8.47,8.47,0,0,1,2.67,1.92A.9.9,0,1,0,14,9.71a9.8,9.8,0,0,0-3.21-2.39,2.76,2.76,0,0,1,.2-.47l0,0a4.3,4.3,0,0,0,.94-2.74,4.29,4.29,0,0,0-.09-.9s0-.09,0-.14A1.34,1.34,0,0,1,12.5,4a1.36,1.36,0,0,1,0,.23,2.09,2.09,0,0,1-.21,1,2.54,2.54,0,0,1-.2.27,1.42,1.42,0,0,0-.43,1.21,1.24,1.24,0,0,0,.69.85l.11.06A6.1,6.1,0,0,1,14.4,8.88.9.9,0,1,0,15.8,7.76Z"/></g></g></svg>