<svg xmlns="http://www.w3.org/2000/svg" width="28.333" height="25.5" viewBox="0 0 28.333 25.5">
    <path d="M24.083 5.667h-1.416V4.25A4.25 4.25 0 0 0 18.417 0H4.25A4.25 4.25 0 0 0 0 4.25v17a4.25 4.25 0 0 0 4.25 4.25h19.833a4.25 4.25 0 0 0 4.25-4.25V9.917a4.25 4.25 0 0 0-4.25-4.25zM4.25 2.833h14.167a1.417 1.417 0 0 1 1.416 1.417v1.417H4.25a1.417 1.417 0 1 1 0-2.833zM25.5 17h-1.417a1.417 1.417 0 0 1 0-2.833H25.5zm0-5.667h-1.417a4.25 4.25 0 1 0 0 8.5H25.5v1.417a1.417 1.417 0 0 1-1.417 1.417H4.25a1.417 1.417 0 0 1-1.417-1.417V8.259A4.25 4.25 0 0 0 4.25 8.5h19.833A1.417 1.417 0 0 1 25.5 9.917z"/>
</svg>
